<svg width="173" height="45" viewBox="0 0 173 45" fill="none" xmlns="http://www.w3.org/2000/svg">
<path fill-rule="evenodd" clip-rule="evenodd" d="M36.3 9.7121C36.1 9.49295 36 9.2738 36 8.99987C36 8.72593 36.1 8.50678 36.3 8.28763C36.7 7.90412 37.3 7.90412 37.7 8.28763C37.9 8.50678 38 8.72593 38 8.99987C38 9.2738 37.9 9.49295 37.7 9.7121C37.5 9.87646 37.25 9.98604 37 9.98604C36.75 10.0408 36.5 9.93125 36.3 9.7121Z" fill="white"/>
<path fill-rule="evenodd" clip-rule="evenodd" d="M34.2778 11.7241C34.1111 11.5034 34 11.2828 34 11.0069C34 10.731 34.1111 10.5103 34.2778 10.2897C34.6667 9.90345 35.3333 9.90345 35.7222 10.2897C35.8889 10.5103 36 10.731 36 11.0069C36 11.2828 35.8889 11.5034 35.7222 11.7241C35.5 11.8897 35.2778 12 35 12C34.7222 12 34.5 11.8897 34.2778 11.7241Z" fill="white"/>
<path fill-rule="evenodd" clip-rule="evenodd" d="M31.2778 13.7241C31.1111 13.5586 31 13.2828 31 13.0069C31 12.731 31.1111 12.5103 31.2778 12.2897C31.6667 11.9034 32.3333 11.9034 32.7222 12.2897C32.8889 12.4552 33 12.731 33 13.0069C33 13.2828 32.8889 13.5034 32.7222 13.7241C32.5 13.9448 32.2778 14 32 14C31.7222 14 31.4444 13.8897 31.2778 13.7241Z" fill="white"/>
<path fill-rule="evenodd" clip-rule="evenodd" d="M29.3 16.7241C29.1 16.5586 29 16.2828 29 16.0069C29 15.731 29.1 15.5103 29.3 15.2897C29.7 14.9034 30.3 14.9034 30.7 15.2897C30.9 15.4552 31 15.731 31 16.0069C31 16.2828 30.9 16.5586 30.7 16.7241C30.5 16.9448 30.25 17 30 17C29.75 17 29.5 16.9448 29.3 16.7241Z" fill="white"/>
<path fill-rule="evenodd" clip-rule="evenodd" d="M26.2778 18.7121C26.0556 18.5477 26 18.2738 26 17.9999C26 17.7259 26.1111 17.5068 26.2778 17.2876C26.6667 16.9041 27.3333 16.9041 27.7222 17.2876C27.9444 17.452 28 17.7259 28 17.9999C28 18.2738 27.8889 18.5477 27.7222 18.7121C27.5556 18.9313 27.2778 18.986 27 18.986C26.7222 19.0408 26.4444 18.9313 26.2778 18.7121Z" fill="white"/>
<path fill-rule="evenodd" clip-rule="evenodd" d="M24 20.0069C24 19.731 24.1111 19.5103 24.2778 19.2897C24.6667 18.9034 25.3333 18.9034 25.7222 19.2897C25.9444 19.5103 26 19.731 26 20.0069C26 20.2828 25.8889 20.5034 25.7222 20.7241C25.5556 20.8897 25.2778 21 25 21C24.7222 21 24.5 20.8897 24.2778 20.7241C24.1111 20.5586 24 20.2828 24 20.0069Z" fill="white"/>
<path fill-rule="evenodd" clip-rule="evenodd" d="M19.2778 25.7121C19.1111 25.5477 19 25.2738 19 24.9999C19 24.7259 19.1111 24.5068 19.2778 24.2876C19.6667 23.9041 20.3333 23.9041 20.7222 24.2876C20.9444 24.5068 21 24.7259 21 24.9999C21 25.2738 20.8889 25.493 20.7222 25.7121C20.5556 25.9313 20.2778 25.986 20 25.986C19.7222 26.0408 19.5 25.9313 19.2778 25.7121Z" fill="white"/>
<path fill-rule="evenodd" clip-rule="evenodd" d="M17.3 27.7121C17.1 27.5477 17 27.2738 17 26.9999C17 26.7259 17.1 26.5068 17.3 26.2876C17.7 25.9041 18.3 25.9041 18.7 26.2876C18.9 26.5068 19 26.7259 19 26.9999C19 27.2738 18.9 27.493 18.7 27.7121C18.5 27.9313 18.25 27.986 18 27.986C17.75 28.0408 17.5 27.9313 17.3 27.7121Z" fill="white"/>
<path fill-rule="evenodd" clip-rule="evenodd" d="M15.2778 30.7241C15.1111 30.5586 15 30.2828 15 30.0069C15 29.731 15.1111 29.4552 15.2778 29.2897C15.6667 28.9034 16.3333 28.9034 16.7222 29.2897C16.8889 29.4552 17 29.731 17 30.0069C17 30.2828 16.8889 30.5034 16.7222 30.7241C16.5 30.9448 16.2778 31 16 31C15.7222 31 15.5 30.8897 15.2778 30.7241Z" fill="white"/>
<path fill-rule="evenodd" clip-rule="evenodd" d="M12.2778 32.7241C12.0556 32.5586 12 32.2828 12 32.0069C12 31.731 12.1111 31.5103 12.2778 31.2897C12.6667 30.9034 13.3333 30.9034 13.7222 31.2897C13.8889 31.5103 14 31.731 14 32.0069C14 32.2828 13.8889 32.5586 13.7222 32.7241C13.5 32.9448 13.2778 33 13 33C12.7222 33 12.4444 32.9448 12.2778 32.7241Z" fill="white"/>
<path fill-rule="evenodd" clip-rule="evenodd" d="M10.3077 34.7241C10.1026 34.5586 10 34.2828 10 34.0069C10 33.731 10.1026 33.5103 10.3077 33.2897C10.7179 32.9034 11.3333 32.9034 11.6923 33.2897C11.8974 33.5103 12 33.731 12 34.0069C12 34.2828 11.8974 34.5586 11.6923 34.7241C11.4872 34.8897 11.2308 35 10.9744 35C10.7179 35 10.4615 34.9448 10.3077 34.7241Z" fill="white"/>
<path fill-rule="evenodd" clip-rule="evenodd" d="M8.27778 37.7121C8.05556 37.493 8 37.2738 8 36.9999C8 36.7259 8.11111 36.5068 8.27778 36.2876C8.66667 35.9041 9.33333 35.9041 9.72222 36.2876C9.94444 36.5068 10 36.7259 10 36.9999C10 37.2738 9.88889 37.493 9.72222 37.7121C9.55556 37.8765 9.27778 37.986 9 37.986C8.77778 38.0408 8.5 37.9313 8.27778 37.7121Z" fill="white"/>
<path fill-rule="evenodd" clip-rule="evenodd" d="M9.72222 9.7121C9.88889 9.49295 10 9.2738 10 8.99987C10 8.72593 9.88889 8.50678 9.72222 8.28763C9.33333 7.90412 8.66667 7.90412 8.27778 8.28763C8.05556 8.50678 8 8.72593 8 8.99987C8 9.2738 8.11111 9.49295 8.27778 9.7121C8.44444 9.87646 8.72222 9.98604 9 9.98604C9.27778 10.0408 9.55556 9.93125 9.72222 9.7121Z" fill="white"/>
<path fill-rule="evenodd" clip-rule="evenodd" d="M11.7 11.7241C11.9 11.5034 12 11.2828 12 11.0069C12 10.731 11.9 10.5103 11.7 10.2897C11.3 9.90345 10.7 9.90345 10.3 10.2897C10.1 10.5103 10 10.731 10 11.0069C10 11.2828 10.1 11.5034 10.3 11.7241C10.5 11.8897 10.75 12 11 12C11.25 12 11.5 11.8897 11.7 11.7241Z" fill="white"/>
<path fill-rule="evenodd" clip-rule="evenodd" d="M13.7222 13.7241C13.8889 13.5586 14 13.2828 14 13.0069C14 12.731 13.8889 12.5103 13.7222 12.2897C13.3333 11.9034 12.6667 11.9034 12.2778 12.2897C12.1111 12.4552 12 12.731 12 13.0069C12 13.2828 12.1111 13.5034 12.2778 13.7241C12.5 13.9448 12.7222 14 13 14C13.2222 14 13.5 13.8897 13.7222 13.7241Z" fill="white"/>
<path fill-rule="evenodd" clip-rule="evenodd" d="M16.7222 16.7241C16.8889 16.5586 17 16.2828 17 16.0069C17 15.731 16.8889 15.5103 16.7222 15.2897C16.3333 14.9034 15.6667 14.9034 15.2778 15.2897C15.1111 15.4552 15 15.731 15 16.0069C15 16.2828 15.1111 16.5586 15.2778 16.7241C15.5 16.9448 15.7222 17 16 17C16.2222 17 16.5 16.9448 16.7222 16.7241Z" fill="white"/>
<path fill-rule="evenodd" clip-rule="evenodd" d="M18.6923 18.7121C18.8974 18.5477 19 18.2738 19 17.9999C19 17.7259 18.8974 17.5068 18.6923 17.2876C18.3333 16.9041 17.6667 16.9041 17.3077 17.2876C17.1026 17.452 17 17.7259 17 17.9999C17 18.2738 17.1026 18.5477 17.3077 18.7121C17.5128 18.9313 17.7692 18.986 18.0256 18.986C18.2821 19.0408 18.5385 18.9313 18.6923 18.7121Z" fill="white"/>
<path fill-rule="evenodd" clip-rule="evenodd" d="M21 20.0069C21 19.731 20.8889 19.5103 20.7222 19.2897C20.3333 18.9034 19.6667 18.9034 19.2778 19.2897C19.0556 19.5103 19 19.731 19 20.0069C19 20.2828 19.1111 20.5034 19.2778 20.7241C19.4444 20.8897 19.7222 21 20 21C20.2778 21 20.5 20.8897 20.7222 20.7241C20.9444 20.5586 21 20.2828 21 20.0069Z" fill="white"/>
<path fill-rule="evenodd" clip-rule="evenodd" d="M23.7222 23.7241C23.9444 23.5034 24 23.2828 24 23.0069C24 22.731 23.8889 22.5103 23.7222 22.2897C23.3333 21.9034 22.6667 21.9034 22.2778 22.2897C22.0556 22.5103 22 22.731 22 23.0069C22 23.2828 22.1111 23.5034 22.2778 23.7241C22.4444 23.8897 22.7222 24 23 24C23.2778 24 23.5556 23.8897 23.7222 23.7241Z" fill="white"/>
<path fill-rule="evenodd" clip-rule="evenodd" d="M25.6923 25.7121C25.8974 25.5477 26 25.2738 26 24.9999C26 24.7259 25.8974 24.5068 25.6923 24.2876C25.2821 23.9041 24.6667 23.9041 24.3077 24.2876C24.1026 24.5068 24 24.7259 24 24.9999C24 25.2738 24.1026 25.493 24.3077 25.7121C24.5128 25.9313 24.7692 25.986 25.0256 25.986C25.2308 26.0408 25.4872 25.9313 25.6923 25.7121Z" fill="white"/>
<path fill-rule="evenodd" clip-rule="evenodd" d="M27.7222 27.7121C27.8889 27.5477 28 27.2738 28 26.9999C28 26.7259 27.8889 26.5068 27.7222 26.2876C27.3333 25.9041 26.6667 25.9041 26.2778 26.2876C26.1111 26.5068 26 26.7259 26 26.9999C26 27.2738 26.1111 27.493 26.2778 27.7121C26.5 27.9313 26.7222 27.986 27 27.986C27.2222 28.0408 27.5 27.9313 27.7222 27.7121Z" fill="white"/>
<path fill-rule="evenodd" clip-rule="evenodd" d="M30.7222 30.7241C30.8889 30.5586 31 30.2828 31 30.0069C31 29.731 30.8889 29.4552 30.7222 29.2897C30.3333 28.9034 29.6667 28.9034 29.2778 29.2897C29.1111 29.4552 29 29.731 29 30.0069C29 30.2828 29.1111 30.5034 29.2778 30.7241C29.5 30.9448 29.7222 31 30 31C30.2778 31 30.5 30.8897 30.7222 30.7241Z" fill="white"/>
<path fill-rule="evenodd" clip-rule="evenodd" d="M32.7222 32.7241C32.9444 32.5586 33 32.2828 33 32.0069C33 31.731 32.8889 31.5103 32.7222 31.2897C32.3333 30.9034 31.6667 30.9034 31.2778 31.2897C31.1111 31.5103 31 31.731 31 32.0069C31 32.2828 31.1111 32.5586 31.2778 32.7241C31.5 32.9448 31.7222 33 32 33C32.2778 33 32.5556 32.9448 32.7222 32.7241Z" fill="white"/>
<path fill-rule="evenodd" clip-rule="evenodd" d="M35.7222 34.7241C35.9444 34.5586 36 34.2828 36 34.0069C36 33.731 35.8889 33.5103 35.7222 33.2897C35.3333 32.9034 34.6667 32.9034 34.2778 33.2897C34.0556 33.5103 34 33.731 34 34.0069C34 34.2828 34.1111 34.5586 34.2778 34.7241C34.4444 34.8897 34.7222 35 35 35C35.2778 35 35.5556 34.9448 35.7222 34.7241Z" fill="white"/>
<path fill-rule="evenodd" clip-rule="evenodd" d="M37.6923 37.7121C37.8974 37.493 38 37.2738 38 36.9999C38 36.7259 37.8974 36.5068 37.6923 36.2876C37.2821 35.9041 36.6667 35.9041 36.3077 36.2876C36.1026 36.5068 36 36.7259 36 36.9999C36 37.2738 36.1026 37.493 36.3077 37.7121C36.5128 37.8765 36.7692 37.986 37.0256 37.986C37.2308 38.0408 37.4872 37.9313 37.6923 37.7121Z" fill="white"/>
<path fill-rule="evenodd" clip-rule="evenodd" d="M15.0337 10C17.4352 8.36538 20.0675 7.59615 22.9769 7.54808C25.8401 7.54808 28.4725 8.36538 30.9201 10L36 4.71154C32.0284 1.58654 27.7336 0 22.9769 0C18.2202 0 13.8792 1.58654 10 4.71154L15.0337 10Z" fill="white"/>
<path fill-rule="evenodd" clip-rule="evenodd" d="M9 30.8648C7.46341 28.4128 6.71707 25.7758 6.71707 22.9537C6.71707 20.0854 7.46341 17.4484 9 15.0427L4.21463 10C1.40488 13.8861 0 18.1886 0 23C0 27.7189 1.40488 32.0676 4.25854 36L9 30.8648Z" fill="white"/>
<path fill-rule="evenodd" clip-rule="evenodd" d="M29.9663 35C27.5648 36.6825 24.9325 37.5478 22.0693 37.5959C19.1599 37.5959 16.4813 36.7787 14.0799 35.0481L9 40.2879C12.9254 43.4606 17.2664 45.047 22.0693 44.9989C26.8259 44.9509 31.1208 43.3645 35 40.2879L29.9663 35Z" fill="white"/>
<path fill-rule="evenodd" clip-rule="evenodd" d="M35 14.1352C36.6825 16.5872 37.5478 19.2705 37.4997 22.1851C37.4517 25.0071 36.6344 27.5979 35 29.9573L40.2879 35C43.4126 31.1139 44.9989 26.8114 44.9989 22.0925C45.047 17.2811 43.4606 12.9324 40.2879 9L35 14.1352Z" fill="white"/>
<path fill-rule="evenodd" clip-rule="evenodd" d="M40.5 37C42.4091 37 44 38.5455 44 40.5C44 42.4091 42.4545 44 40.5 44C38.5909 44 37 42.4545 37 40.5C37 38.5455 38.5455 37 40.5 37Z" fill="white"/>
<path fill-rule="evenodd" clip-rule="evenodd" d="M4.5 37C6.43421 37 8 38.5455 8 40.5C8 42.4091 6.43421 44 4.5 44C2.56579 44 1 42.4545 1 40.5C1 38.5455 2.56579 37 4.5 37Z" fill="white"/>
<path fill-rule="evenodd" clip-rule="evenodd" d="M40.5 1C42.4342 1 44 2.54545 44 4.5C44 6.45455 42.4342 8 40.5 8C38.5658 8 37 6.45455 37 4.5C37 2.54545 38.5658 1 40.5 1Z" fill="white"/>
<path fill-rule="evenodd" clip-rule="evenodd" d="M4.5 1C6.40909 1 8 2.56579 8 4.5C8 6.43421 6.45455 8 4.5 8C2.59091 8 1 6.43421 1 4.5C1 2.56579 2.54545 1 4.5 1Z" fill="white"/>
<path d="M75.5124 32.625L73.3611 30.7439C72.059 32.2377 69.4549 33.123 67.2469 33.123C63.5671 33.123 60.6232 30.9652 60.2836 27.4795H76.5881C77.3241 20.0102 72.8516 16.4693 66.9639 16.4693C61.1894 16.4693 57 20.5082 57 26.207C57 32.1824 61.1327 36 67.1337 36C70.1908 35.9447 73.531 34.8381 75.5124 32.625ZM73.6442 24.8238H60.3402C60.9063 21.2275 63.7936 19.2357 67.1337 19.2357C70.8702 19.2357 73.4178 21.1721 73.6442 24.7131V24.8238ZM84.5139 9H81.3436V35.6127H84.5139V9ZM93.5154 16.8566H90.5715V35.6127H93.7418V25.1557C93.7418 21.7254 96.2894 19.5676 99.4031 19.5123C100.705 19.5123 101.724 19.8443 102.743 20.5635L104.159 17.9078C102.97 17.0225 101.385 16.4693 99.6862 16.5246C97.4783 16.5246 95.1005 17.1885 93.7984 19.623L93.5154 16.8566ZM105.97 26.2623C105.97 31.9611 110.16 35.9447 115.934 35.9447C121.709 35.9447 125.898 31.9611 125.898 26.2623C125.898 20.4529 121.765 16.4139 115.934 16.4139C110.216 16.4139 105.97 20.4529 105.97 26.2623ZM122.728 26.2623C122.671 30.1906 119.84 33.0123 115.877 33.0123C111.971 33.0123 109.141 30.1906 109.141 26.2623C109.141 22.0574 112.028 19.291 115.934 19.291C119.784 19.291 122.728 22.1127 122.728 26.2623ZM130.484 16.8012V35.6127H133.654V25.543C133.654 22.168 136.088 19.457 139.542 19.4016C143.222 19.4016 145.373 21.6701 145.373 25.2664V35.6127H148.543V25.2664C148.543 19.7336 144.977 16.5799 140.108 16.5799C137.56 16.5799 135.183 17.6311 133.541 19.8443L133.371 16.8566L130.484 16.8012ZM172.943 9H169.773V20.2316C168.414 17.6865 165.301 16.4693 162.583 16.4693C157.148 16.4693 152.902 19.8996 152.902 26.207C152.902 32.4037 157.148 35.9447 162.64 35.9447C165.47 35.9447 168.301 34.7275 169.83 32.127L170 35.5574H173L172.943 9ZM162.866 19.4016C166.659 19.4016 169.66 22.168 169.66 26.1516C169.66 30.2459 166.659 33.0123 162.866 33.0123C159.13 33.0123 156.129 30.5225 156.129 26.207C156.129 21.8361 159.073 19.457 162.753 19.4016H162.866Z" fill="white"/>
</svg>
