<svg width="203" height="40" viewBox="0 0 203 40" fill="none" xmlns="http://www.w3.org/2000/svg">
<path d="M66.8869 17.2944V10.6144H72.7669C73.3269 10.6144 73.8603 10.6677 74.3669 10.7744C74.9003 10.8544 75.3669 11.0144 75.7669 11.2544C76.1669 11.4944 76.4869 11.8277 76.7269 12.2544C76.9669 12.681 77.0869 13.2277 77.0869 13.8944C77.0869 15.0944 76.7269 15.961 76.0069 16.4944C75.2869 17.0277 74.3669 17.2944 73.2469 17.2944H66.8869ZM60.6069 5.73438V34.2944H74.4469C75.7269 34.2944 76.9669 34.1344 78.1669 33.8144C79.3936 33.4944 80.4736 33.001 81.4069 32.3344C82.3669 31.6677 83.1269 30.8144 83.6869 29.7744C84.2469 28.7077 84.5269 27.4544 84.5269 26.0144C84.5269 24.2277 84.0869 22.7077 83.2069 21.4544C82.3536 20.1744 81.0469 19.281 79.2869 18.7744C80.5669 18.161 81.5269 17.3744 82.1669 16.4144C82.8336 15.4544 83.1669 14.2544 83.1669 12.8144C83.1669 11.481 82.9403 10.361 82.4869 9.45437C82.0603 8.54771 81.4469 7.82771 80.6469 7.29438C79.8469 6.73438 78.8869 6.33437 77.7669 6.09437C76.6469 5.85437 75.4069 5.73438 74.0469 5.73438H60.6069ZM66.8869 29.4144V21.5744H73.7269C75.0869 21.5744 76.1803 21.8944 77.0069 22.5344C77.8336 23.1477 78.2469 24.1877 78.2469 25.6544C78.2469 26.401 78.1136 27.0144 77.8469 27.4944C77.6069 27.9744 77.2736 28.361 76.8469 28.6544C76.4203 28.921 75.9269 29.121 75.3669 29.2544C74.8069 29.361 74.2203 29.4144 73.6069 29.4144H66.8869Z" fill="white"/>
<path d="M93.211 23.9744C93.211 23.1477 93.291 22.3344 93.451 21.5344C93.611 20.7344 93.8777 20.0277 94.251 19.4144C94.651 18.801 95.171 18.3077 95.811 17.9344C96.451 17.5344 97.251 17.3344 98.211 17.3344C99.171 17.3344 99.971 17.5344 100.611 17.9344C101.278 18.3077 101.798 18.801 102.171 19.4144C102.571 20.0277 102.851 20.7344 103.011 21.5344C103.171 22.3344 103.251 23.1477 103.251 23.9744C103.251 24.801 103.171 25.6144 103.011 26.4144C102.851 27.1877 102.571 27.8944 102.171 28.5344C101.798 29.1477 101.278 29.641 100.611 30.0144C99.971 30.3877 99.171 30.5744 98.211 30.5744C97.251 30.5744 96.451 30.3877 95.811 30.0144C95.171 29.641 94.651 29.1477 94.251 28.5344C93.8777 27.8944 93.611 27.1877 93.451 26.4144C93.291 25.6144 93.211 24.801 93.211 23.9744ZM87.531 23.9744C87.531 25.6277 87.7843 27.121 88.291 28.4544C88.7977 29.7877 89.5177 30.9344 90.451 31.8944C91.3843 32.8277 92.5043 33.5477 93.811 34.0544C95.1177 34.561 96.5843 34.8144 98.211 34.8144C99.8377 34.8144 101.304 34.561 102.611 34.0544C103.944 33.5477 105.078 32.8277 106.011 31.8944C106.944 30.9344 107.664 29.7877 108.171 28.4544C108.678 27.121 108.931 25.6277 108.931 23.9744C108.931 22.321 108.678 20.8277 108.171 19.4944C107.664 18.1344 106.944 16.9877 106.011 16.0544C105.078 15.0944 103.944 14.361 102.611 13.8544C101.304 13.321 99.8377 13.0544 98.211 13.0544C96.5843 13.0544 95.1177 13.321 93.811 13.8544C92.5043 14.361 91.3843 15.0944 90.451 16.0544C89.5177 16.9877 88.7977 18.1344 88.291 19.4944C87.7843 20.8277 87.531 22.321 87.531 23.9744Z" fill="white"/>
<path d="M132.024 34.2944V13.6144H126.344V24.4544C126.344 26.561 125.997 28.081 125.304 29.0144C124.611 29.921 123.491 30.3744 121.944 30.3744C120.584 30.3744 119.637 29.961 119.104 29.1344C118.571 28.281 118.304 27.001 118.304 25.2944V13.6144H112.624V26.3344C112.624 27.6144 112.731 28.7877 112.944 29.8544C113.184 30.8944 113.584 31.7877 114.144 32.5344C114.704 33.2544 115.464 33.8144 116.424 34.2144C117.411 34.6144 118.664 34.8144 120.184 34.8144C121.384 34.8144 122.557 34.5477 123.704 34.0144C124.851 33.481 125.784 32.6144 126.504 31.4144H126.624V34.2944H132.024Z" fill="white"/>
<path d="M136.335 13.6144V34.2944H142.015V23.4544C142.015 21.3477 142.362 19.841 143.055 18.9344C143.748 18.001 144.868 17.5344 146.415 17.5344C147.775 17.5344 148.722 17.961 149.255 18.8144C149.788 19.641 150.055 20.9077 150.055 22.6144V34.2944H155.735V21.5744C155.735 20.2944 155.615 19.1344 155.375 18.0944C155.162 17.0277 154.775 16.1344 154.215 15.4144C153.655 14.6677 152.882 14.0944 151.895 13.6944C150.935 13.2677 149.695 13.0544 148.175 13.0544C146.975 13.0544 145.802 13.3344 144.655 13.8944C143.508 14.4277 142.575 15.2944 141.855 16.4944H141.735V13.6144H136.335Z" fill="white"/>
<path d="M174.126 20.8944H179.686C179.606 19.561 179.286 18.4144 178.726 17.4544C178.166 16.4677 177.433 15.6544 176.526 15.0144C175.646 14.3477 174.633 13.8544 173.486 13.5344C172.366 13.2144 171.193 13.0544 169.966 13.0544C168.286 13.0544 166.793 13.3344 165.486 13.8944C164.179 14.4544 163.073 15.241 162.166 16.2544C161.259 17.241 160.566 18.4277 160.086 19.8144C159.633 21.1744 159.406 22.6544 159.406 24.2544C159.406 25.801 159.659 27.2277 160.166 28.5344C160.673 29.8144 161.379 30.921 162.286 31.8544C163.193 32.7877 164.286 33.521 165.566 34.0544C166.873 34.561 168.299 34.8144 169.846 34.8144C172.593 34.8144 174.846 34.0944 176.606 32.6544C178.366 31.2144 179.433 29.121 179.806 26.3744H174.326C174.139 27.6544 173.673 28.681 172.926 29.4544C172.206 30.201 171.166 30.5744 169.806 30.5744C168.926 30.5744 168.179 30.3744 167.566 29.9744C166.953 29.5744 166.459 29.0677 166.086 28.4544C165.739 27.8144 165.486 27.1077 165.326 26.3344C165.166 25.561 165.086 24.801 165.086 24.0544C165.086 23.281 165.166 22.5077 165.326 21.7344C165.486 20.9344 165.753 20.2144 166.126 19.5744C166.526 18.9077 167.033 18.3744 167.646 17.9744C168.259 17.5477 169.019 17.3344 169.926 17.3344C172.353 17.3344 173.753 18.521 174.126 20.8944Z" fill="white"/>
<path d="M196.935 21.7344H187.695C187.721 21.3344 187.801 20.881 187.935 20.3744C188.095 19.8677 188.348 19.3877 188.695 18.9344C189.068 18.481 189.548 18.1077 190.135 17.8144C190.748 17.4944 191.508 17.3344 192.415 17.3344C193.801 17.3344 194.828 17.7077 195.495 18.4544C196.188 19.201 196.668 20.2944 196.935 21.7344ZM187.695 25.3344H202.615C202.721 23.7344 202.588 22.201 202.215 20.7344C201.841 19.2677 201.228 17.961 200.375 16.8144C199.548 15.6677 198.481 14.761 197.175 14.0944C195.868 13.401 194.335 13.0544 192.575 13.0544C191.001 13.0544 189.561 13.3344 188.255 13.8944C186.975 14.4544 185.868 15.2277 184.935 16.2144C184.001 17.1744 183.281 18.321 182.775 19.6544C182.268 20.9877 182.015 22.4277 182.015 23.9744C182.015 25.5744 182.255 27.041 182.735 28.3744C183.241 29.7077 183.948 30.8544 184.855 31.8144C185.761 32.7744 186.868 33.521 188.175 34.0544C189.481 34.561 190.948 34.8144 192.575 34.8144C194.921 34.8144 196.921 34.281 198.575 33.2144C200.228 32.1477 201.455 30.3744 202.255 27.8944H197.255C197.068 28.5344 196.561 29.1477 195.735 29.7344C194.908 30.2944 193.921 30.5744 192.775 30.5744C191.175 30.5744 189.948 30.161 189.095 29.3344C188.241 28.5077 187.775 27.1744 187.695 25.3344Z" fill="white"/>
<path fill-rule="evenodd" clip-rule="evenodd" d="M0.000679517 2.5C0.000679517 1.11929 1.11996 0 2.50067 0H10.834C12.2147 0 13.3339 1.11929 13.3339 2.5C13.3339 3.88071 12.2147 5 10.834 5H2.50067C1.11996 5 0.000679517 3.88071 0.000679517 2.5ZM26.5131 4.96907C26.9904 6.26465 26.327 7.70187 25.0315 8.17919L3.36492 16.1616C2.06935 16.639 0.632138 15.9756 0.154821 14.6801C-0.322496 13.3845 0.340833 11.9473 1.63641 11.4699L23.303 3.48748C24.5985 3.01016 26.0357 3.67349 26.5131 4.96907ZM26.5131 25.3199C26.9904 26.6155 26.327 28.0527 25.0315 28.5301L3.36492 36.5125C2.06935 36.9898 0.632138 36.3265 0.154821 35.0309C-0.322496 33.7353 0.340833 32.2981 1.63641 31.8208L23.303 23.8384C24.5985 23.361 26.0357 24.0244 26.5131 25.3199ZM13.3339 37.5C13.3339 36.1193 14.4532 35 15.8339 35H24.1672C25.5479 35 26.6672 36.1193 26.6672 37.5C26.6672 38.8807 25.5479 40 24.1672 40H15.8339C14.4532 40 13.3339 38.8807 13.3339 37.5Z" fill="white"/>
<path fill-rule="evenodd" clip-rule="evenodd" d="M26.5006 14.9353C26.9962 16.2239 26.3533 17.6704 25.0647 18.1661L3.3981 26.4994C2.10943 26.9951 0.662953 26.3522 0.167309 25.0635C-0.328335 23.7748 0.314543 22.3283 1.60322 21.8327L23.2698 13.4993C24.5585 13.0037 26.0049 13.6466 26.5006 14.9353Z" fill="white"/>
</svg>
