<svg width="193" height="60" viewBox="0 0 193 60" fill="none" xmlns="http://www.w3.org/2000/svg">
<path d="M28.3882 55.4506C26.2616 53.78 25.2062 52.0459 25.2115 50.248C25.1637 48.5993 25.7721 46.999 26.9032 45.7986L51.0121 21.6898C52.672 23.1057 53.6531 24.7126 53.9713 26.5264C54.1349 27.4034 54.0801 28.3072 53.8119 29.1581C53.5437 30.0089 53.0703 30.7807 52.4333 31.4054L28.3882 55.4506ZM19.7968 46.8592C17.6649 45.1834 16.6095 43.4492 16.6202 41.6567C16.5723 40.008 17.1808 38.4077 18.3119 37.2072L42.4207 13.0984C44.0753 14.5091 45.0618 16.1213 45.38 17.935C45.5419 18.8117 45.4859 19.7147 45.2168 20.5646C44.9477 21.4145 44.4737 22.1851 43.8367 22.8088L19.7968 46.8592ZM11.2002 38.2626C9.06825 36.5867 8.01289 34.8526 8.0235 33.06C7.97567 31.4113 8.58413 29.811 9.71525 28.6106L33.8241 4.50176C35.484 5.91775 36.4651 7.52465 36.7833 9.33838C36.9469 10.2154 36.8921 11.1192 36.6239 11.9701C36.3557 12.8209 35.8823 13.5927 35.2453 14.2174L11.2002 38.2626Z" fill="url(#paint0_linear_205_390)"/>
<path fill-rule="evenodd" clip-rule="evenodd" d="M163.958 24.1875C166.658 24.1875 168.78 25.0875 170.318 26.91L170.483 27.105V24.7425H175.643V44.745H170.483V42.3825L170.318 42.585C168.78 44.4 166.665 45.3075 163.958 45.3075C161.295 45.3075 159.008 44.2875 157.103 42.2475C155.198 40.2075 154.238 37.7025 154.238 34.7475C154.238 31.7925 155.19 29.2875 157.103 27.2475C157.96 26.2772 159.016 25.502 160.198 24.9741C161.381 24.4463 162.663 24.1781 163.958 24.1875ZM141.563 24.1875C144.488 24.1875 146.918 25.2 148.823 27.225C150.731 29.2571 151.758 31.9612 151.68 34.7475C151.68 35.3025 151.635 35.8875 151.545 36.495L151.478 36.87H136.403C137.093 39.375 138.975 40.62 142.043 40.62C143.933 40.62 145.38 40.02 146.393 38.79L146.52 38.625H151.478C151.325 39.4786 151.006 40.2939 150.54 41.025C149.063 43.425 145.8 45.3 141.96 45.3C138.66 45.3 135.998 44.3025 134.003 42.3C132.008 40.2975 131.003 37.785 131.003 34.7475C131.003 31.7325 131.985 29.22 133.958 27.2025C135.93 25.1925 138.465 24.1875 141.563 24.1875ZM85.5227 14.655V38.715C85.5227 38.9139 85.6017 39.1047 85.7424 39.2454C85.883 39.386 86.0738 39.465 86.2727 39.465H96.2027V44.745H81.5027C81.1049 44.745 80.7233 44.587 80.442 44.3057C80.1607 44.0244 80.0027 43.6429 80.0027 43.245V14.655H85.5227ZM104.243 24.7425V44.745H99.0827V24.7425H104.243ZM120.083 24.1875C122.265 24.1875 124.073 24.915 125.498 26.385C126.923 27.855 127.643 29.88 127.643 32.46V44.745H122.483V32.8725C122.51 31.8245 122.121 30.8082 121.403 30.045C121.018 29.685 120.565 29.4059 120.07 29.2242C119.575 29.0426 119.049 28.9621 118.523 28.9875C117.188 28.9875 116.123 29.4 115.32 30.225C114.518 31.05 114.12 32.295 114.12 33.945V44.745H108.96V24.7425H114.12V26.985L114.248 26.805C115.508 25.0575 117.45 24.18 120.083 24.18V24.1875ZM191.558 24.345V30.105L191.303 30.075C189.908 29.934 188.507 30.2841 187.343 31.065C186.098 31.89 185.483 33.2625 185.483 35.19V44.745H180.323V24.7425H185.483V28.185L185.573 27.945C186.018 26.8335 186.823 25.9037 187.86 25.305C188.985 24.6607 190.262 24.3292 191.558 24.345ZM164.918 29.1075C163.32 29.1075 162 29.6325 160.958 30.6825C159.923 31.7325 159.398 33.09 159.398 34.7475C159.398 36.405 159.923 37.755 160.958 38.8275C161.476 39.3441 162.095 39.7489 162.776 40.0172C163.457 40.2855 164.186 40.4115 164.918 40.3875C165.661 40.411 166.402 40.2806 167.092 40.0045C167.783 39.7284 168.409 39.3125 168.932 38.783C169.454 38.2534 169.862 37.6216 170.129 36.9272C170.396 36.2328 170.516 35.4907 170.483 34.7475C170.516 34.005 170.396 33.2636 170.129 32.5697C169.863 31.8758 169.456 31.2444 168.935 30.7149C168.413 30.1855 167.787 29.7695 167.098 29.4929C166.408 29.2163 165.668 29.0851 164.925 29.1075H164.918ZM141.563 28.8225C140.175 28.8225 139.028 29.175 138.12 29.8875C137.251 30.5807 136.639 31.5441 136.38 32.625L136.32 32.865H146.52C146.319 31.6583 145.668 30.5727 144.698 29.8275C143.788 29.1631 142.689 28.8106 141.563 28.8225Z" fill="white"/>
<path d="M113.295 14.805C113.295 17.445 111.255 19.605 108.668 19.7925L108.293 19.8075H98.8277V19.6425C98.8298 18.3821 99.3076 17.169 100.166 16.2457C101.023 15.3224 102.198 14.7569 103.455 14.6625L103.83 14.6475H113.288V14.805H113.295Z" fill="url(#paint1_linear_205_390)"/>
<defs>
<linearGradient id="paint0_linear_205_390" x1="22.5259" y1="21.439" x2="42.463" y2="41.3761" gradientUnits="userSpaceOnUse">
<stop stop-color="#7EB5FF"/>
<stop offset="0.9997" stop-color="#1A38F8"/>
</linearGradient>
<linearGradient id="paint1_linear_205_390" x1="112.398" y1="16.9075" x2="99.7232" y2="16.9075" gradientUnits="userSpaceOnUse">
<stop stop-color="#7EB5FF"/>
<stop offset="0.9995" stop-color="#1A38F8"/>
</linearGradient>
</defs>
</svg>
