<svg width="203" height="51" viewBox="0 0 203 51" fill="none" xmlns="http://www.w3.org/2000/svg">
<path d="M6.5 17C10.0899 17 13 14.0899 13 10.5C13 6.91015 10.0899 4 6.5 4C2.91015 4 0 6.91015 0 10.5C0 14.0899 2.91015 17 6.5 17Z" fill="white"/>
<path d="M35.99 17H27.01C25.9077 17 25 16.0923 25 14.99V6.00998C25 4.90773 25.9077 4 27.01 4H35.99C37.0923 4 38 4.90773 38 6.00998V14.99C38 16.1247 37.0923 17 35.99 17Z" fill="#00FFB9"/>
<path d="M12.6899 23H12.3101H2.68987C1.20253 23 0 24.2335 0 25.7591V36.0162V46.2409C0 47.7665 1.20253 49 2.68987 49H10C11.4873 49 12.6899 47.7665 12.6899 46.2409V38.7753C12.6899 37.2497 13.8924 36.0162 15.3797 36.0162H22.3101C23.7975 36.0162 25 34.7828 25 33.2572V25.7591C25 24.2335 23.7975 23 22.3101 23H12.6899Z" fill="#00DAFF"/>
<path d="M62 0H66V22H62V0Z" fill="white"/>
<path d="M70 7.2897H73.7263V8.7382C74.5789 7.64378 75.8105 7 77.2316 7C78.8737 7 80.3579 7.86909 81.3684 9.31759C82.3158 7.90128 83.8 7 85.6632 7C88.7263 7 91 9.47854 91 12.6974V22H87.2737V12.9871C87.2737 11.5386 86.2632 10.3798 84.8737 10.3798C83.3579 10.3798 82.379 11.6352 82.379 13.1481V22H78.6526V12.9871C78.6526 11.5386 77.6421 10.3798 76.1895 10.3798C74.7053 10.3798 73.7579 11.6352 73.7579 13.1481V22H70V7.2897Z" fill="white"/>
<path d="M94 7.2929H97.8689V8.88757C99.0492 7.71597 100.656 7 102.623 7C106.656 7 110 10.4172 110 14.7456C110 19.074 106.656 22.4911 102.623 22.4911C100.656 22.4911 99.0492 21.7751 97.8689 20.6036V29H94V7.2929ZM106.164 14.7456C106.164 12.3698 104.262 10.4822 101.902 10.4822C99.541 10.4822 97.6066 12.3698 97.6066 14.7456C97.6066 17.1213 99.541 19.0089 101.902 19.0089C104.262 18.9763 106.164 17.0888 106.164 14.7456Z" fill="white"/>
<path d="M112 14.5C112 10.3403 115.23 7 119.516 7C123.739 7 127 10.3088 127 14.5C127 18.6912 123.739 22 119.516 22C115.23 21.9685 112 18.6597 112 14.5ZM123.46 14.5C123.46 12.2311 121.689 10.4664 119.516 10.4664C117.248 10.4664 115.478 12.2311 115.478 14.5C115.478 16.7689 117.248 18.5651 119.516 18.5651C121.689 18.5336 123.46 16.7374 123.46 14.5Z" fill="white"/>
<path d="M129 19.8836L131.074 17.3258C132.08 18.3679 133.4 18.9994 134.531 18.9994C135.663 18.9994 136.354 18.3995 136.354 17.61C136.354 16.5995 135.191 16.3469 133.463 15.7469C131.231 14.9575 129.346 13.947 129.346 11.4208C129.346 8.48414 131.86 7 134.626 7C136.7 7 138.46 7.82101 139.56 9.05253L137.391 11.263C136.574 10.4419 135.474 9.87355 134.5 9.87355C133.589 9.87355 132.991 10.3472 132.991 11.1051C132.991 12.084 134.029 12.3682 135.694 12.905C137.831 13.6313 140 14.6102 140 17.4837C140 20.4204 137.737 21.9993 134.626 21.9993C132.174 22.0309 130.163 21.0204 129 19.8836Z" fill="white"/>
<path d="M141 19.8836L143.074 17.3258C144.08 18.3679 145.4 18.9994 146.531 18.9994C147.663 18.9994 148.354 18.3995 148.354 17.61C148.354 16.5995 147.191 16.3469 145.463 15.7469C143.231 14.9575 141.346 13.947 141.346 11.4208C141.346 8.48414 143.86 7 146.626 7C148.7 7 150.46 7.82101 151.56 9.05253L149.391 11.263C148.574 10.4419 147.474 9.87355 146.5 9.87355C145.589 9.87355 144.991 10.3472 144.991 11.1051C144.991 12.084 146.029 12.3682 147.694 12.905C149.831 13.6313 152 14.6102 152 17.4837C152 20.4204 149.737 21.9993 146.626 21.9993C144.174 22.0309 142.163 21.0204 141 19.8836Z" fill="white"/>
<path d="M155 3.21959C155 1.97923 155.928 1 157 1C158.101 1 159 1.97923 159 3.21959C159 4.45995 158.101 5.43917 157 5.43917C155.899 5.43917 155 4.45995 155 3.21959ZM155.319 8.08309H158.681V23H155.319V8.08309Z" fill="white"/>
<path d="M166.667 20.7585L166.57 22.6751H163V0H166.83V9.51836C167.966 8.15395 169.751 7.47175 171.568 7.47175C175.722 7.47175 179 10.9153 179 15.2359C179 19.5565 175.722 23 171.568 23C169.523 22.9675 167.771 22.1554 166.667 20.7585ZM175.17 15.2359C175.17 12.7994 173.32 10.9153 170.919 10.9153C168.55 10.9153 166.667 12.7994 166.667 15.2359C166.667 17.6723 168.55 19.589 170.919 19.589C173.32 19.589 175.17 17.6723 175.17 15.2359Z" fill="white"/>
<path d="M181 0H185V22H181V0Z" fill="white"/>
<path d="M202.968 15.1618H191.624C191.908 17.4937 193.578 19.0063 195.689 19.0063C197.202 19.0063 198.62 18.25 199.376 16.9265L202.338 18.1555C201.172 20.5189 198.746 22 195.721 22C191.151 22 188 18.6912 188 14.5C188 10.3088 191.214 7 195.595 7C199.754 7 202.937 9.93067 203 14.3424L202.968 15.1618ZM192.002 12.3571H199.061C198.462 10.9076 197.328 9.9937 195.626 9.9937C193.861 9.96218 192.632 10.876 192.002 12.3571Z" fill="white"/>
<path d="M62 28H76V31.7192H65.7977V37.1404H74.8414V40.8596H65.7977V50H62V28Z" fill="white"/>
<path d="M78 31.2196C78 29.9792 78.9275 29 80 29C81.1015 29 82 29.9792 82 31.2196C82 32.4599 81.1015 33.4392 80 33.4392C78.8985 33.4392 78 32.4599 78 31.2196ZM78.3188 36.0831H81.6812V51H78.3188V36.0831Z" fill="white"/>
<path d="M86.0322 36.2891H89.797V37.6381C90.8589 36.5782 92.2426 36 93.7228 36C96.6832 36 99 38.409 99 41.4925V51H95.203V41.9743C95.203 40.4325 94.0446 39.3405 92.5322 39.3405C90.9554 39.3405 89.797 40.4647 89.7649 41.9743V51H86V36.2891H86.0322Z" fill="white"/>
<path d="M102 43.5157C102 39.3648 105.343 36 109.335 36C111.444 36 113.067 36.7547 114.17 37.9811V36.3459H118V50.717H114.43L114.333 48.8616C113.229 50.2138 111.542 51 109.335 51C105.31 51 102 47.6981 102 43.5157ZM114.268 43.5157C114.268 41.2201 112.418 39.3962 110.049 39.3962C107.68 39.3962 105.797 41.2201 105.797 43.5157C105.797 45.8113 107.647 47.6667 110.049 47.6667C112.418 47.6352 114.268 45.7799 114.268 43.5157Z" fill="white"/>
<path d="M121.032 36.2891H124.797V37.6381C125.859 36.5782 127.243 36 128.723 36C131.683 36 134 38.409 134 41.4925V51H130.203V41.9743C130.203 40.4325 129.045 39.3405 127.532 39.3405C125.955 39.3405 124.797 40.4647 124.765 41.9743V51H121V36.2891H121.032Z" fill="white"/>
<path d="M136 43.5C136 39.3403 139.375 36 143.853 36C144.956 36 146.059 36.2206 147 36.6303V40.7584C146.254 39.9076 145.15 39.3718 143.853 39.3718C141.451 39.3718 139.667 41.1996 139.667 43.5C139.667 45.8004 141.419 47.5966 143.853 47.5966C145.15 47.5966 146.254 47.0609 147 46.2101V50.3697C146.059 50.7794 144.956 51 143.853 51C139.375 50.9685 136 47.6597 136 43.5Z" fill="white"/>
<path d="M163.968 44.1618H152.624C152.908 46.4937 154.578 48.0063 156.689 48.0063C158.202 48.0063 159.62 47.25 160.376 45.9265L163.338 47.1555C162.172 49.5189 159.746 51 156.721 51C152.151 51 149 47.6912 149 43.5C149 39.3088 152.214 36 156.595 36C160.754 36 163.937 38.9307 164 43.3424L163.968 44.1618ZM152.971 41.3571H160.029C159.431 39.9076 158.296 38.9937 156.595 38.9937C154.861 38.9622 153.601 39.876 152.971 41.3571Z" fill="white"/>
</svg>
