<svg width="141" height="82" viewBox="0 0 141 82" fill="none" xmlns="http://www.w3.org/2000/svg">
    <path d="M101.491 30.8053C100.902 24.6181 98.5002 18.7502 94.5942 13.9547C95.1127 13.3798 95.3998 12.6292 95.3988 11.8507C95.3956 11.2418 95.2186 10.6468 94.889 10.1375C94.5593 9.62817 94.0912 9.22628 93.5411 8.98026C92.9909 8.73423 92.3822 8.65459 91.7884 8.75094C91.1945 8.84728 90.6409 9.11549 90.1942 9.52324C85.4588 5.56946 79.6648 3.13807 73.5552 2.54094C73.4146 1.82467 73.0331 1.17993 72.4755 0.716589C71.918 0.253251 71.219 0 70.4977 0C69.7764 0 69.0775 0.253251 68.5199 0.716589C67.9624 1.17993 67.5809 1.82467 67.4403 2.54094C61.3307 3.13807 55.5367 5.56946 50.8013 9.52324C50.2102 8.97461 49.4328 8.67809 48.6311 8.69549C47.8294 8.71288 47.0653 9.04285 46.498 9.61661C45.9307 10.1904 45.604 10.9637 45.586 11.7753C45.568 12.5869 45.86 13.3743 46.4013 13.9733C42.4952 18.7689 40.0937 24.6367 39.5048 30.8239C38.9023 30.9461 38.3489 31.2459 37.9142 31.6855C37.4795 32.1252 37.1828 32.6851 37.0614 33.2949C36.94 33.9048 36.9994 34.5373 37.232 35.1131C37.4646 35.6889 37.8601 36.1823 38.3688 36.5312C38.8775 36.8801 39.4767 37.0691 40.0911 37.0743C40.7056 37.0795 41.3078 36.9007 41.8222 36.5605C42.3366 36.2202 42.7402 35.7336 42.9823 35.1619C43.2244 34.5901 43.2942 33.9586 43.1829 33.3468L51.684 29.4274C51.9841 29.8107 52.3682 30.1179 52.806 30.3246C53.2437 30.5313 53.723 30.6319 54.2059 30.6183C54.6887 30.6048 55.1618 30.4775 55.5876 30.2465C56.0134 30.0156 56.3801 29.6873 56.6587 29.2878L67.3943 33.5237C67.2963 34.2888 67.4797 35.0636 67.9096 35.7005C68.3394 36.3375 68.9857 36.792 69.7253 36.9776V46.6411C68.9689 46.8289 68.3065 47.2907 67.8635 47.9392C67.4204 48.5878 67.2273 49.3781 67.3207 50.161C67.4141 50.9439 67.7875 51.665 68.3704 52.1881C68.9532 52.7112 69.7051 53 70.4839 53C71.2628 53 72.0147 52.7112 72.5975 52.1881C73.1804 51.665 73.5538 50.9439 73.6472 50.161C73.7405 49.3781 73.5475 48.5878 73.1044 47.9392C72.6614 47.2907 71.999 46.8289 71.2426 46.6411V36.959C71.9822 36.7734 72.6285 36.3188 73.0583 35.6819C73.4882 35.0449 73.6716 34.2701 73.5736 33.5051L84.6034 29.1575C84.9027 29.4862 85.2679 29.7464 85.6746 29.9207C86.0813 30.0949 86.5201 30.1791 86.9616 30.1676C87.403 30.1562 87.837 30.0493 88.2343 29.8542C88.6317 29.6591 88.9832 29.3803 89.2655 29.0364L97.831 33.2258C97.7052 33.8373 97.7615 34.4728 97.9928 35.0519C98.224 35.6309 98.6197 36.1275 99.1299 36.4787C99.64 36.83 100.242 37.02 100.859 37.0249C101.475 37.0298 102.08 36.8492 102.595 36.506C103.111 36.1629 103.514 35.6726 103.754 35.0973C103.994 34.5219 104.06 33.8874 103.944 33.274C103.828 32.6606 103.534 32.0959 103.101 31.6515C102.667 31.2071 102.113 30.9029 101.509 30.7774L101.491 30.8053ZM92.2953 10.2215C92.6138 10.2205 92.9254 10.3153 93.1906 10.4938C93.4559 10.6722 93.6628 10.9264 93.7853 11.224C93.9078 11.5216 93.9403 11.8493 93.8788 12.1656C93.8172 12.482 93.6643 12.7727 93.4394 13.001C93.2146 13.2293 92.9279 13.385 92.6156 13.4482C92.3033 13.5115 91.9795 13.4795 91.6852 13.3563C91.3909 13.2331 91.1393 13.0243 90.9623 12.7563C90.7853 12.4883 90.6908 12.1731 90.6908 11.8507C90.6908 11.4194 90.8597 11.0057 91.1605 10.7003C91.4612 10.3949 91.8694 10.2227 92.2953 10.2215ZM89.3666 10.7801C89.1703 11.3123 89.1256 11.8898 89.2379 12.4465L80.2862 16.0633L72.861 5.2268C73.1477 4.8889 73.365 4.49642 73.5 4.07239C79.3322 4.65264 84.8587 6.98902 89.3666 10.7801ZM69.4403 6.11588C69.569 6.16708 69.684 6.19501 69.7575 6.21828V17.6832C69.0595 17.8835 68.4498 18.3186 68.0288 18.9168L62.3782 16.5893L69.4403 6.11588ZM70.6173 19.0936C70.9485 19.0946 71.2719 19.195 71.5468 19.3821C71.8216 19.5693 72.0353 19.8348 72.161 20.145C72.2867 20.4552 72.3187 20.7962 72.2528 21.1248C72.187 21.4535 72.0263 21.7549 71.7911 21.991C71.556 22.2272 71.2569 22.3873 70.9318 22.4513C70.6067 22.5152 70.2702 22.4801 69.9648 22.3503C69.6594 22.2205 69.399 22.0018 69.2164 21.7221C69.0338 21.4423 68.9373 21.114 68.9391 20.7787C68.9428 20.3305 69.1212 19.9019 69.4355 19.5863C69.7498 19.2707 70.1746 19.0936 70.6173 19.0936ZM71.2747 17.632V6.21828C71.3943 6.18415 71.5092 6.14691 71.6196 6.10657L78.8425 16.6452L73.2104 18.9168C72.7486 18.2563 72.0571 17.7973 71.2747 17.632ZM70.5161 1.53083C70.8335 1.53083 71.1437 1.62611 71.4076 1.80462C71.6715 1.98313 71.8771 2.23685 71.9986 2.53369C72.12 2.83054 72.1518 3.15718 72.0899 3.47232C72.028 3.78745 71.8752 4.07691 71.6507 4.30411C71.4263 4.53131 71.1404 4.68603 70.8292 4.74872C70.5179 4.8114 70.1953 4.77923 69.9021 4.65627C69.6089 4.53331 69.3583 4.32509 69.182 4.05793C69.0056 3.79078 68.9115 3.47669 68.9115 3.15538C68.9128 2.7249 69.0822 2.31241 69.3829 2.00801C69.6835 1.70361 70.0909 1.53206 70.5161 1.53083ZM67.5322 4.07239C67.668 4.50744 67.8902 4.90979 68.1851 5.25473L60.9392 16.0121L51.822 12.2882C51.8755 11.7834 51.8238 11.2727 51.6702 10.7894C56.1749 6.99434 61.7003 4.65453 67.5322 4.07239ZM48.7369 10.2215C49.0554 10.2205 49.3669 10.3153 49.6322 10.4938C49.8974 10.6722 50.1044 10.9264 50.2269 11.224C50.3494 11.5216 50.3819 11.8493 50.3203 12.1656C50.2588 12.482 50.1059 12.7727 49.881 13.001C49.6561 13.2293 49.3694 13.385 49.0571 13.4482C48.7449 13.5115 48.4211 13.4795 48.1268 13.3563C47.8325 13.2331 47.5809 13.0243 47.4038 12.7563C47.2268 12.4883 47.1323 12.1731 47.1323 11.8507C47.1323 11.4194 47.3012 11.0057 47.602 10.7003C47.9028 10.3949 48.3109 10.2227 48.7369 10.2215ZM40.1484 35.5253C39.8313 35.5244 39.5215 35.4283 39.2582 35.2493C38.995 35.0702 38.79 34.8162 38.6693 34.5192C38.5485 34.2223 38.5174 33.8958 38.5798 33.581C38.6423 33.2662 38.7955 32.9771 39.02 32.7504C39.2446 32.5237 39.5306 32.3694 39.8417 32.3071C40.1528 32.2448 40.4752 32.2772 40.7681 32.4003C41.0611 32.5234 41.3114 32.7316 41.4875 32.9987C41.6636 33.2658 41.7576 33.5797 41.7576 33.9008C41.7576 34.1145 41.716 34.3261 41.6351 34.5235C41.5541 34.7209 41.4355 34.9002 41.286 35.0511C41.1365 35.2021 40.9591 35.3216 40.7639 35.403C40.5687 35.4844 40.3595 35.5259 40.1484 35.5253ZM51.0358 27.4445C51.0354 27.6352 51.0539 27.8254 51.0909 28.0124L42.5898 31.9504C42.1935 31.4541 41.6607 31.088 41.0588 30.8984C41.6242 24.9861 43.9325 19.3827 47.684 14.8158C48.3172 15.0456 49.0068 15.0618 49.6498 14.8621C50.2928 14.6625 50.8548 14.2576 51.2518 13.708L60.0656 17.3062L55.2334 24.5026C54.8865 24.3778 54.5212 24.3133 54.153 24.3117C53.3306 24.3129 52.5419 24.6426 51.9582 25.2292C51.3745 25.8158 51.043 26.6119 51.0358 27.4445ZM54.153 29.069C53.8336 29.0736 53.52 28.9819 53.2523 28.8055C52.9846 28.6291 52.7747 28.376 52.6496 28.0785C52.5244 27.781 52.4895 27.4524 52.5493 27.1348C52.6091 26.8171 52.761 26.5246 52.9856 26.2946C53.2102 26.0646 53.4973 25.9075 53.8103 25.8432C54.1234 25.779 54.4483 25.8105 54.7436 25.9339C55.0389 26.0572 55.2913 26.2667 55.4686 26.5357C55.6459 26.8047 55.7401 27.1211 55.7392 27.4445C55.738 27.8717 55.5711 28.2815 55.2744 28.5853C54.9777 28.8892 54.575 29.0629 54.153 29.069ZM56.6587 25.5965C56.5944 25.508 56.53 25.4289 56.461 25.3498L61.4863 17.902L67.4633 20.3132C67.4178 20.614 67.4178 20.9201 67.4633 21.2209L56.6587 25.5965ZM67.9598 32.0761L57.2242 27.8401C57.2633 27.5685 57.2633 27.2925 57.2242 27.0209L68.0104 22.6639C68.4337 23.2588 69.0427 23.6917 69.7391 23.8928V30.8425C69.0238 31.0238 68.3979 31.4622 67.9782 32.0761H67.9598ZM72.1713 49.7645C72.1713 50.0997 72.0731 50.4272 71.8893 50.7059C71.7054 50.9845 71.444 51.2017 71.1382 51.3299C70.8324 51.4582 70.4959 51.4917 70.1712 51.4264C69.8466 51.361 69.5484 51.1996 69.3144 50.9626C69.0803 50.7257 68.9209 50.4238 68.8563 50.0951C68.7918 49.7664 68.8249 49.4257 68.9516 49.1161C69.0782 48.8065 69.2927 48.5419 69.568 48.3557C69.8432 48.1695 70.1667 48.0702 70.4977 48.0702C70.7181 48.0683 70.9367 48.1105 71.141 48.1941C71.3453 48.2778 71.5313 48.4014 71.6884 48.5579C71.8455 48.7144 71.9707 48.9007 72.0567 49.1061C72.1427 49.3115 72.1879 49.5321 72.1897 49.7552L72.1713 49.7645ZM70.4977 35.5346C70.1804 35.5346 69.8702 35.4393 69.6063 35.2608C69.3424 35.0823 69.1367 34.8286 69.0153 34.5318C68.8938 34.2349 68.8621 33.9083 68.924 33.5931C68.9859 33.278 69.1387 32.9885 69.3631 32.7613C69.5875 32.5341 69.8734 32.3794 70.1847 32.3167C70.496 32.2541 70.8186 32.2862 71.1118 32.4092C71.405 32.5321 71.6556 32.7404 71.8319 33.0075C72.0082 33.2747 72.1023 33.5888 72.1023 33.9101C72.0999 34.3361 71.9324 34.7441 71.6357 35.0463C71.339 35.3484 70.9369 35.5204 70.5161 35.5253L70.4977 35.5346ZM73.0403 32.0854C72.6161 31.4656 71.9809 31.0263 71.2564 30.8518V23.944C72.0422 23.784 72.7398 23.3303 73.2104 22.6732L83.785 26.9976C83.783 27.2728 83.8186 27.5469 83.8908 27.8122L73.0403 32.0854ZM73.7667 21.2442C73.8107 20.9355 73.8107 20.6219 73.7667 20.3132L79.7437 17.9067L84.5299 24.9681C84.3849 25.1379 84.2571 25.3219 84.1483 25.5174L73.7667 21.2442ZM86.8839 28.6315C86.5663 28.6324 86.2556 28.5379 85.9912 28.3599C85.7267 28.182 85.5203 27.9286 85.3982 27.6318C85.276 27.3351 85.2436 27.0083 85.305 26.6928C85.3664 26.3774 85.5188 26.0875 85.743 25.8598C85.9673 25.6322 86.2532 25.477 86.5645 25.4139C86.8759 25.3509 87.1988 25.3828 87.4923 25.5056C87.7857 25.6284 88.0366 25.8366 88.2131 26.1039C88.3896 26.3711 88.4839 26.6854 88.4839 27.0069C88.4851 27.2206 88.4446 27.4325 88.3648 27.6304C88.285 27.8283 88.1674 28.0082 88.0188 28.16C87.8702 28.3118 87.6934 28.4324 87.4986 28.5149C87.3039 28.5974 87.095 28.6402 86.8839 28.6408V28.6315ZM98.4976 31.8899L89.9321 27.7005C90.0289 27.2411 90.0229 26.7657 89.9145 26.309C89.8061 25.8523 89.5981 25.426 89.3058 25.0613C89.0135 24.6966 88.6443 24.4028 88.2252 24.2014C87.8061 24 87.3478 23.8962 86.8839 23.8975C86.505 23.9022 86.1299 23.9747 85.7758 24.1116L81.1782 17.3946L89.8862 13.8755C90.2928 14.3833 90.8455 14.7503 91.4676 14.9255C92.0897 15.1007 92.7502 15.0754 93.3574 14.8531C97.0935 19.4073 99.3991 24.9886 99.9781 30.8798C99.3994 31.059 98.885 31.4052 98.4976 31.8759V31.8899ZM100.884 35.5393C100.566 35.5393 100.256 35.444 99.9924 35.2655C99.7285 35.087 99.5228 34.8333 99.4014 34.5364C99.2799 34.2396 99.2481 33.9129 99.3101 33.5978C99.372 33.2827 99.5248 32.9932 99.7492 32.766C99.9736 32.5388 100.26 32.3841 100.571 32.3214C100.882 32.2587 101.205 32.2909 101.498 32.4138C101.791 32.5368 102.042 32.745 102.218 33.0122C102.394 33.2793 102.488 33.5934 102.488 33.9147C102.484 34.3428 102.313 34.7517 102.012 35.0531C101.712 35.3545 101.307 35.5241 100.884 35.5253V35.5393Z"
          fill="url(#paint)"/>
    <path d="M11 67V77.0128C11 78.6401 10.5328 79.8781 9.59827 80.7269C8.64795 81.5788 7.29849 82 5.48812 82C3.67776 82 2.33305 81.5788 1.39698 80.7269C0.460908 79.8749 0 78.6401 0 77.0128V67H1.90065V76.917C1.86734 77.3825 1.93179 77.8499 2.0898 78.2886C2.24782 78.7273 2.49584 79.1276 2.81771 79.4633C3.59894 80.03 4.53729 80.3349 5.5 80.3349C6.46271 80.3349 7.40106 80.03 8.18229 79.4633C8.50184 79.1262 8.74803 78.7256 8.90512 78.2871C9.06221 77.8487 9.12675 77.382 9.0946 76.917V67H11Z"
          fill="white"/>
    <path d="M30.0681 67H33V82H31.2179V74.5024C31.2179 73.9652 31.2301 71.9365 31.2546 68.4165C30.8606 69.6701 30.4452 70.945 30.0085 72.241L29.2755 74.5024L26.8246 82H25.2029L22.6833 74.5024C22.665 74.426 22.642 74.351 22.6145 74.2778C22.5687 74.1459 22.4863 73.9016 22.3671 73.5402L22.0098 72.4754L21.3959 70.6144C21.1073 69.7401 20.8737 69.0173 20.7042 68.436C20.7256 70.2139 20.7378 72.2426 20.7408 74.522V82H19V67H21.9319L24.1309 73.6135C24.9647 76.0655 25.5984 78.0795 26.0321 79.6555C26.3772 78.3758 26.9987 76.3618 27.8966 73.6135L30.0681 67Z"
          fill="white"/>
    <path d="M50.2814 74.079C51.0664 74.2974 51.7658 74.7705 52.2797 75.4307C52.7699 76.11 53.0226 76.9456 52.9954 77.7974C53.0225 78.3701 52.9291 78.942 52.7219 79.4724C52.5147 80.0029 52.1987 80.479 51.7964 80.8667C50.9095 81.6521 49.7718 82.055 48.6131 81.994H42V67.0082H48.311C49.4013 66.941 50.4783 67.2873 51.3456 67.9842C51.9611 68.6052 52.3518 69.4315 52.451 70.3217C52.5502 71.2118 52.3517 72.1105 51.8894 72.864C51.4908 73.439 50.9273 73.8648 50.2814 74.079ZM43.8868 68.5698V73.3617H47.9485C48.6697 73.4072 49.3823 73.1786 49.9561 72.7176C50.1996 72.4942 50.3915 72.2155 50.5171 71.9027C50.6427 71.5898 50.6988 71.2511 50.6811 70.912C50.7003 70.5843 50.646 70.2563 50.5225 69.9546C50.399 69.6529 50.2098 69.3858 49.9701 69.1749C49.3822 68.7358 48.6685 68.5221 47.9485 68.5698H43.8868ZM43.8868 80.4325H48.0414C48.8743 80.4939 49.7001 80.2355 50.3651 79.7054C50.6228 79.4441 50.8278 79.131 50.9679 78.7848C51.1079 78.4385 51.1801 78.0662 51.1801 77.69C51.1801 77.3138 51.1079 76.9415 50.9679 76.5953C50.8278 76.249 50.6228 75.9359 50.3651 75.6747C49.7068 75.1288 48.8781 74.8608 48.0414 74.9232H43.8821L43.8868 80.4325Z"
          fill="white"/>
    <path d="M72 82H69.9289L66.1456 75.9841H62.841V82H61V67.0042H66.9511C68.155 66.9522 69.3327 67.3868 70.2464 68.22C70.6733 68.6302 71.0098 69.1351 71.2317 69.6989C71.4537 70.2627 71.5557 70.8715 71.5305 71.4819C71.581 72.5322 71.2604 73.5647 70.6314 74.3775C70.0023 75.1903 69.1102 75.7248 68.1293 75.8767L72 82ZM62.841 68.6302V74.358H66.6427C67.4516 74.4083 68.2495 74.1405 68.8841 73.606C69.1586 73.3377 69.3734 73.0078 69.5127 72.6404C69.652 72.273 69.7124 71.8772 69.6895 71.4819C69.7118 71.088 69.6502 70.6937 69.5091 70.3285C69.3681 69.9633 69.1513 69.6366 68.8749 69.3724C68.2342 68.844 67.4344 68.5803 66.6243 68.6302H62.841Z"
          fill="white"/>
    <path d="M79 67H88.8129V68.6265L79 68.7144V67ZM80.9185 73.467H88.2662V75.0935H80.9281V80.3735H89V82H79V73.4523L80.9185 73.467Z"
          fill="white"/>
    <path d="M98.9685 67V80.354H106V82H97V67H98.9685Z" fill="white"/>
    <path d="M114.967 67V80.354H122V82H113V67H114.967Z" fill="white"/>
    <path d="M137.168 76.5099L136.492 74.5562C135.578 71.9512 134.896 69.916 134.446 68.4507C134.131 69.4927 133.852 70.3865 133.609 71.1322L133.198 72.3679C133.037 72.8564 132.929 73.1885 132.872 73.3448L132.442 74.5903L131.771 76.5441L131.218 78.1755L129.89 82H128L133.255 67H135.726L141 82H139.063L137.716 78.1755L137.168 76.5099Z"
          fill="white"/>
    <defs>
        <linearGradient id="paint" x1="59.8725" y1="49.071" x2="85.9313" y2="4.48166"
                        gradientUnits="userSpaceOnUse">
            <stop stop-color="#0655A3"/>
            <stop offset="0.26" stop-color="#0759A6"/>
            <stop offset="0.53" stop-color="#0A66AF"/>
            <stop offset="0.81" stop-color="#0F7ABF"/>
            <stop offset="1" stop-color="#148DCD"/>
        </linearGradient>
    </defs>
</svg>
