<svg width="198" height="44" viewBox="0 0 198 44" fill="none" xmlns="http://www.w3.org/2000/svg">
<path fill-rule="evenodd" clip-rule="evenodd" d="M17.5 2.56C17.1375 2.56 16.8426 2.63938 16.6793 2.72887L7.05812 8L16.6793 13.2711C16.8426 13.3606 17.1375 13.44 17.5 13.44C17.8625 13.44 18.1574 13.3606 18.3207 13.2711L27.9419 8L18.3207 2.72887C18.1574 2.63938 17.8625 2.56 17.5 2.56ZM17.5 0C18.149 0 18.8655 0.132027 19.4739 0.465348L29.7635 6.10268C30.3458 6.42174 31 7.04598 31 8C31 8.95402 30.3458 9.57826 29.7635 9.89732L19.4739 15.5347C18.8655 15.868 18.149 16 17.5 16C16.851 16 16.1345 15.868 15.5261 15.5347L5.23653 9.89732C4.65417 9.57826 4 8.95402 4 8C4 7.04598 4.65417 6.42174 5.23653 6.10268L15.5261 0.465348C16.1345 0.132027 16.851 0 17.5 0Z" fill="white"/>
<path fill-rule="evenodd" clip-rule="evenodd" d="M17.5 16.56C17.1375 16.56 16.8426 16.6394 16.6793 16.7289L7.05812 22L16.6793 27.2711C16.8426 27.3606 17.1375 27.44 17.5 27.44C17.8625 27.44 18.1574 27.3606 18.3207 27.2711L27.9419 22L18.3207 16.7289C18.1574 16.6394 17.8625 16.56 17.5 16.56ZM17.5 14C18.149 14 18.8655 14.132 19.4739 14.4653L29.7635 20.1027C30.3458 20.4217 31 21.046 31 22C31 22.954 30.3458 23.5783 29.7635 23.8973L19.4739 29.5347C18.8655 29.868 18.149 30 17.5 30C16.851 30 16.1345 29.868 15.5261 29.5347L5.23653 23.8973C4.65417 23.5783 4 22.954 4 22C4 21.046 4.65417 20.4217 5.23653 20.1027L15.5261 14.4653C16.1345 14.132 16.851 14 17.5 14Z" fill="white"/>
<path fill-rule="evenodd" clip-rule="evenodd" d="M5.14407 36.6411C5.46445 36.0538 6.21576 35.8293 6.82218 36.1395L17.1743 41.4361C17.3386 41.5202 17.6353 41.5947 18 41.5947C18.3647 41.5947 18.6614 41.5202 18.8257 41.4361L29.1778 36.1395C29.7842 35.8293 30.5356 36.0538 30.8559 36.6411C31.1763 37.2284 30.9444 37.9559 30.338 38.2662L19.9859 43.5628C19.3738 43.876 18.653 44 18 44C17.347 44 16.6262 43.876 16.0141 43.5628L5.66198 38.2662C5.05556 37.9559 4.82369 37.2284 5.14407 36.6411Z" fill="white"/>
<path fill-rule="evenodd" clip-rule="evenodd" d="M31.1515 4.28395C31.1023 4.2538 31.0518 4.22288 31 4.19113L32.3104 2C32.4051 2.05808 32.501 2.11618 32.5974 2.17464C33.4496 2.69126 34.3491 3.23658 34.9713 4.05404C35.7306 5.05145 36 6.29661 36 8H33.47C33.47 6.53924 33.2318 5.96501 32.9674 5.61766C32.6515 5.20274 32.1784 4.91295 31.1515 4.28395Z" fill="white"/>
<path fill-rule="evenodd" clip-rule="evenodd" d="M4.8485 39.716C4.89771 39.7462 4.9482 39.7771 5 39.8089L3.68961 42C3.59486 41.9419 3.49903 41.8838 3.4026 41.8254C2.55044 41.3087 1.65094 40.7634 1.02866 39.946C0.269372 38.9485 4.76837e-07 37.7034 4.76837e-07 36H2.53005C2.53005 37.4608 2.76819 38.035 3.03261 38.3823C3.34846 38.7973 3.82158 39.087 4.8485 39.716Z" fill="white"/>
<path fill-rule="evenodd" clip-rule="evenodd" d="M5 7C5.55228 7 6 7.56555 6 8.26319V35.7368C6 36.4345 5.55228 37 5 37C4.44772 37 4 36.4345 4 35.7368V8.26319C4 7.56555 4.44772 7 5 7Z" fill="white"/>
<path fill-rule="evenodd" clip-rule="evenodd" d="M30 7C30.5523 7 31 7.56555 31 8.26319V35.7368C31 36.4345 30.5523 37 30 37C29.4477 37 29 36.4345 29 35.7368V8.26319C29 7.56555 29.4477 7 30 7Z" fill="white"/>
<path fill-rule="evenodd" clip-rule="evenodd" d="M19 14V29H17V14H19Z" fill="white"/>
<path d="M56.9782 36.6814V17.2918H62.3289V13.7416H56.9782V11.1928C56.9782 8.31013 58.2328 6.86881 60.7418 6.86881C61.4674 6.86881 62.2382 6.99018 63.0544 7.23293V3.45515C62.0568 3.15172 60.9534 3 59.7443 3C57.4166 3 55.6103 3.66756 54.3256 5.00268C53.0408 6.3378 52.3984 8.27979 52.3984 10.8286V13.7416H48V17.2918H52.3984V36.6814H56.9782ZM75.7963 37C77.5496 37 79.0837 36.6359 80.3987 35.9076C81.7137 35.1794 82.7037 34.1325 83.3688 32.7671V36.6814H87.9033V13.7416H83.3688V17.4739C82.6735 16.1084 81.6759 15.054 80.3761 14.3106C79.0762 13.5672 77.5496 13.1954 75.7963 13.1954C73.8313 13.1954 72.078 13.6961 70.5363 14.6975C68.9946 15.6988 67.7929 17.1098 66.9314 18.9304C66.0698 20.751 65.6391 22.8447 65.6391 25.2115C65.6391 27.5783 66.0623 29.6493 66.9087 31.4244C67.7551 33.1995 68.9417 34.5725 70.4683 35.5435C71.9949 36.5145 73.7709 37 75.7963 37ZM76.8845 33.3588C74.7987 33.3588 73.1738 32.6457 72.01 31.2195C70.8461 29.7934 70.2642 27.7907 70.2642 25.2115C70.2642 22.602 70.8461 20.5614 72.01 19.0897C73.1738 17.618 74.7836 16.8822 76.8392 16.8822C78.925 16.8822 80.5348 17.5953 81.6684 19.0214C82.802 20.4476 83.3688 22.4806 83.3688 25.1205C83.3688 27.73 82.802 29.7555 81.6684 31.1968C80.5348 32.6381 78.9401 33.3588 76.8845 33.3588ZM99.1487 36.6814V23.6185C99.1487 21.5855 99.7307 19.9621 100.895 18.7483C102.058 17.5346 103.608 16.9277 105.542 16.9277C107.235 16.9277 108.467 17.3829 109.238 18.2932C110.009 19.2035 110.394 20.66 110.394 22.6627V36.6814H114.974V22.3896C114.974 16.2602 112.238 13.1954 106.767 13.1954C105.013 13.1954 103.449 13.5823 102.073 14.3561C100.698 15.1299 99.6475 16.245 98.922 17.7015L98.5139 13.7416H94.2515C94.4934 15.6533 94.6143 17.8077 94.6143 20.2048V36.6814H99.1487ZM130.3 37C131.57 37 132.704 36.8331 133.701 36.4993V32.7671C132.885 33.0098 132.084 33.1312 131.298 33.1312C130.089 33.1312 129.144 32.805 128.464 32.1526C127.784 31.5002 127.444 30.3851 127.444 28.8072V17.2918H133.747V13.7416H127.444V6.41365L122.864 8.00669V13.7416H118.42V17.2918H122.864V29.1714C122.864 31.7202 123.514 33.6622 124.814 34.9973C126.114 36.3324 127.943 37 130.3 37ZM147.804 37C150.01 37 151.96 36.5145 153.653 35.5435C155.346 34.5725 156.653 33.1919 157.575 31.4016C158.497 29.6113 158.958 27.5176 158.958 25.1205C158.958 22.7233 158.497 20.622 157.575 18.8166C156.653 17.0112 155.346 15.6229 153.653 14.6519C151.96 13.6809 150.01 13.1954 147.804 13.1954C145.567 13.1954 143.602 13.6809 141.909 14.6519C140.216 15.6229 138.908 17.0112 137.986 18.8166C137.064 20.622 136.603 22.7233 136.603 25.1205C136.603 27.5176 137.064 29.6113 137.986 31.4016C138.908 33.1919 140.216 34.5725 141.909 35.5435C143.602 36.5145 145.567 37 147.804 37ZM147.758 33.3588C145.672 33.3588 144.063 32.6609 142.929 31.2651C141.795 29.8693 141.229 27.8211 141.229 25.1205C141.229 22.4806 141.803 20.4476 142.952 19.0214C144.1 17.5953 145.718 16.8822 147.804 16.8822C149.859 16.8822 151.454 17.5953 152.587 19.0214C153.721 20.4476 154.288 22.4806 154.288 25.1205C154.288 27.8211 153.729 29.8693 152.61 31.2651C151.492 32.6609 149.874 33.3588 147.758 33.3588ZM168.843 36.6814V23.7095C168.843 21.6158 169.357 19.9621 170.385 18.7483C171.413 17.5346 172.804 16.9277 174.557 16.9277C176.068 16.9277 177.164 17.3829 177.844 18.2932C178.524 19.2035 178.865 20.6448 178.865 22.6171V36.6814H183.444V23.7095C183.444 21.6158 183.951 19.9621 184.963 18.7483C185.976 17.5346 187.359 16.9277 189.112 16.9277C190.624 16.9277 191.72 17.3829 192.4 18.2932C193.08 19.2035 193.42 20.6448 193.42 22.6171V36.6814H198V22.3896C198 16.2602 195.461 13.1954 190.382 13.1954C188.689 13.1954 187.17 13.5899 185.825 14.3788C184.48 15.1678 183.46 16.245 182.764 17.6104C181.676 14.6671 179.363 13.1954 175.826 13.1954C174.164 13.1954 172.713 13.5747 171.473 14.3333C170.234 15.0919 169.282 16.1691 168.617 17.5649L168.209 13.7416H163.946C164.188 15.6533 164.309 17.8077 164.309 20.2048V36.6814H168.843Z" fill="white"/>
</svg>
