<svg width="233" height="50" viewBox="0 0 233 50" fill="none" xmlns="http://www.w3.org/2000/svg">
<path d="M79.4676 38.6144C79.4676 39.1667 79.0199 39.6144 78.4676 39.6144H75.609C75.0567 39.6144 74.609 39.1667 74.609 38.6144V28.1401C74.609 27.5878 74.1613 27.1401 73.609 27.1401H63.0576C62.5053 27.1401 62.0576 27.5878 62.0576 28.1401V38.6144C62.0576 39.1667 61.6099 39.6144 61.0576 39.6144H58.1797C57.6274 39.6144 57.1797 39.1667 57.1797 38.6144V12.5424C57.1797 11.9901 57.6274 11.5424 58.1797 11.5424H61.0576C61.6099 11.5424 62.0576 11.9901 62.0576 12.5424V22.2262C62.0576 22.7785 62.5053 23.2262 63.0576 23.2262H73.609C74.1613 23.2262 74.609 22.7785 74.609 22.2262V12.5424C74.609 11.9901 75.0567 11.5424 75.609 11.5424H78.4676C79.0199 11.5424 79.4676 11.9901 79.4676 12.5424V38.6144Z" fill="white"/>
<path d="M97.5207 39.054C97.4904 38.5186 96.7876 38.2669 96.3583 38.5881C95.1002 39.5294 93.506 40 91.5756 40C89.3134 40 87.5974 39.338 86.4278 38.0141C85.2709 36.6902 84.6925 34.7751 84.6925 32.2686V19.7532C84.6925 19.2009 85.1403 18.7532 85.6925 18.7532H88.3776C88.9299 18.7532 89.3776 19.2009 89.3776 19.7532V32.2108C89.3776 34.8586 90.4766 36.1825 92.6745 36.1825C94.8521 36.1825 96.3526 35.4348 97.176 33.9393C97.2493 33.8061 97.2825 33.6549 97.2825 33.5029V19.7532C97.2825 19.2009 97.7302 18.7532 98.2825 18.7532H100.968C101.52 18.7532 101.968 19.2009 101.968 19.7532V38.6144C101.968 39.1667 101.52 39.6144 100.968 39.6144H98.1137C97.7987 39.6144 97.5385 39.3685 97.5207 39.054Z" fill="white"/>
<path d="M105.862 28.991C105.862 26.9473 106.267 25.1093 107.077 23.4769C107.887 21.8316 109.024 20.572 110.489 19.6979C111.955 18.8111 113.639 18.3676 115.541 18.3676C118.356 18.3676 120.637 19.2738 122.385 21.0861C124.146 22.8985 125.097 25.3021 125.239 28.2969L125.258 29.3959C125.258 31.4524 124.86 33.2905 124.063 34.91C123.279 36.5296 122.148 37.7828 120.669 38.6697C119.204 39.5566 117.507 40 115.579 40C112.636 40 110.277 39.0231 108.504 37.0694C106.743 35.1028 105.862 32.4871 105.862 29.2224V28.991ZM110.547 29.3959C110.547 31.5424 110.991 33.2262 111.878 34.4473C112.765 35.6555 113.998 36.2596 115.579 36.2596C117.16 36.2596 118.388 35.6427 119.262 34.4087C120.149 33.1748 120.592 31.3689 120.592 28.991C120.592 26.883 120.136 25.2121 119.223 23.9781C118.324 22.7442 117.096 22.1272 115.541 22.1272C114.011 22.1272 112.797 22.7378 111.897 23.9589C110.997 25.1671 110.547 26.9794 110.547 29.3959Z" fill="white"/>
<path d="M147.527 29.3959C147.527 32.635 146.801 35.2121 145.348 37.1272C143.908 39.0424 141.923 40 139.39 40C137.579 40 136.064 39.5154 134.847 38.5463C134.376 38.1717 133.575 38.4178 133.514 39.0162C133.479 39.356 133.192 39.6144 132.851 39.6144H130.211C129.658 39.6144 129.211 39.1667 129.211 38.6144V11C129.211 10.4477 129.658 10 130.211 10H132.896C133.448 10 133.896 10.4477 133.896 11V18.0299C133.896 18.9613 135.186 19.491 136.023 19.0809C136.992 18.6054 138.102 18.3676 139.352 18.3676C141.897 18.3676 143.896 19.3123 145.348 21.2018C146.801 23.0913 147.527 25.7326 147.527 29.126V29.3959ZM142.842 28.991C142.842 26.7288 142.443 25.0321 141.646 23.901C140.849 22.7699 139.693 22.2044 138.176 22.2044C136.222 22.2044 134.828 23.025 133.992 24.6664C133.926 24.7959 133.896 24.9403 133.896 25.0856V33.2446C133.896 33.3892 133.926 33.5328 133.991 33.6618C134.839 35.3423 136.246 36.1825 138.214 36.1825C139.68 36.1825 140.811 35.6362 141.608 34.5437C142.405 33.4512 142.816 31.7995 142.842 29.5887V28.991Z" fill="white"/>
<path d="M156.453 38.6144C156.453 39.1667 156.006 39.6144 155.453 39.6144H152.768C152.216 39.6144 151.768 39.1667 151.768 38.6144V19.7532C151.768 19.2009 152.216 18.7532 152.768 18.7532H155.453C156.006 18.7532 156.453 19.2009 156.453 19.7532V38.6144ZM151.479 13.3355C151.479 12.6157 151.704 12.018 152.154 11.5424C152.617 11.0668 153.272 10.829 154.121 10.829C154.969 10.829 155.624 11.0668 156.087 11.5424C156.55 12.018 156.781 12.6157 156.781 13.3355C156.781 14.0424 156.55 14.6337 156.087 15.1093C155.624 15.572 154.969 15.8033 154.121 15.8033C153.272 15.8033 152.617 15.572 152.154 15.1093C151.704 14.6337 151.479 14.0424 151.479 13.3355Z" fill="white"/>
<path d="M188.266 26.0823C188.266 26.6345 187.818 27.0823 187.266 27.0823H177.736C177.184 27.0823 176.736 27.53 176.736 28.0823V34.7198C176.736 35.2721 177.184 35.7198 177.736 35.7198H189.213C189.765 35.7198 190.213 36.1675 190.213 36.7198V38.6144C190.213 39.1667 189.765 39.6144 189.213 39.6144H172.858C172.306 39.6144 171.858 39.1667 171.858 38.6144V12.5424C171.858 11.9901 172.306 11.5424 172.858 11.5424H189.078C189.63 11.5424 190.078 11.9901 190.078 12.5424V14.4756C190.078 15.0279 189.63 15.4756 189.078 15.4756H177.736C177.184 15.4756 176.736 15.9233 176.736 16.4756V22.2262C176.736 22.7785 177.184 23.2262 177.736 23.2262H187.266C187.818 23.2262 188.266 23.6739 188.266 24.2262V26.0823Z" fill="white"/>
<path d="M201.916 36.2596C203.086 36.2596 204.056 35.919 204.827 35.2378C205.346 34.7795 205.702 34.2485 205.895 33.6448C206.057 33.1378 206.479 32.7121 207.011 32.7121H209.436C210.004 32.7121 210.466 33.1872 210.358 33.7447C210.181 34.6597 209.816 35.5301 209.262 36.356C208.504 37.4743 207.475 38.3612 206.177 39.0167C204.879 39.6722 203.478 40 201.974 40C199.056 40 196.743 39.0553 195.033 37.1658C193.324 35.2764 192.469 32.6671 192.469 29.338V28.856C192.469 25.6812 193.317 23.1427 195.014 21.2404C196.711 19.3252 199.024 18.3676 201.955 18.3676C204.435 18.3676 206.453 19.0938 208.009 20.5463C209.341 21.7695 210.135 23.3222 210.391 25.2044C210.467 25.7644 210.008 26.2339 209.443 26.2339H207.019C206.484 26.2339 206.057 25.8073 205.935 25.2857C205.753 24.508 205.384 23.8408 204.827 23.2841C204.069 22.5129 203.099 22.1272 201.916 22.1272C200.399 22.1272 199.23 22.6799 198.407 23.7853C197.585 24.8779 197.167 26.5424 197.154 28.7789V29.5308C197.154 31.7931 197.559 33.4833 198.369 34.6015C199.191 35.7069 200.374 36.2596 201.916 36.2596Z" fill="white"/>
<path d="M213.137 28.991C213.137 26.9473 213.542 25.1093 214.352 23.4769C215.162 21.8316 216.299 20.572 217.765 19.6979C219.23 18.8111 220.914 18.3676 222.816 18.3676C225.631 18.3676 227.912 19.2738 229.66 21.0861C231.421 22.8985 232.372 25.3021 232.514 28.2969L232.533 29.3959C232.533 31.4524 232.135 33.2905 231.338 34.91C230.554 36.5296 229.423 37.7828 227.944 38.6697C226.479 39.5566 224.783 40 222.854 40C219.911 40 217.552 39.0231 215.779 37.0694C214.018 35.1028 213.137 32.4871 213.137 29.2224V28.991ZM217.822 29.3959C217.822 31.5424 218.266 33.2262 219.153 34.4473C220.04 35.6555 221.274 36.2596 222.854 36.2596C224.435 36.2596 225.663 35.6427 226.537 34.4087C227.424 33.1748 227.867 31.3689 227.867 28.991C227.867 26.883 227.411 25.2121 226.498 23.9781C225.599 22.7442 224.371 22.1272 222.816 22.1272C221.286 22.1272 220.072 22.7378 219.172 23.9589C218.272 25.1671 217.822 26.9794 217.822 29.3959Z" fill="white"/>
<path d="M21.2674 15.3832C21.2674 8.21626 17.8126 2.04169 15.1664 0.0202519C15.1664 0.0202519 14.9826 -0.0900083 14.9826 0.204019C14.7621 14.06 7.74218 17.8456 3.84632 22.8809C-5.08475 34.5684 3.22152 47.3586 11.6748 49.7108C16.416 51.034 10.5722 47.3586 9.83713 39.6404C8.95505 30.2683 21.2674 23.1381 21.2674 15.3832Z" fill="white"/>
<path d="M25.8985 20.1247C25.8617 20.088 25.7882 20.088 25.7147 20.1247C25.7147 20.1247 25.7147 20.1247 25.6779 20.1615C25.5309 21.8889 23.6198 25.6377 21.2308 29.0558C13.1083 40.6699 17.7392 46.2564 20.3487 49.2702C21.8556 51.0343 20.3487 49.2702 24.1343 47.4693C24.4283 47.3223 31.485 43.5734 32.2568 35.0834C33.0286 26.8139 27.7729 21.6316 25.8985 20.1247Z" fill="#059BDC"/>
</svg>
