<svg width="72" height="72" viewBox="0 0 72 72" fill="none" xmlns="http://www.w3.org/2000/svg">
<circle cx="36" cy="36" r="34.5" fill="white" stroke="black" stroke-width="3"/>
<path d="M24.8369 36.4805C25.719 34.6712 26.1684 33.7109 26.457 33.3139C27.3213 32.1254 28.6507 34.6944 30.08 34.6944H43.2511C49.026 34.6944 52.9167 40.6183 50.017 45.8242C47.3359 50.6378 42.3998 53 37.0601 53H26.4622C21.488 53 18.3845 47.9808 20.8821 43.4967L24.8369 36.4805Z" fill="black"/>
<path fill-rule="evenodd" clip-rule="evenodd" d="M36.8848 18C35.0596 18 33.3706 19.0643 32.4451 20.7977L27.7585 29.5747C24.8491 35.9014 25.6922 34.0653 29.2384 32.426H40.2136C43.9354 32.426 47.3794 30.2558 49.2667 26.7212C51.3265 22.8636 48.8022 18 44.7401 18H36.8848Z" fill="black"/>
<path d="M36 38.5C36 33.8056 39.5817 30 44 30C48.4183 30 52 33.8056 52 38.5C52 43.1944 48.4183 47 44 47C39.5817 47 36 43.1944 36 38.5Z" fill="white"/>
<path fill-rule="evenodd" clip-rule="evenodd" d="M36.9791 34.422C36.3549 35.6326 36 37.0223 36 38.5C36 43.1944 39.5817 47 44 47C46.1944 47 48.1825 46.0612 49.6278 44.5411H40.75C38.7973 44.5411 37.2143 42.8799 37.2143 40.8308C37.2143 38.7816 38.7973 37.1204 40.75 37.1204H43.6429C44.3529 37.1204 44.9286 36.5164 44.9286 35.7712C44.9286 35.0261 44.3529 34.422 43.6429 34.422H36.9791ZM38.4305 32.3982H43.6429C45.4181 32.3982 46.8571 33.9084 46.8571 35.7712C46.8571 37.6341 45.4181 39.1443 43.6429 39.1443H40.75C39.8624 39.1443 39.1429 39.8993 39.1429 40.8308C39.1429 41.7622 39.8624 42.5173 40.75 42.5173H51.0519C51.6568 41.321 52 39.9531 52 38.5C52 33.8056 48.4183 30 44 30C41.8349 30 39.8708 30.9138 38.4305 32.3982Z" fill="black"/>
<path d="M39 32.5161H44.0109C45.7079 32.5161 47.0836 34.0807 47.0836 36.0108C47.0836 37.9408 45.7079 39.5054 44.0109 39.5054H41.2454C40.3969 39.5054 39.709 40.2877 39.709 41.2527C39.709 42.2177 40.3969 43 41.2454 43H51.0789C51.6664 41.7532 52 40.3247 52 38.8065C52 33.9428 48.576 30 44.3523 30C42.2685 30 40.3794 30.9597 39 32.5161Z" fill="black"/>
<path d="M49 44.3846L51 43C51 43 50.6216 43.7692 49.7928 45C49.5405 45 49 45 49 45V44.3846Z" fill="white"/>
<path d="M27.0038 32H41V34H26L27.0038 32Z" fill="white"/>
</svg>
