<svg width="80" height="80" viewBox="0 0 80 80" fill="none" xmlns="http://www.w3.org/2000/svg">
<circle cx="40" cy="40" r="38.5" fill="white" stroke="black" stroke-width="3"/>
<path fill-rule="evenodd" clip-rule="evenodd" d="M49.5 52.1303C52.6095 52.1303 55.1303 49.6095 55.1303 46.5C55.1303 43.3905 52.6095 40.8697 49.5 40.8697C46.3905 40.8697 43.8697 43.3905 43.8697 46.5C43.8697 49.6095 46.3905 52.1303 49.5 52.1303ZM57 46.5C57 50.6422 53.6422 54 49.5 54C45.3578 54 42 50.6422 42 46.5C42 42.3578 45.3578 39 49.5 39C53.6422 39 57 42.3578 57 46.5Z" fill="black"/>
<path fill-rule="evenodd" clip-rule="evenodd" d="M44.7582 49.5405C45.1336 50.0022 45.0643 50.6811 44.6035 51.0572C40.6923 54.2492 36.6191 56.4767 33.0182 57.4498C29.4682 58.4093 26.0779 58.2137 23.9324 56.0641C21.5504 53.6776 21.5654 49.7622 22.9217 45.7337C23.1117 45.1696 23.7222 44.8665 24.2852 45.0568C24.8483 45.2471 25.1508 45.8588 24.9609 46.423C23.6735 50.2464 23.9795 53.0621 25.4541 54.5395C26.7783 55.8663 29.1744 56.2556 32.4578 55.3681C35.6903 54.4945 39.4975 52.4434 43.2444 49.3855C43.7052 49.0095 44.3829 49.0788 44.7582 49.5405Z" fill="black"/>
<path fill-rule="evenodd" clip-rule="evenodd" d="M37.2218 29.6157C36.8601 29.1428 36.9502 28.4661 37.4229 28.1044C41.1815 25.2282 45.0427 23.248 48.4506 22.426C51.8178 21.6138 55.0117 21.8822 57.0646 23.9359C59.4503 26.3224 59.4353 30.2379 58.0768 34.2662C57.8866 34.8304 57.2751 35.1335 56.7112 34.9431C56.1472 34.7528 55.8443 34.1412 56.0346 33.5771C57.3239 29.7535 57.0174 26.9379 55.5405 25.4605C54.2744 24.1939 52.0328 23.7799 48.9558 24.5221C45.9196 25.2544 42.3279 27.0656 38.7325 29.8169C38.2598 30.1787 37.5834 30.0886 37.2218 29.6157Z" fill="black"/>
<path fill-rule="evenodd" clip-rule="evenodd" d="M41 33.5C41 37.6421 37.6421 41 33.5 41C29.3579 41 26 37.6421 26 33.5C26 29.3579 29.3579 26 33.5 26C37.6421 26 41 29.3579 41 33.5ZM32.7498 29.7495H34.2498V32.7492H37.2487V34.2492H34.2498V37.2495H32.7498V34.2492H29.7486V32.7492H32.7498V29.7495Z" fill="black"/>
<path d="M52 46V45H47V46H52Z" fill="black"/>
</svg>
