<svg width="172" height="40" viewBox="0 0 172 40" fill="none" xmlns="http://www.w3.org/2000/svg">
<path fill-rule="evenodd" clip-rule="evenodd" d="M48.2519 5.38477C47.3922 5.38477 46.6953 6.07356 46.6953 6.92323V30.0002C46.6953 30.8498 47.3922 31.5386 48.2519 31.5386H98.0618C98.9218 31.5386 99.6184 30.8498 99.6184 30.0002V6.92323C99.6184 6.07356 98.9218 5.38477 98.0618 5.38477H48.2519ZM56.3763 22.141L54.0006 27.6951H51.4585L60.1552 8.25584L68.8519 27.6951H66.3098L63.9215 22.141H56.3763ZM63.0246 20.0252H57.2929L60.1552 13.3603L63.0246 20.0252ZM78.8904 27.6951V20.2897C78.8904 19.6197 78.7924 19.0642 78.5963 18.6235C78.4001 18.165 78.1059 17.8212 77.7133 17.592C77.3209 17.3628 76.8392 17.2482 76.2683 17.2482C75.6439 17.2482 75.091 17.3804 74.6093 17.6448C74.1454 17.8917 73.7797 18.2444 73.5121 18.7028C73.2624 19.1612 73.1375 19.6902 73.1375 20.2897V27.6951H70.9968V15.5291H73.1375V17.4333C73.5479 16.6928 74.0562 16.1462 74.6628 15.7935C75.2872 15.4409 76.0008 15.2645 76.8036 15.2645C77.6776 15.2645 78.4266 15.4585 79.0515 15.8464C79.6757 16.2343 80.1575 16.7809 80.496 17.4862C80.8533 18.1915 81.0315 19.0378 81.0315 20.0252V27.6951H78.8904ZM83.1827 15.5291V17.5126H85.1898V27.6951H87.3301V17.5126H89.3373V15.5291H87.3301V11.2974H85.1898V15.5291H83.1827ZM91.9126 11.5354C91.627 11.2357 91.4846 10.8918 91.4846 10.5039C91.4846 10.0984 91.627 9.75461 91.9126 9.47246C92.2154 9.19038 92.5633 9.0493 92.9563 9.0493C93.3665 9.0493 93.7143 9.19038 93.9992 9.47246C94.2848 9.75461 94.428 10.0984 94.428 10.5039C94.428 10.8918 94.2848 11.2357 93.9992 11.5354C93.7143 11.8175 93.3665 11.9585 92.9563 11.9585C92.5633 11.9585 92.2154 11.8175 91.9126 11.5354ZM91.8854 27.6951V15.5291H94.0264V27.6951H91.8854Z" fill="white"/>
<path d="M121.147 19.497C121.147 18.4919 120.987 17.6368 120.666 16.9316C120.362 16.2086 119.916 15.662 119.328 15.2918C118.739 14.9215 118.026 14.7363 117.187 14.7363C116.366 14.7363 115.635 14.9303 114.993 15.3183C114.351 15.6885 113.815 16.2527 113.387 17.0109C113.209 16.5172 112.941 16.1029 112.585 15.7679C112.245 15.4328 111.844 15.1772 111.38 15.0009C110.916 14.8246 110.399 14.7363 109.828 14.7363C109.328 14.7363 108.865 14.8157 108.437 14.9744C108.008 15.1155 107.625 15.3359 107.286 15.6356C106.965 15.9353 106.679 16.3144 106.43 16.7729V15.0009H104.289V27.1669H106.43V19.7615C106.43 19.1267 106.546 18.5801 106.778 18.1217C107.01 17.6633 107.34 17.3195 107.768 17.0903C108.196 16.8434 108.704 16.7199 109.293 16.7199C109.828 16.7199 110.265 16.8346 110.604 17.0638C110.961 17.2754 111.22 17.6016 111.38 18.0423C111.559 18.4832 111.648 19.0562 111.648 19.7615V27.1669H113.789V19.7615C113.789 19.1267 113.905 18.5801 114.137 18.1217C114.369 17.6633 114.699 17.3195 115.127 17.0903C115.555 16.8434 116.063 16.7199 116.652 16.7199C117.187 16.7199 117.624 16.8346 117.963 17.0638C118.32 17.2754 118.578 17.6016 118.739 18.0423C118.918 18.4832 119.006 19.0562 119.006 19.7615V27.1669H121.147V19.497Z" fill="white"/>
<path d="M126.132 23.4113C126.132 22.9705 126.24 22.5914 126.454 22.274C126.668 21.9566 126.989 21.7098 127.417 21.5335C127.863 21.3572 128.434 21.269 129.13 21.269C129.879 21.269 130.583 21.366 131.243 21.5599C131.903 21.7362 132.546 22.036 133.17 22.4592V21.2161C133.045 21.0574 132.805 20.8546 132.448 20.6078C132.091 20.3433 131.609 20.1141 131.003 19.9202C130.414 19.7086 129.674 19.6028 128.782 19.6028C127.783 19.6028 126.918 19.7703 126.186 20.1053C125.472 20.4226 124.92 20.8722 124.527 21.4542C124.152 22.036 123.965 22.7236 123.965 23.5171C123.965 24.3458 124.162 25.0511 124.554 25.6329C124.946 26.2148 125.464 26.6644 126.106 26.9818C126.766 27.2815 127.47 27.4314 128.22 27.4314C128.898 27.4314 129.575 27.3079 130.253 27.0611C130.949 26.8142 131.529 26.4352 131.993 25.9239C132.475 25.4125 132.715 24.7689 132.715 23.9932L132.287 22.4063C132.287 23.041 132.127 23.6052 131.805 24.0989C131.503 24.575 131.083 24.9453 130.548 25.2098C130.031 25.4742 129.442 25.6065 128.782 25.6065C128.265 25.6065 127.801 25.5271 127.39 25.3684C126.998 25.1921 126.686 24.9365 126.454 24.6015C126.24 24.2664 126.132 23.8697 126.132 23.4113ZM125.812 17.8043C126.008 17.6633 126.276 17.4958 126.614 17.3018C126.953 17.1079 127.364 16.9403 127.845 16.7993C128.345 16.6582 128.898 16.5877 129.505 16.5877C129.879 16.5877 130.235 16.623 130.575 16.6935C130.913 16.764 131.208 16.8786 131.457 17.0373C131.725 17.196 131.931 17.4164 132.073 17.6986C132.216 17.963 132.287 18.3069 132.287 18.73V27.1669H134.428V18.4391C134.428 17.6456 134.223 16.9756 133.812 16.429C133.42 15.8824 132.858 15.4681 132.127 15.1859C131.413 14.8863 130.575 14.7363 129.611 14.7363C128.47 14.7363 127.488 14.9039 126.668 15.2389C125.865 15.5739 125.232 15.9089 124.768 16.2439L125.812 17.8043Z" fill="white"/>
<path d="M136.18 15.0007V16.9843H142.334V15.0007H136.18ZM138.187 10.769V27.1667H140.327V10.769H138.187Z" fill="white"/>
<path d="M142.609 15.0007V16.9843H148.764V15.0007H142.609ZM144.617 10.769V27.1667H146.757V10.769H144.617Z" fill="white"/>
<path d="M155.674 27.4314C156.994 27.4314 158.136 27.1757 159.098 26.6644C160.08 26.1354 160.891 25.3596 161.534 24.3369L159.794 23.2526C159.348 23.9932 158.804 24.5486 158.162 24.9188C157.52 25.2715 156.78 25.4478 155.941 25.4478C155.103 25.4478 154.389 25.2715 153.801 24.9188C153.211 24.5662 152.765 24.0549 152.463 23.3849C152.159 22.7148 152.007 21.9038 152.007 20.9516C152.007 20.264 152.097 19.6469 152.275 19.1003C152.453 18.5537 152.712 18.0953 153.051 17.725C153.39 17.3547 153.801 17.0726 154.282 16.8786C154.781 16.6847 155.335 16.5877 155.941 16.5877C156.637 16.5877 157.244 16.7376 157.76 17.0373C158.278 17.3371 158.68 17.7514 158.965 18.2804C159.268 18.8093 159.42 19.4353 159.42 20.1582C159.42 20.2816 159.393 20.4403 159.34 20.6343C159.286 20.8106 159.232 20.9428 159.179 21.0309L160.035 19.8144H151.205V21.6129H161.721C161.721 21.5776 161.721 21.4983 161.721 21.3748C161.739 21.2337 161.748 21.1015 161.748 20.9781C161.748 19.6909 161.516 18.5801 161.052 17.6456C160.588 16.7112 159.919 15.997 159.045 15.5033C158.188 14.992 157.154 14.7363 155.941 14.7363C155.031 14.7363 154.201 14.895 153.453 15.2124C152.703 15.5122 152.061 15.9442 151.526 16.5084C150.991 17.0549 150.571 17.7162 150.268 18.4919C149.983 19.2678 149.84 20.1317 149.84 21.0839C149.84 22.3357 150.081 23.4377 150.562 24.3899C151.062 25.342 151.749 26.0913 152.623 26.6379C153.515 27.1669 154.532 27.4314 155.674 27.4314Z" fill="white"/>
<path d="M166.821 15.0009H164.68V27.1669H166.821V15.0009ZM170.54 17.3283L171.718 15.5827C171.396 15.2477 171.04 15.0273 170.648 14.9215C170.272 14.7981 169.862 14.7363 169.416 14.7363C168.845 14.7363 168.283 14.9568 167.731 15.3976C167.177 15.8383 166.723 16.4379 166.365 17.196C166.027 17.9366 165.857 18.7917 165.857 19.7615H166.821C166.821 19.1796 166.874 18.6595 166.981 18.201C167.106 17.7426 167.32 17.3812 167.623 17.1167C167.927 16.8522 168.346 16.7199 168.881 16.7199C169.238 16.7199 169.532 16.7729 169.764 16.8786C169.996 16.9668 170.255 17.1167 170.54 17.3283Z" fill="white"/>
<path fill-rule="evenodd" clip-rule="evenodd" d="M25.8649 29.6823C28.4536 29.6823 30.5521 27.6082 30.5521 25.0496C30.5521 22.491 28.4536 20.4169 25.8649 20.4169C23.2762 20.4169 21.1777 22.491 21.1777 25.0496C21.1777 27.6082 23.2762 29.6823 25.8649 29.6823ZM32.1087 25.0496C32.1087 28.4579 29.3133 31.2208 25.8649 31.2208C22.4165 31.2208 19.6211 28.4579 19.6211 25.0496C19.6211 21.6413 22.4165 18.8784 25.8649 18.8784C29.3133 18.8784 32.1087 21.6413 32.1087 25.0496Z" fill="white"/>
<path fill-rule="evenodd" clip-rule="evenodd" d="M22.0219 28.2413C22.333 28.6189 22.2756 29.1741 21.8936 29.4816C18.6514 32.092 15.2749 33.9135 12.2899 34.7093C9.34712 35.4939 6.53668 35.334 4.75812 33.5761C2.78358 31.6245 2.79594 28.4226 3.92033 25.1283C4.0778 24.667 4.58385 24.4192 5.05062 24.5748C5.51741 24.7304 5.76815 25.2306 5.61068 25.692C4.54348 28.8186 4.7972 31.1212 6.01956 32.3293C7.11731 33.4143 9.10352 33.7326 11.8253 33.007C14.5049 32.2925 17.661 30.6153 20.767 28.1146C21.149 27.8071 21.7108 27.8638 22.0219 28.2413Z" fill="white"/>
<path fill-rule="evenodd" clip-rule="evenodd" d="M15.7969 10.9798C15.4975 10.593 15.5721 10.0397 15.9633 9.74388C19.0742 7.39187 22.27 5.77256 25.0907 5.10032C27.8777 4.43612 30.5212 4.65565 32.2204 6.33507C34.1949 8.28664 34.1826 11.4886 33.0582 14.7828C32.9007 15.2442 32.3946 15.492 31.9279 15.3363C31.4611 15.1807 31.2104 14.6806 31.3678 14.2193C32.435 11.0925 32.1813 8.78995 30.9589 7.58184C29.911 6.54606 28.0556 6.20745 25.5089 6.81439C22.9959 7.4133 20.0231 8.89441 17.0472 11.1443C16.656 11.4402 16.0962 11.3665 15.7969 10.9798Z" fill="white"/>
<path fill-rule="evenodd" clip-rule="evenodd" d="M18.7297 14.471C18.7297 17.8792 15.9343 20.6421 12.486 20.6421C9.03765 20.6421 6.24219 17.8792 6.24219 14.471C6.24219 11.0627 9.03765 8.2998 12.486 8.2998C15.9343 8.2998 18.7297 11.0627 18.7297 14.471ZM11.8614 11.385H13.1102V13.8532H15.6067V15.0874H13.1102V17.5561H11.8614V15.0874H9.36289V13.8532H11.8614V11.385Z" fill="white"/>
<path d="M28.0977 25.579V24.3447H23.6378V25.579H28.0977Z" fill="white"/>
</svg>
