<svg width="119" height="139" viewBox="0 0 119 139" fill="none" xmlns="http://www.w3.org/2000/svg">
<path d="M28 72L100 0.5L114.687 4.59926L117.249 17.2415L117.917 32.5013V36.6782L117.249 44.5308L114.91 59.3451L111.123 74.1036L102.825 94.4871C99.9473 99.0168 93.68 108.822 91.6305 111.808C89.0687 115.539 76.2594 127.847 73.1963 130.13C70.1332 132.414 63.0234 135.589 60.5221 136.589C58.5211 137.39 50.9871 137.802 47.4702 137.908C43.923 136.968 34.9913 134.625 27.6421 132.769C20.293 130.914 15.6362 127.206 14.2264 125.584C12.6195 123.916 8.6418 119.308 5.58573 114.214C2.52967 109.121 1.25522 104.949 1 103.5L1.5 100L28 72Z" fill="white"/>
<path d="M15.1952 104.828L1.77536e-10 100.803C1.44399 105.683 5.80193 117.102 11.6818 123.734C19.0316 132.026 30.0983 133.837 34.0639 133.891C23.872 125.823 16.6318 110.991 15.1952 104.828Z" fill="#F8D448"/>
<path fill-rule="evenodd" clip-rule="evenodd" d="M49.4846 49.8924C9.38322 90.1078 -0.201715 100.218 0.00319329 102.092C0.556247 107.161 7.61763 119.467 13.187 125.068C18.5076 130.418 19.4595 130.929 30.5962 134.423C46.028 139.263 51.7644 139.759 60.6988 137.033C76.247 132.289 95.1334 112.573 105.192 90.5855C113.452 72.531 117.53 55.9805 118.283 37.4593C118.757 25.8207 117.015 6.03529 115.371 4.38434C114.866 3.87766 101.162 -0.0258543 99.9786 0.000129126C99.5608 0.00912341 76.8388 22.4608 49.4846 49.8924ZM110.052 4.11251L113.922 5.13286L108.598 10.5494C102.623 16.6266 102.309 16.4996 101.319 7.61429L100.668 1.75401L103.425 2.42259C104.942 2.79135 107.924 3.55087 110.052 4.11251ZM100.343 11.5708L100.879 18.4714L15.5434 104.03L9.13852 102.305C5.61629 101.357 2.40838 100.307 2.0095 99.9725C1.61162 99.6388 23.0056 77.6088 49.5512 51.0177C81.7457 18.7682 98.1473 3.00322 98.8118 3.67079C99.3589 4.22044 100.048 7.77618 100.343 11.5708ZM116.686 17.435C119.617 39.6999 114.094 68.9263 102.525 92.3734C88.5843 120.627 69.5228 137.013 50.538 137.064C47.2236 137.073 43.1782 136.561 41.5489 135.927L38.5866 134.773L45.0532 132.587C53.5489 129.714 60.1587 125.351 67.798 117.576C88.079 96.9325 101.02 64.5491 102.41 30.9634L102.927 18.4714L108.493 12.734C111.555 9.57904 114.385 7.33047 114.783 7.73721C115.181 8.14495 116.036 12.5082 116.686 17.435ZM101.706 25.0062C101.706 37.3674 97.9663 58.7997 93.6035 71.4377C82.3942 103.913 59.535 129.8 39.65 132.539C35.7537 133.074 34.6228 132.8 31.7809 130.622C27.4788 127.325 21.7046 118.854 18.6499 111.355L16.2297 105.416L58.218 63.1929C81.311 39.9707 100.544 20.9698 100.956 20.9698C101.369 20.9698 101.706 22.7866 101.706 25.0062ZM8.64814 103.514L14.9714 105.11L17.0961 110.965C19.6505 118.003 25.0388 126.398 29.3936 130.123C33.3754 133.529 31.4566 133.759 23.6214 130.814C16.1611 128.01 9.26386 120.963 4.7509 111.538C1.40174 104.543 0.593052 101.918 1.78271 101.918C2.08112 101.918 5.17066 102.637 8.64814 103.514Z" fill="black"/>
</svg>
