<svg width="81" height="113" viewBox="0 0 81 113" fill="none" xmlns="http://www.w3.org/2000/svg">
<ellipse cx="40.7293" cy="107.808" rx="24.0638" ry="4.76529" fill="#121212"/>
<circle cx="40.7224" cy="40.1116" r="38.1116" fill="white" stroke="#121212" stroke-width="4"/>
<path d="M32.8303 26.8283C33.2783 26.9083 33.6583 27.1443 33.9703 27.5363C34.2823 27.9283 34.4383 28.3723 34.4383 28.8683C34.4383 29.2923 34.3263 29.6763 34.1023 30.0203C33.8863 30.3563 33.5703 30.6243 33.1543 30.8243C32.7383 31.0163 32.2543 31.1123 31.7023 31.1123H28.3663V22.7723H31.5463C32.1143 22.7723 32.6023 22.8683 33.0103 23.0603C33.4183 23.2523 33.7263 23.5123 33.9343 23.8403C34.1423 24.1603 34.2463 24.5203 34.2463 24.9203C34.2463 25.4003 34.1183 25.8003 33.8623 26.1203C33.6063 26.4403 33.2623 26.6763 32.8303 26.8283ZM29.7343 26.2763H31.4263C31.8743 26.2763 32.2223 26.1763 32.4703 25.9763C32.7263 25.7683 32.8543 25.4723 32.8543 25.0883C32.8543 24.7123 32.7263 24.4203 32.4703 24.2123C32.2223 23.9963 31.8743 23.8883 31.4263 23.8883H29.7343V26.2763ZM31.5823 29.9963C32.0463 29.9963 32.4103 29.8843 32.6743 29.6603C32.9383 29.4363 33.0703 29.1243 33.0703 28.7243C33.0703 28.3163 32.9303 27.9923 32.6503 27.7523C32.3703 27.5123 31.9983 27.3923 31.5343 27.3923H29.7343V29.9963H31.5823ZM37.2809 22.7723V28.0883C37.2809 28.7203 37.4449 29.1963 37.7729 29.5163C38.1089 29.8363 38.5729 29.9963 39.1649 29.9963C39.7649 29.9963 40.2289 29.8363 40.5569 29.5163C40.8929 29.1963 41.0609 28.7203 41.0609 28.0883V22.7723H42.4289V28.0643C42.4289 28.7443 42.2809 29.3203 41.9849 29.7923C41.6889 30.2643 41.2929 30.6163 40.7969 30.8483C40.3009 31.0803 39.7529 31.1963 39.1529 31.1963C38.5529 31.1963 38.0049 31.0803 37.5089 30.8483C37.0209 30.6163 36.6329 30.2643 36.3449 29.7923C36.0569 29.3203 35.9129 28.7443 35.9129 28.0643V22.7723H37.2809ZM45.5781 30.0083H48.3981V31.1123H44.2101V22.7723H45.5781V30.0083ZM50.9101 30.0083H53.7301V31.1123H49.5421V22.7723H50.9101V30.0083ZM43.4998 45.1123L42.4678 44.0803C42.0678 44.4803 41.6318 44.7803 41.1598 44.9803C40.6878 45.1723 40.1598 45.2683 39.5758 45.2683C38.9838 45.2683 38.4598 45.1643 38.0038 44.9563C37.5478 44.7483 37.1958 44.4523 36.9478 44.0683C36.6998 43.6763 36.5758 43.2243 36.5758 42.7123C36.5758 42.1363 36.7398 41.6243 37.0678 41.1763C37.3958 40.7203 37.8838 40.3603 38.5318 40.0963C38.2998 39.8163 38.1358 39.5563 38.0398 39.3163C37.9438 39.0683 37.8958 38.7963 37.8958 38.5003C37.8958 38.1323 37.9878 37.8043 38.1718 37.5163C38.3638 37.2283 38.6358 37.0003 38.9878 36.8323C39.3398 36.6643 39.7478 36.5803 40.2118 36.5803C40.6838 36.5803 41.0838 36.6723 41.4118 36.8563C41.7478 37.0323 41.9958 37.2763 42.1558 37.5883C42.3238 37.9003 42.3918 38.2483 42.3598 38.6323H40.9918C40.9998 38.3363 40.9278 38.1083 40.7758 37.9483C40.6238 37.7803 40.4158 37.6963 40.1518 37.6963C39.8878 37.6963 39.6718 37.7763 39.5038 37.9363C39.3438 38.0883 39.2638 38.2763 39.2638 38.5003C39.2638 38.7163 39.3238 38.9323 39.4438 39.1483C39.5718 39.3563 39.7918 39.6283 40.1038 39.9643L42.3118 42.1603L43.1638 40.7563H44.6398L43.5598 42.6043L43.2598 43.0963L45.2878 45.1123H43.4998ZM39.5758 44.1043C40.3278 44.1043 40.9918 43.7963 41.5678 43.1803L39.3598 40.9603C38.4158 41.3363 37.9438 41.9043 37.9438 42.6643C37.9438 43.0723 38.0958 43.4163 38.3998 43.6963C38.7038 43.9683 39.0958 44.1043 39.5758 44.1043ZM31.1838 54.8283C31.6318 54.9083 32.0118 55.1443 32.3238 55.5363C32.6358 55.9283 32.7918 56.3723 32.7918 56.8683C32.7918 57.2923 32.6798 57.6763 32.4558 58.0203C32.2398 58.3563 31.9238 58.6243 31.5078 58.8243C31.0918 59.0163 30.6078 59.1123 30.0558 59.1123H26.7198V50.7723H29.8998C30.4678 50.7723 30.9558 50.8683 31.3638 51.0603C31.7718 51.2523 32.0798 51.5123 32.2878 51.8403C32.4958 52.1603 32.5998 52.5203 32.5998 52.9203C32.5998 53.4003 32.4718 53.8003 32.2158 54.1203C31.9598 54.4403 31.6158 54.6763 31.1838 54.8283ZM28.0878 54.2763H29.7798C30.2278 54.2763 30.5758 54.1763 30.8238 53.9763C31.0798 53.7683 31.2078 53.4723 31.2078 53.0883C31.2078 52.7123 31.0798 52.4203 30.8238 52.2123C30.5758 51.9963 30.2278 51.8883 29.7798 51.8883H28.0878V54.2763ZM29.9358 57.9963C30.3998 57.9963 30.7638 57.8843 31.0278 57.6603C31.2918 57.4363 31.4238 57.1243 31.4238 56.7243C31.4238 56.3163 31.2838 55.9923 31.0038 55.7523C30.7238 55.5123 30.3518 55.3923 29.8878 55.3923H28.0878V57.9963H29.9358ZM35.6464 51.8763V54.3243H38.5264V55.4403H35.6464V57.9963H38.8864V59.1123H34.2784V50.7603H38.8864V51.8763H35.6464ZM45.5994 57.4083H42.1074L41.5074 59.1123H40.0794L43.0674 50.7603H44.6514L47.6394 59.1123H46.1994L45.5994 57.4083ZM45.2154 56.2923L43.8594 52.4163L42.4914 56.2923H45.2154ZM53.2706 59.1123L51.3506 55.7763H50.3066V59.1123H48.9386V50.7723H51.8186C52.4586 50.7723 52.9986 50.8843 53.4386 51.1083C53.8866 51.3323 54.2186 51.6323 54.4346 52.0083C54.6586 52.3843 54.7706 52.8043 54.7706 53.2683C54.7706 53.8123 54.6106 54.3083 54.2906 54.7563C53.9786 55.1963 53.4946 55.4963 52.8386 55.6563L54.9026 59.1123H53.2706ZM50.3066 54.6843H51.8186C52.3306 54.6843 52.7146 54.5563 52.9706 54.3003C53.2346 54.0443 53.3666 53.7003 53.3666 53.2683C53.3666 52.8363 53.2386 52.5003 52.9826 52.2603C52.7266 52.0123 52.3386 51.8883 51.8186 51.8883H50.3066V54.6843Z" fill="#121212"/>
</svg>
