<svg width="330" height="539" viewBox="0 0 330 539" fill="none" xmlns="http://www.w3.org/2000/svg">
<path d="M177 203.633L193.077 213.833M177 203.633L193.077 194L209.718 203.633M177 203.633V269.083L193.077 279M193.077 213.833L209.718 203.633M193.077 213.833V279M209.718 203.633L210 269.083L193.077 279" stroke="white" stroke-width="3"/>
<path d="M177 204L192 213.375V279L177 269.341V204Z" fill="white"/>
<path d="M193 202V162" stroke="white" stroke-width="2" stroke-linecap="round"/>
<path d="M193 300V260" stroke="white" stroke-width="2" stroke-linecap="round"/>
<path d="M2 203.373L24.4103 217.533M2 203.373L24.4103 190L47.6068 203.373M2 203.373V294.233L24.4103 308M24.4103 217.533L47.6068 203.373M24.4103 217.533V308M47.6068 203.373L48 294.233L24.4103 308" stroke="white" stroke-width="3"/>
<path d="M2 204L23 217V308L2 294.606V204Z" fill="#FDFDFD"/>
<path d="M25 202V146" stroke="white" stroke-width="2" stroke-linecap="round"/>
<path d="M25 339V283" stroke="white" stroke-width="2" stroke-linecap="round"/>
<path d="M97 66.1867L122.821 82.2667M97 66.1867L122.821 51L149.547 66.1867M97 66.1867V169.367L122.821 185M122.821 82.2667L149.547 66.1867M122.821 82.2667V185M149.547 66.1867L150 169.367L122.821 185" stroke="white" stroke-width="3"/>
<path d="M97 67L123 81.75V185L97 169.803V67Z" fill="white"/>
<path d="M123 65V1" stroke="white" stroke-width="2" stroke-linecap="round"/>
<path d="M123 220V156" stroke="white" stroke-width="2" stroke-linecap="round"/>
<path d="M259 271.187L284.821 287.267M259 271.187L284.821 256L311.547 271.187M259 271.187V374.367L284.821 390M284.821 287.267L311.547 271.187M284.821 287.267V390M311.547 271.187L312 374.367L284.821 390" stroke="white" stroke-width="3"/>
<path d="M259 272L285 286.75V390L259 374.803V272Z" fill="white"/>
<path d="M285 270V206" stroke="white" stroke-width="2" stroke-linecap="round"/>
<path d="M285 425V361" stroke="white" stroke-width="2" stroke-linecap="round"/>
<path d="M93 384.187L118.821 400.267M93 384.187L118.821 369L145.547 384.187M93 384.187V487.367L118.821 503M118.821 400.267L145.547 384.187M118.821 400.267V503M145.547 384.187L146 487.367L118.821 503" stroke="white" stroke-width="3"/>
<path d="M93 385L117 399.75V503L93 487.803V385Z" fill="white"/>
<path d="M119 383V319" stroke="white" stroke-width="2" stroke-linecap="round"/>
<path d="M119 538V474" stroke="white" stroke-width="2" stroke-linecap="round"/>
<path d="M296 81.18L311.59 90.9M296 81.18L311.59 72L327.726 81.18M296 81.18V143.55L311.59 153M311.59 90.9L327.726 81.18M311.59 90.9V153M327.726 81.18L328 143.55L311.59 153" stroke="white" stroke-width="3"/>
<path d="M296 82L311 90.875V153L296 143.856V82Z" fill="white"/>
<path d="M312 81V42" stroke="white" stroke-width="2" stroke-linecap="round"/>
<path d="M312 174V135" stroke="white" stroke-width="2" stroke-linecap="round"/>
</svg>
