<svg width="80" height="96" viewBox="0 0 80 96" fill="none" xmlns="http://www.w3.org/2000/svg">
<circle cx="40.0269" cy="39.5859" r="37.5859" fill="white" stroke="#121212" stroke-width="4"/>
<path d="M30.5083 35.2459C31.3963 35.2459 32.1723 35.4179 32.8363 35.7619C33.5083 36.0979 34.0243 36.5859 34.3843 37.2259C34.7523 37.8579 34.9363 38.5979 34.9363 39.4459C34.9363 40.2939 34.7523 41.0299 34.3843 41.6539C34.0243 42.2779 33.5083 42.7579 32.8363 43.0939C32.1723 43.4219 31.3963 43.5859 30.5083 43.5859H27.7843V35.2459H30.5083ZM30.5083 42.4699C31.4843 42.4699 32.2323 42.2059 32.7523 41.6779C33.2723 41.1499 33.5323 40.4059 33.5323 39.4459C33.5323 38.4779 33.2723 37.7219 32.7523 37.1779C32.2323 36.6339 31.4843 36.3619 30.5083 36.3619H29.1523V42.4699H30.5083ZM41.3201 41.8819H37.8281L37.2281 43.5859H35.8001L38.7881 35.2339H40.3721L43.3601 43.5859H41.9201L41.3201 41.8819ZM40.9361 40.7659L39.5801 36.8899L38.2121 40.7659H40.9361ZM48.4633 43.6699C47.6873 43.6699 46.9713 43.4899 46.3153 43.1299C45.6673 42.7619 45.1513 42.2539 44.7673 41.6059C44.3913 40.9499 44.2033 40.2139 44.2033 39.3979C44.2033 38.5819 44.3913 37.8499 44.7673 37.2019C45.1513 36.5539 45.6673 36.0499 46.3153 35.6899C46.9713 35.3219 47.6873 35.1379 48.4633 35.1379C49.2473 35.1379 49.9633 35.3219 50.6113 35.6899C51.2673 36.0499 51.7833 36.5539 52.1593 37.2019C52.5353 37.8499 52.7233 38.5819 52.7233 39.3979C52.7233 40.2139 52.5353 40.9499 52.1593 41.6059C51.7833 42.2539 51.2673 42.7619 50.6113 43.1299C49.9633 43.4899 49.2473 43.6699 48.4633 43.6699ZM48.4633 42.4819C49.0153 42.4819 49.5073 42.3579 49.9393 42.1099C50.3713 41.8539 50.7073 41.4939 50.9473 41.0299C51.1953 40.5579 51.3193 40.0139 51.3193 39.3979C51.3193 38.7819 51.1953 38.2419 50.9473 37.7779C50.7073 37.3139 50.3713 36.9579 49.9393 36.7099C49.5073 36.4619 49.0153 36.3379 48.4633 36.3379C47.9113 36.3379 47.4193 36.4619 46.9873 36.7099C46.5553 36.9579 46.2153 37.3139 45.9673 37.7779C45.7273 38.2419 45.6073 38.7819 45.6073 39.3979C45.6073 40.0139 45.7273 40.5579 45.9673 41.0299C46.2153 41.4939 46.5553 41.8539 46.9873 42.1099C47.4193 42.3579 47.9113 42.4819 48.4633 42.4819Z" fill="#121212"/>
<ellipse cx="40.0281" cy="90.7917" rx="24.0638" ry="4.76529" fill="#121212"/>
</svg>
