<svg width="102" height="111" viewBox="0 0 102 111" fill="none" xmlns="http://www.w3.org/2000/svg">
<path d="M97.7383 20.5722L20.4255 19.6582L28.8046 96.1608L84.5775 78.9269L97.7383 20.5722Z" fill="white"/>
<path d="M97.8543 21.2529L41.8752 39.2566L29.1268 96.0717L84.8998 78.8378L97.8543 21.2529Z" fill="#31B047"/>
<path fill-rule="evenodd" clip-rule="evenodd" d="M22.0971 20.2116L42.0697 38.3569L93.7674 21.7255L22.0971 20.2116ZM98.9298 20.0725L98.0982 22.0117L41.6802 40.1565L19.2262 19.7569L19.0759 18.5439L98.9298 20.0725Z" fill="#121212"/>
<path fill-rule="evenodd" clip-rule="evenodd" d="M20.2914 18.5717L42.754 38.9792L29.9042 96.2468L28.0446 97.2511L19.0795 18.562L20.2914 18.5717ZM21.0218 21.3889L29.1207 92.4569L40.9957 39.5352L21.0218 21.3889Z" fill="#121212"/>
<path fill-rule="evenodd" clip-rule="evenodd" d="M98.9363 20.0673L85.5743 79.4631L28.0464 97.2393L41.1956 38.6375L98.9363 20.0673ZM42.5513 39.8759L30.2039 94.9043L84.2218 78.2127L96.769 22.4387L42.5513 39.8759Z" fill="#121212"/>
</svg>
