<svg width="112" height="111" viewBox="0 0 112 111" fill="none" xmlns="http://www.w3.org/2000/svg">
<path d="M51.4312 11.6484L31.6092 0.887939L21.9814 6.55135L21.9814 73.3796L80.3145 107.36L89.9423 101.697L89.376 44.4962L51.4312 23.5416V11.6484Z" fill="white"/>
<path fill-rule="evenodd" clip-rule="evenodd" d="M90.6272 44.1569L90.6272 101.882L80.3236 107.995L79.6894 107.62L79.9298 49.8627L89.9712 43.8076L90.6272 44.1569ZM81.1975 50.6148L80.9794 106.167L89.3747 101.13L89.3747 45.6286L81.1975 50.6148Z" fill="#121212"/>
<path fill-rule="evenodd" clip-rule="evenodd" d="M22.1585 5.79726L42.4216 16.6807L42.1887 28.3948L81.1951 49.8579L80.9545 107.639L80.3057 107.989L21.4839 73.5469L21.5231 6.14408L22.1585 5.79726ZM22.7974 7.58792L22.7595 72.816L79.6942 106.153L79.9121 50.6163L40.9057 29.1533L41.1387 17.4391L22.7974 7.58792Z" fill="#121212"/>
<path fill-rule="evenodd" clip-rule="evenodd" d="M31.6824 0.134172L51.9454 11.0176L51.7125 22.7318L90.7189 44.1948L90.4783 101.976L89.8295 102.326L31.0078 67.8838L31.0469 0.502826L31.6824 0.134172ZM32.3213 1.92484L32.2834 67.153L89.2181 100.49L89.436 44.9532L50.4296 23.4902L50.6625 11.776L32.3213 1.92484Z" fill="#121212"/>
<path fill-rule="evenodd" clip-rule="evenodd" d="M81.1891 50.6262L80.971 106.178L89.3663 101.141L89.3663 45.64L81.1891 50.6262Z" fill="#F8D448"/>
<path fill-rule="evenodd" clip-rule="evenodd" d="M31.7068 0.125L51.9497 11.0143L41.2214 17.3955L21.5254 6.78746V6.10236L31.7068 0.125ZM31.7314 1.42466L23.245 6.41644L41.2214 16.0958L49.7074 11.104L31.7314 1.42466Z" fill="#121212"/>
<path d="M41.7988 28.6385L51.4266 22.9751" stroke="#121212"/>
<path d="M21.9834 73.3792L31.6112 67.7158" stroke="#121212"/>
</svg>
