<svg width="318" height="41" viewBox="0 0 318 41" fill="none" xmlns="http://www.w3.org/2000/svg">
<path fill-rule="evenodd" clip-rule="evenodd" d="M50.444 10.4617V22.1154H38.9592V11.9612C38.9592 11.1331 38.2883 10.4617 37.4607 10.4617H33.5845V38.2321C33.5845 39.0597 34.2551 39.7312 35.0825 39.7312H38.9592V26.8154H50.444V38.2321C50.444 39.0597 51.1145 39.7312 51.9421 39.7312H55.8186V11.9612C55.8186 11.1331 55.1478 10.4617 54.3202 10.4617H50.444Z" fill="black"/>
<path fill-rule="evenodd" clip-rule="evenodd" d="M72.994 17.3615V31.2314C72.994 32.4914 72.352 33.6861 71.2616 34.3165C68.2182 36.0763 65.0688 33.8781 65.0688 30.9797V18.8602C65.0688 18.0326 64.3978 17.3611 63.5708 17.3611H59.6787V31.474C59.6787 36.0149 63.3911 39.7301 67.9285 39.7301H70.1344C74.6718 39.7301 78.3845 36.0149 78.3845 31.474V18.8602C78.3845 18.0326 77.7137 17.3611 76.8861 17.3611L72.994 17.3615Z" fill="black"/>
<path fill-rule="evenodd" clip-rule="evenodd" d="M132.398 39.7307H136.275V20.0892C136.275 19.261 135.604 18.5896 134.776 18.5896H130.9V38.2315C130.9 39.0591 131.57 39.7307 132.398 39.7307Z" fill="#008AC4"/>
<path fill-rule="evenodd" clip-rule="evenodd" d="M133.587 16.4607C135.243 16.4607 136.586 15.1166 136.586 13.4588C136.586 11.8013 135.243 10.4573 133.587 10.4573C131.93 10.4573 130.587 11.8013 130.587 13.4588C130.587 15.1166 131.93 16.4607 133.587 16.4607Z" fill="#008AC4"/>
<path fill-rule="evenodd" clip-rule="evenodd" d="M97.2921 30.4435C97.2921 33.1119 95.11 34.8882 92.4438 34.8882C89.7776 34.8882 87.5956 33.1119 87.5956 30.4435V26.6355C87.5956 23.9673 89.7776 22.1903 92.4438 22.1903C95.11 22.1903 97.2921 23.9673 97.2921 26.6355V30.4435ZM92.4438 17.3484C86.8063 17.3484 82.1938 21.3843 82.1938 27.0256V30.077C82.1938 35.7187 86.8063 39.7307 92.4438 39.7307C98.0813 39.7307 102.694 35.7187 102.694 30.077V27.0256C102.694 21.3843 98.0813 17.3484 92.4438 17.3484Z" fill="black"/>
<path fill-rule="evenodd" clip-rule="evenodd" d="M121.647 30.443C121.647 33.1112 119.466 34.8877 116.799 34.8877C114.133 34.8877 111.951 33.1112 111.951 30.443V26.6348C111.951 23.9666 114.133 22.1903 116.799 22.1903C119.466 22.1903 121.647 23.9666 121.647 26.6348V30.443ZM116.799 17.3477H116.799C115.037 17.3477 113.376 17.7419 111.924 18.4559V11.9349C111.924 11.1068 111.253 10.4358 110.426 10.4358H106.549V30.0765C106.549 35.7185 111.161 39.7301 116.799 39.7301H116.799C122.437 39.7301 127.049 35.7185 127.049 30.0765V27.0249C127.049 21.3836 122.437 17.3477 116.799 17.3477Z" fill="#008AC4"/>
<path fill-rule="evenodd" clip-rule="evenodd" d="M187.464 26.2224H178.36C178.582 24.8642 179.049 23.7807 179.755 22.9956C180.534 22.1265 181.643 21.7048 183.147 21.7048C183.895 21.7048 184.545 21.8391 185.073 22.1034C185.608 22.3709 186.052 22.7282 186.394 23.1666C186.745 23.6167 187.016 24.1538 187.199 24.7627C187.339 25.2274 187.427 25.7171 187.464 26.2224ZM191.907 23.5485C191.521 22.3352 190.917 21.2797 190.146 20.4004C189.369 19.5147 188.396 18.8092 187.25 18.305C186.106 17.8021 184.767 17.5471 183.269 17.5471C181.523 17.5471 179.982 17.8499 178.689 18.4482C177.397 19.0471 176.307 19.8667 175.452 20.8835C174.599 21.898 173.96 23.1057 173.55 24.4733C173.146 25.8202 172.943 27.2884 172.943 28.8368C172.943 30.4122 173.155 31.8829 173.572 33.2075C173.999 34.5564 174.686 35.7413 175.61 36.7294C176.538 37.7212 177.729 38.4977 179.148 39.0396C180.551 39.5763 182.773 39.8965 184.703 39.6416C188.205 39.1789 189.739 37.8483 190.779 36.4445C192.617 33.9609 192.092 33.5326 192.092 33.5326H188.065C187.607 33.5326 186.663 35.417 183.687 35.417C181.647 35.417 180.854 35.0988 179.842 34.1659C178.92 33.3191 178.392 31.9812 178.269 30.182H192.004C192.384 30.182 192.478 29.934 192.494 29.561C192.56 28.009 192.645 25.8681 191.907 23.5485Z" fill="black"/>
<path fill-rule="evenodd" clip-rule="evenodd" d="M216.943 15.6696V12.2804C216.943 11.285 216.16 10.4744 215.197 10.4744H196.405L196.404 10.698C196.404 10.698 196.395 31.8399 196.377 37.9208C196.376 38.4031 196.556 38.8566 196.885 39.1983C197.214 39.541 197.653 39.7297 198.122 39.7297L201.605 39.7195V27.0875H212.417C212.533 27.0875 213.23 27.1013 214.075 27.1281L214.297 27.1359V23.8655C214.297 23.3772 214.111 22.92 213.775 22.5783C213.437 22.2349 213.007 22.0311 212.511 22.0604L201.605 22.0611V15.6696H216.943Z" fill="black"/>
<path fill-rule="evenodd" clip-rule="evenodd" d="M163.745 25.6843C163.745 30.437 159.895 34.2899 155.146 34.2899H152.427V16.1541H155.147C159.895 16.1541 163.745 20.0061 163.745 24.758V25.6843ZM155.144 10.7148H148.529C147.679 10.7148 146.99 11.4041 146.99 12.2546V39.7303H155.143C162.896 39.7303 169.18 33.4399 169.18 25.6806V24.7621C169.18 17.0041 162.896 10.7148 155.144 10.7148Z" fill="black"/>
<path fill-rule="evenodd" clip-rule="evenodd" d="M224.663 18.5896H220.785V38.2311C220.785 39.0591 221.457 39.7307 222.283 39.7307H226.161V20.0887C226.161 19.2607 225.489 18.5896 224.663 18.5896Z" fill="black"/>
<path fill-rule="evenodd" clip-rule="evenodd" d="M223.471 16.4607C225.128 16.4607 226.471 15.1171 226.471 13.4592C226.471 11.8013 225.128 10.4573 223.471 10.4573C221.815 10.4573 220.472 11.8013 220.472 13.4592C220.472 15.1171 221.815 16.4607 223.471 16.4607Z" fill="black"/>
<path fill-rule="evenodd" clip-rule="evenodd" d="M236.101 34.2912V12.18C236.101 11.2687 235.362 10.5303 234.452 10.5303H230.268V38.0802C230.268 38.9891 231.002 39.7268 231.911 39.73H248.72V35.9409C248.72 35.03 247.982 34.2912 247.072 34.2912H236.101Z" fill="black"/>
<path fill-rule="evenodd" clip-rule="evenodd" d="M308.92 15.6612C306.492 15.7063 304.397 16.3164 302.702 17.5062C300.881 18.7857 299.958 20.5154 299.958 22.6466C299.958 24.1303 300.369 25.4184 301.179 26.4738C301.988 27.5276 303.636 28.5393 306.235 29.5716C308.203 30.2957 309.508 30.9164 310.118 31.4162C310.643 31.8484 310.899 32.3811 310.899 33.0436C310.899 34.0596 310.487 35.4951 306.933 35.4099C302.982 35.3153 300.123 33.3512 300.123 33.3512C300.123 33.3512 299.99 33.2742 299.99 33.6911C299.99 34.0207 299.99 37.3229 299.99 38.0607C300.025 38.1714 300.099 38.298 300.271 38.3793C302.059 39.2756 304.171 39.7298 306.552 39.7298C309.31 39.7298 311.6 39.1107 313.359 37.8896C315.183 36.6236 316.108 34.867 316.108 32.6677C316.108 31.0914 315.621 29.742 314.658 28.6586C313.713 27.5963 311.995 26.6171 309.421 25.6688C307.089 24.7535 306.18 24.2006 305.829 23.8978C305.396 23.5263 305.185 23.0071 305.185 22.3109C305.185 21.6188 305.478 21.0963 306.106 20.6661C306.783 20.2008 307.693 19.9646 308.813 19.9646C310.775 19.9646 312.553 20.4635 314.098 21.4479L314.841 21.922C314.935 21.914 315.022 21.8372 315.047 21.6163V17.0524C312.665 15.8618 310.308 15.6518 308.92 15.6612Z" fill="black"/>
<path fill-rule="evenodd" clip-rule="evenodd" d="M290.731 30.4434C290.731 33.1116 288.55 34.888 285.882 34.888C283.217 34.888 281.035 33.1116 281.035 30.4434V26.6353C281.035 23.967 283.217 22.1903 285.882 22.1903C288.55 22.1903 290.731 23.967 290.731 26.6353V30.4434ZM285.882 17.3482C284.121 17.3482 282.46 17.7424 281.007 18.4563V11.9353C281.007 11.1072 280.337 10.4358 279.509 10.4358H275.633V30.0768C275.633 35.719 280.245 39.7305 285.882 39.7305C291.52 39.7305 296.134 35.719 296.134 30.0768V27.0253C296.134 21.384 291.52 17.3482 285.882 17.3482Z" fill="black"/>
<mask id="mask0_44_1100" style="mask-type:alpha" maskUnits="userSpaceOnUse" x="0" y="0" width="272" height="41">
<path fill-rule="evenodd" clip-rule="evenodd" d="M0 0.0146484H271.753V40.5924H0V0.0146484Z" fill="white"/>
</mask>
<g mask="url(#mask0_44_1100)">
<path fill-rule="evenodd" clip-rule="evenodd" d="M266.218 29.2821V35.0732C265.786 35.1573 265.308 35.2235 264.791 35.2714C263.523 35.3907 262.386 35.4127 261.068 35.292C260.551 35.2454 260.074 35.1138 259.65 34.9032C259.24 34.699 258.904 34.4087 258.626 34.015C258.361 33.6419 258.226 33.091 258.226 32.3775C258.226 31.2659 258.623 30.47 259.438 29.9434C260.305 29.3824 261.621 29.0978 263.346 29.0978C263.811 29.0978 264.377 29.1241 265.047 29.1774C265.486 29.2123 265.877 29.2471 266.218 29.2821ZM269.216 18.6112C267.554 17.2833 265.126 16.6104 261.997 16.6104C260.833 16.6104 259.612 16.6951 258.362 16.8624C257.36 16.9959 255.943 17.1876 254.96 17.4141C254.561 17.5062 254.488 17.8196 254.488 18.195V21.1884C254.488 21.7223 254.493 22.2074 255.058 22.0698C256.11 21.8133 258.153 21.3602 258.707 21.2684C259.585 21.1239 260.541 21.0512 261.547 21.0512C263.115 21.0512 264.31 21.3322 265.1 21.8838C265.842 22.4035 266.218 23.3931 266.218 24.8246V24.9978C265.939 24.9723 265.633 24.9476 265.298 24.9252C264.673 24.8834 263.872 24.8615 262.897 24.8615C261.564 24.8615 260.272 25.0129 259.059 25.3111C257.827 25.6148 256.719 26.0841 255.768 26.7072C254.798 27.3425 254.021 28.1491 253.458 29.106C252.888 30.0701 252.6 31.199 252.6 32.4598C252.6 33.7406 252.847 34.8556 253.333 35.7732C253.823 36.699 254.529 37.4712 255.427 38.0671C256.311 38.6553 257.396 39.0855 258.653 39.347C259.874 39.6011 261.256 39.7298 262.76 39.7298C263.858 39.7298 271.753 39.6185 271.753 35.8579C271.753 31.501 271.753 24.9881 271.753 24.9881C271.753 22.1035 270.9 19.958 269.216 18.6112Z" fill="black"/>
<path fill-rule="evenodd" clip-rule="evenodd" d="M17.3714 12.4933C17.3714 6.66516 14.5343 1.65261 12.3759 0.0203219C12.3674 0.0154507 12.2109 -0.0726385 12.2242 0.160371C12.2242 0.163619 12.2214 0.164836 12.2214 0.167678C12.0417 11.4212 6.29707 14.4714 3.1388 18.5803C-4.14967 28.0614 2.62891 38.4573 9.53121 40.3786C13.3933 41.4535 8.63923 38.4763 8.02671 32.1875C7.28683 24.587 17.3714 18.7853 17.3714 12.4933Z" fill="black"/>
<path fill-rule="evenodd" clip-rule="evenodd" d="M20.6819 16.3246C20.6378 16.295 20.5748 16.2744 20.5315 16.3461C20.413 17.7628 18.9669 20.7929 17.1343 23.5759C10.9183 33.0141 14.4607 37.5635 16.4525 40.0072C17.609 41.426 16.4525 40.0072 19.343 38.5576C19.5698 38.444 24.9837 35.4054 25.5699 28.4826C26.1374 21.778 22.1143 17.5525 20.6819 16.3246Z" fill="#008AC4"/>
</g>
</svg>
