<svg width="103" height="102" viewBox="0 0 103 102" fill="none" xmlns="http://www.w3.org/2000/svg">
<path d="M37.5 0.5L0.5 36.5L14 87L65 101L102 64.5L97.5 47.5L80.5 43.5L76 26L59 22L54.5 4.5L37.5 0.5Z" fill="#FAFAFA"/>
<path fill-rule="evenodd" clip-rule="evenodd" d="M58.907 21.5L76.4695 25.6324L76.6149 26.2065L39.2115 62.599L21.6497 58.4668L21.5059 57.8903L58.907 21.5ZM59.2115 22.599L23.0618 57.7717L38.907 61.5L75.0568 26.3273L59.2115 22.599Z" fill="#121212"/>
<path fill-rule="evenodd" clip-rule="evenodd" d="M80.407 43L97.9686 47.1321L98.115 47.7064L60.7115 84.099L43.1506 79.967L43.0039 79.3922L80.407 43ZM80.7115 44.099L44.5618 79.2717L60.407 83L96.5568 47.8273L80.7115 44.099Z" fill="#121212"/>
<path fill-rule="evenodd" clip-rule="evenodd" d="M76.469 25.6346L81.1158 43.7057L43.7151 80.0956L43.1498 79.9645L38.5029 61.8933L75.9039 25.5032L76.469 25.6346ZM39.6158 62.2057L43.8288 78.5897L80.0029 43.3933L75.7899 27.0093L39.6158 62.2057Z" fill="#121212"/>
<path fill-rule="evenodd" clip-rule="evenodd" d="M97.9685 47.1327L102.616 65.2057L65.2031 101.607L64.6467 101.453L60.0029 83.3933L97.4078 46.9994L97.9685 47.1327ZM61.1158 83.7057L65.3288 100.09L101.503 64.8933L97.2899 48.5093L61.1158 83.7057Z" fill="#121212"/>
<path fill-rule="evenodd" clip-rule="evenodd" d="M54.969 4.13461L59.6158 22.2057L22.2111 58.5995L21.6512 58.4699L17.0029 40.3933L54.4079 3.99927L54.969 4.13461ZM18.1158 40.7057L22.3288 57.0897L58.5029 21.8933L54.2899 5.50929L18.1158 40.7057Z" fill="#121212"/>
<path fill-rule="evenodd" clip-rule="evenodd" d="M37.0752 0.67534L38.043 0.423706L50.9708 50.146L102.195 64.5682L101.924 65.5308L50.1474 50.953L37.0752 0.67534Z" fill="#121212"/>
<path d="M17.5 40.5L0.5 36.5L14 87L65 101L60.5 83.5L43.5 79.5L39 62L22 58L17.5 40.5Z" fill="#31B047"/>
<path fill-rule="evenodd" clip-rule="evenodd" d="M0.410955 36.0009L17.9684 40.132L22.4684 57.632L39.4684 61.632L43.9684 79.132L60.9684 83.132L65.6168 101.209L65.1963 101.606L13.6505 87.4557L0 36.3925L0.410955 36.0009ZM1.25834 37.2275L14.4685 86.6432L64.3606 100.339L60.1506 83.9669L43.1506 79.9669L38.6506 62.4669L21.6506 58.4669L17.1506 40.9669L1.25834 37.2275Z" fill="#121212"/>
<path fill-rule="evenodd" clip-rule="evenodd" d="M37.407 0L54.9658 4.13149L55.115 4.70634L17.7115 41.099L0.153417 36.9676L0.00195312 36.3941L37.407 0ZM37.7115 1.09896L1.56175 36.2717L17.407 40L53.5568 4.82725L37.7115 1.09896Z" fill="#121212"/>
</svg>
