<svg width="38" height="30" viewBox="0 0 38 30" fill="none" xmlns="http://www.w3.org/2000/svg">
<path d="M10.2404 7.68179C13.5417 4.42456 19.0279 4.42456 22.3292 7.68179C25.2979 10.6115 25.7373 15.2814 23.297 18.6505L23.2317 18.7443C22.6201 19.5822 21.4326 19.7814 20.5836 19.1779C19.7286 18.5744 19.5267 17.4025 20.1383 16.5646L20.2036 16.4708C21.5633 14.59 21.3495 12.0177 19.6929 10.383C17.8286 8.54311 14.7945 8.54311 12.9242 10.383L6.26232 16.963C4.39142 18.756 4.39142 21.797 6.26232 23.6427C7.91295 25.2775 10.5254 25.4884 12.4254 24.1466L12.5204 24.0294C13.3754 23.4787 14.5629 23.672 15.1686 24.5158C15.7801 25.3595 15.5842 26.5314 14.7292 27.1349L14.6342 27.1994C11.1667 29.6076 6.54139 29.2208 3.57323 26.297C0.220382 22.9865 0.220382 17.6193 3.57323 14.3146L10.2404 7.68179ZM27.7561 22.2658C24.4014 25.5763 18.9686 25.5763 15.6139 22.2658C12.6451 19.3361 12.2592 14.7189 14.6995 11.3498L14.7648 11.256C15.3229 10.4181 16.5104 10.2189 17.4129 10.8224C18.2679 11.3732 18.4698 12.5451 17.8583 13.4357L17.7929 13.5294C16.4333 15.3576 16.647 17.9826 18.3036 19.6173C20.1679 21.4572 23.202 21.4572 25.0723 19.6173L31.7342 13.0373C33.6045 11.1916 33.6045 8.15054 31.7342 6.35757C30.0836 4.72456 27.4711 4.51128 25.5711 5.85366L25.4761 5.91812C24.6211 6.52163 23.4336 6.27554 22.8279 5.48335C22.2164 4.64077 22.4123 3.46948 23.2673 2.86772L23.3623 2.8021C26.7764 0.394541 31.4551 0.776513 34.4239 3.70562C37.7786 7.01382 37.7786 12.381 34.4239 15.6857L27.7561 22.2658Z" fill="white"/>
</svg>
