<svg width="86" height="97" viewBox="0 0 86 97" fill="none" xmlns="http://www.w3.org/2000/svg">
<circle cx="43.0002" cy="42.924" r="40.6711" fill="white" stroke="black" stroke-width="3"/>
<path d="M18.7521 39.4972V48.0234H17.3536V42.1839L14.7528 48.0234H13.7836L11.1705 42.1839V48.0234H9.77199V39.4972H11.2809L14.2743 46.1832L17.2554 39.4972H18.7521ZM21.8662 40.6259V43.1285H24.8105V44.2694H21.8662V46.8825H25.1785V48.0234H20.4676V39.4849H25.1785V40.6259H21.8662ZM32.2868 39.4972V40.6381H30.0172V48.0234H28.6186V40.6381H26.3368V39.4972H32.2868ZM38.7207 46.2814H35.1507L34.5373 48.0234H33.0775L36.1322 39.4849H37.7516L40.8063 48.0234H39.3341L38.7207 46.2814ZM38.3281 45.1405L36.9419 41.1779L35.5433 45.1405H38.3281ZM49.3603 39.4972L46.1584 48.0234H44.539L41.3248 39.4972H42.8215L45.3487 46.5881L47.8881 39.4972H49.3603ZM51.8057 40.6259V43.1285H54.75V44.2694H51.8057V46.8825H55.1181V48.0234H50.4072V39.4849H55.1181V40.6259H51.8057ZM61.1467 48.0234L59.1839 44.6129H58.1165V48.0234H56.718V39.4972H59.6623C60.3166 39.4972 60.8687 39.6117 61.3185 39.8407C61.7765 40.0697 62.1159 40.3764 62.3367 40.7608C62.5657 41.1452 62.6802 41.5746 62.6802 42.0489C62.6802 42.6051 62.5167 43.1122 62.1895 43.5702C61.8705 44.02 61.3757 44.3267 60.7051 44.4903L62.8152 48.0234H61.1467ZM58.1165 43.4966H59.6623C60.1857 43.4966 60.5783 43.3657 60.84 43.104C61.1099 42.8423 61.2449 42.4906 61.2449 42.0489C61.2449 41.6073 61.114 41.2638 60.8523 41.0184C60.5906 40.7649 60.1939 40.6381 59.6623 40.6381H58.1165V43.4966ZM67.156 48.1093C66.5835 48.1093 66.0683 48.0112 65.6103 47.8149C65.1523 47.6104 64.7924 47.3242 64.5307 46.9561C64.269 46.5881 64.1381 46.1587 64.1381 45.668H65.6348C65.6675 46.036 65.8106 46.3386 66.0642 46.5758C66.3259 46.813 66.6898 46.9316 67.156 46.9316C67.6386 46.9316 68.0148 46.8171 68.2847 46.5881C68.5546 46.3509 68.6895 46.0483 68.6895 45.6803C68.6895 45.394 68.6036 45.1609 68.4319 44.981C68.2683 44.8011 68.0598 44.662 67.8062 44.5639C67.5609 44.4657 67.2174 44.3594 66.7757 44.2449C66.2196 44.0977 65.7656 43.9505 65.414 43.8033C65.0705 43.6479 64.776 43.4107 64.5307 43.0917C64.2853 42.7728 64.1626 42.3475 64.1626 41.8159C64.1626 41.3251 64.2853 40.8958 64.5307 40.5277C64.776 40.1597 65.1195 39.8775 65.5612 39.6812C66.0028 39.4849 66.514 39.3868 67.0947 39.3868C67.9207 39.3868 68.5955 39.5954 69.1189 40.0125C69.6505 40.4214 69.9449 40.9857 70.0022 41.7054H68.4564C68.4319 41.3947 68.2847 41.1288 68.0148 40.908C67.7449 40.6872 67.3891 40.5768 66.9475 40.5768C66.5467 40.5768 66.2196 40.679 65.966 40.8835C65.7125 41.088 65.5857 41.3824 65.5857 41.7668C65.5857 42.0285 65.6634 42.2452 65.8188 42.417C65.9824 42.5806 66.1868 42.7114 66.4322 42.8096C66.6776 42.9077 67.0129 43.014 67.4382 43.1285C68.0025 43.2839 68.4605 43.4393 68.8122 43.5947C69.1721 43.7501 69.4747 43.9914 69.72 44.3185C69.9736 44.6375 70.1003 45.0669 70.1003 45.6067C70.1003 46.0401 69.9817 46.4491 69.7446 46.8334C69.5156 47.2178 69.1761 47.5286 68.7263 47.7658C68.2847 47.9948 67.7612 48.1093 67.156 48.1093ZM73.0264 40.6259V43.1285H75.9707V44.2694H73.0264V46.8825H76.3388V48.0234H71.6279V39.4849H76.3388V40.6259H73.0264Z" fill="black"/>
<ellipse cx="43.0003" cy="92.7624" rx="35.2704" ry="3.83374" fill="black"/>
</svg>
