<svg width="311" height="42" viewBox="0 0 311 42" fill="none" xmlns="http://www.w3.org/2000/svg">
<path d="M17.6778 23.8354L7.25135 1.41772H3.60422L0 31.943H3.94748L6.65064 8.99367L15.9615 28.5759H19.4799L28.705 8.99367L31.4082 31.943H35.3557L31.7515 1.41772H28.1043L17.6778 23.8354Z" fill="black"/>
<path d="M49.847 32.3861C55.5536 32.3861 60.3593 28.0886 60.3593 21.5316C60.3593 14.9747 55.5536 10.8101 49.847 10.8101C44.1403 10.8101 39.3776 14.9747 39.3776 21.5316C39.3776 28.0886 44.1403 32.3861 49.847 32.3861ZM49.847 28.4873C46.1998 28.4873 43.2392 25.7848 43.2392 21.5316C43.2392 17.3671 46.1998 14.7532 49.847 14.7532C53.4083 14.7532 56.4547 17.3671 56.4547 21.5316C56.4547 25.7848 53.4083 28.4873 49.847 28.4873Z" fill="black"/>
<path d="M69.46 20.7785C69.46 16.3924 72.2919 14.7532 75.1238 14.7532C77.8698 14.7532 79.5432 16.7468 79.5432 20.2468V31.943H83.4478V19.981C83.4478 14.1329 80.7446 10.8101 75.7245 10.8101C73.5362 10.8101 70.6185 11.8734 69.46 14.3544V11.2532H65.5554V31.943H69.46V20.7785Z" fill="black"/>
<path d="M105.566 31.943H109.47V0H105.566V14.3544C104.235 12.0063 101.446 10.8101 98.4858 10.8101C92.9937 10.8101 88.4026 14.9747 88.4026 21.5759C88.4026 28.1329 93.0366 32.3861 98.5287 32.3861C101.318 32.3861 104.235 31.057 105.566 28.7532V31.943ZM105.523 21.5316C105.523 25.9177 102.433 28.443 98.872 28.443C95.2678 28.443 92.393 25.6076 92.393 21.5316C92.393 17.4557 95.2678 14.7532 98.872 14.7532C102.133 14.7532 105.523 17.1013 105.523 21.5316Z" fill="black"/>
<path d="M131.881 31.943H135.742V11.2532H131.881V14.3544C130.508 12.0063 127.633 10.8101 124.844 10.8101C119.352 10.8101 114.675 14.9747 114.675 21.5759C114.675 28.1329 119.352 32.3861 124.844 32.3861C127.633 32.3861 130.551 31.057 131.881 28.7532V31.943ZM131.838 21.5316C131.838 25.9177 128.749 28.443 125.187 28.443C121.583 28.443 118.665 25.6076 118.665 21.5316C118.665 17.4557 121.583 14.7532 125.187 14.7532C128.448 14.7532 131.838 17.1013 131.838 21.5316Z" fill="black"/>
<path d="M147.684 42L160.127 11.2532H155.965L149.958 26.2278L143.951 11.2532H139.789L147.813 31.3228L143.608 42H147.684Z" fill="black"/>
<path d="M196.176 24.5C194.16 26.9367 191.285 28.3987 187.981 28.3987C181.759 28.3987 176.997 23.2595 176.997 16.7468C176.997 10.2342 181.759 5.05063 187.981 5.05063C191.242 5.05063 194.074 6.55696 196.09 8.81645L199.094 6.24683C196.477 3.05696 192.572 1.06329 187.981 1.06329C179.614 1.06329 173.006 8.10759 173.006 16.7468C173.006 25.4304 179.614 32.3861 187.981 32.3861C192.615 32.3861 196.562 30.3481 199.18 27.1139L196.176 24.5Z" fill="black"/>
<path d="M219.33 31.943H223.191V11.2532H219.33V14.3544C217.957 12.0063 215.082 10.8101 212.293 10.8101C206.801 10.8101 202.124 14.9747 202.124 21.5759C202.124 28.1329 206.801 32.3861 212.293 32.3861C215.082 32.3861 218 31.057 219.33 28.7532V31.943ZM219.287 21.5316C219.287 25.9177 216.197 28.443 212.636 28.443C209.032 28.443 206.114 25.6076 206.114 21.5316C206.114 17.4557 209.032 14.7532 212.636 14.7532C215.897 14.7532 219.287 17.1013 219.287 21.5316Z" fill="black"/>
<path d="M233.631 11.2532H229.726V42H233.631V28.8418C235.004 31.1899 237.793 32.3861 240.625 32.3861C246.117 32.3861 250.665 28.2215 250.665 21.6646C250.665 15.1076 246.117 10.8101 240.625 10.8101C237.793 10.8101 235.004 12.1392 233.631 14.4873V11.2532ZM233.674 21.7089C233.674 17.3228 236.72 14.7532 240.239 14.7532C243.843 14.7532 246.718 17.5886 246.718 21.7089C246.718 25.8291 243.843 28.443 240.239 28.443C237.021 28.443 233.674 26.1392 233.674 21.7089Z" fill="black"/>
<path d="M259.735 11.2532H255.873V31.943H259.735V11.2532ZM255.101 3.63291C255.101 5.18354 256.302 6.24683 257.804 6.24683C259.306 6.24683 260.507 5.18354 260.507 3.63291C260.507 2.08228 259.306 1.01899 257.804 1.01899C256.302 1.01899 255.101 2.08228 255.101 3.63291Z" fill="black"/>
<path d="M271.671 11.2532V3.4557H267.766V11.2532H264.162V14.6646H267.766V31.943H271.671V14.6646H275.919V11.2532H271.671Z" fill="black"/>
<path d="M295.926 31.943H299.788V11.2532H295.926V14.3544C294.553 12.0063 291.678 10.8101 288.889 10.8101C283.397 10.8101 278.72 14.9747 278.72 21.5759C278.72 28.1329 283.397 32.3861 288.889 32.3861C291.678 32.3861 294.596 31.057 295.926 28.7532V31.943ZM295.883 21.5316C295.883 25.9177 292.794 28.443 289.233 28.443C285.628 28.443 282.711 25.6076 282.711 21.5316C282.711 17.4557 285.628 14.7532 289.233 14.7532C292.493 14.7532 295.883 17.1013 295.883 21.5316Z" fill="black"/>
<path d="M306.323 0V31.943H310.227V0H306.323Z" fill="black"/>
</svg>
