<svg width="158" height="50" viewBox="0 0 158 50" fill="none" xmlns="http://www.w3.org/2000/svg">
<path d="M75.2383 39.4124H76.3604L79.0461 46.5802L81.7463 39.4124H82.8683L79.5817 47.6187H78.5249L75.2383 39.4124Z" fill="black"/>
<path d="M91.1851 47.7636C90.6552 47.7838 90.1271 47.6899 89.6363 47.4883C89.1456 47.2866 88.7036 46.9818 88.3401 46.5944C87.5895 45.7474 87.1974 44.6402 87.247 43.5079C87.2203 42.9451 87.305 42.3825 87.4964 41.8528C87.6877 41.323 87.9819 40.8365 88.3618 40.4215C88.7365 40.0352 89.1879 39.7322 89.6867 39.5321C90.1855 39.3319 90.7206 39.2391 91.2575 39.2596C91.7783 39.2341 92.2988 39.3185 92.7851 39.5074C93.2714 39.6963 93.7128 39.9855 94.0807 40.3562C94.4248 40.7188 94.694 41.146 94.8729 41.6134C95.0518 42.0808 95.1369 42.579 95.1232 43.0795C95.1271 43.3494 95.1077 43.6191 95.0652 43.8856H88.3256C88.3176 44.7107 88.623 45.5079 89.1798 46.1152C89.4405 46.3811 89.7533 46.59 90.0984 46.7287C90.4435 46.8674 90.8135 46.933 91.1851 46.9213C91.7542 46.9384 92.3157 46.7868 92.7994 46.4855C93.2226 46.2174 93.5458 45.8166 93.7188 45.3453H94.8408C94.5777 46.0392 94.1201 46.642 93.5233 47.081C92.8399 47.5602 92.0181 47.8 91.1851 47.7636ZM94.0807 43.065C94.1025 42.6654 94.0417 42.2656 93.9021 41.8907C93.7626 41.5158 93.5474 41.1738 93.27 40.8863C93.0034 40.6222 92.6866 40.4146 92.3383 40.2761C91.9901 40.1376 91.6175 40.071 91.243 40.0802C90.8734 40.0694 90.5055 40.1333 90.161 40.268C89.8165 40.4028 89.5025 40.6056 89.2378 40.8645C88.6794 41.452 88.366 42.2314 88.3618 43.0432L94.0807 43.065Z" fill="black"/>
<path d="M100.55 39.412V40.7483C100.816 40.268 101.212 39.8732 101.693 39.6097C102.173 39.3461 102.718 39.2247 103.265 39.2595C103.685 39.2473 104.104 39.3201 104.496 39.4736C104.887 39.627 105.244 39.858 105.545 40.1527C105.865 40.4969 106.111 40.9033 106.268 41.3468C106.425 41.7902 106.489 42.2614 106.457 42.7309V47.6183H105.422V42.9269C105.474 42.1814 105.241 41.4439 104.771 40.8644C104.543 40.6229 104.266 40.4332 103.959 40.3079C103.651 40.1827 103.321 40.1248 102.99 40.1382C102.658 40.1256 102.326 40.1838 102.018 40.309C101.71 40.4342 101.432 40.6235 101.202 40.8644C100.731 41.4439 100.498 42.1814 100.55 42.9269V47.6183H99.5078V39.412H100.55Z" fill="black"/>
<path d="M115.288 40.2325H113.022V45.6791C112.992 45.987 113.077 46.2952 113.261 46.5434C113.504 46.7322 113.81 46.8205 114.115 46.7903H115.288V47.6182H113.891C113.629 47.6549 113.362 47.6298 113.112 47.5451C112.862 47.4604 112.634 47.3183 112.448 47.1302C112.262 46.942 112.122 46.7129 112.039 46.461C111.957 46.2092 111.934 45.9414 111.972 45.6791V40.2325H110.836V39.4118H111.994V37.3494H113.044V39.4118H115.31L115.288 40.2325Z" fill="black"/>
<path d="M125.568 39.412H126.618V47.6183H125.568V46.2749C125.302 46.7508 124.905 47.1403 124.426 47.3977C123.946 47.655 123.403 47.7694 122.861 47.7273C122.44 47.7395 122.022 47.6667 121.63 47.5132C121.238 47.3597 120.881 47.1288 120.58 46.8341C120.26 46.4899 120.014 46.0835 119.857 45.64C119.7 45.1965 119.636 44.7254 119.668 44.2559V39.3757H120.682V44.0598C120.626 44.8058 120.859 45.5447 121.333 46.1224C121.56 46.365 121.837 46.5555 122.144 46.6809C122.452 46.8062 122.783 46.8634 123.114 46.8486C123.445 46.8634 123.776 46.8062 124.084 46.6809C124.391 46.5555 124.668 46.365 124.895 46.1224C125.369 45.5447 125.602 44.8058 125.546 44.0598L125.568 39.412Z" fill="black"/>
<path d="M132.05 39.4122V40.763C132.262 40.2776 132.62 39.8712 133.075 39.6015C133.53 39.3317 134.057 39.2122 134.583 39.2597V40.3563H134.279C133.979 40.3362 133.677 40.378 133.393 40.4792C133.11 40.5803 132.849 40.7388 132.629 40.9446C132.185 41.5156 131.978 42.2359 132.05 42.9562V47.6185H131V39.4122H132.05Z" fill="black"/>
<path d="M142.9 47.7636C142.37 47.7838 141.842 47.6899 141.351 47.4883C140.86 47.2866 140.418 46.9818 140.055 46.5944C139.304 45.7474 138.912 44.6402 138.962 43.5079C138.935 42.9451 139.02 42.3825 139.211 41.8528C139.403 41.323 139.697 40.8365 140.077 40.4215C140.451 40.0352 140.903 39.7322 141.402 39.5321C141.9 39.3319 142.435 39.2391 142.972 39.2596C143.493 39.2341 144.014 39.3185 144.5 39.5074C144.986 39.6963 145.428 39.9855 145.796 40.3562C146.141 40.7184 146.411 41.1454 146.591 41.6128C146.771 42.0801 146.858 42.5786 146.845 43.0795C146.847 43.3496 146.825 43.6193 146.78 43.8856H140.04C140.036 44.71 140.341 45.506 140.895 46.1152C141.156 46.3804 141.469 46.5888 141.814 46.7275C142.159 46.8661 142.528 46.9322 142.9 46.9213C143.469 46.9384 144.031 46.7868 144.514 46.4855C144.939 46.2195 145.263 45.8179 145.434 45.3453H146.556C146.293 46.0392 145.835 46.642 145.238 47.081C144.555 47.5602 143.733 47.8 142.9 47.7636ZM145.796 43.065C145.816 42.6649 145.754 42.2648 145.614 41.8898C145.473 41.5149 145.256 41.1732 144.978 40.8863C144.712 40.6211 144.395 40.4129 144.047 40.2743C143.698 40.1358 143.325 40.0697 142.951 40.0802C142.581 40.0694 142.213 40.1333 141.869 40.268C141.524 40.4028 141.21 40.6056 140.945 40.8645C140.387 41.452 140.074 42.2314 140.069 43.0432L145.796 43.065Z" fill="black"/>
<path d="M151.223 41.678C151.219 41.3453 151.294 41.0165 151.439 40.7177C151.585 40.4188 151.799 40.1583 152.062 39.9569C152.674 39.458 153.446 39.1998 154.234 39.2306C154.973 39.1844 155.7 39.4294 156.261 39.9133C156.766 40.4126 157.054 41.0907 157.065 41.8015H155.986C155.982 41.3364 155.797 40.8911 155.472 40.5597C155.295 40.3911 155.086 40.2608 154.857 40.1771C154.627 40.0933 154.384 40.0579 154.14 40.0731C153.657 40.0444 153.181 40.1943 152.801 40.4943C152.648 40.6154 152.525 40.7699 152.441 40.9461C152.357 41.1224 152.314 41.3156 152.316 41.511C152.307 41.6833 152.334 41.8556 152.395 42.0169C152.456 42.1782 152.55 42.325 152.671 42.4478C152.925 42.6852 153.241 42.8463 153.583 42.9126C153.945 42.9925 154.343 43.0869 154.763 43.1959C155.183 43.3048 155.581 43.4283 155.95 43.5517C156.315 43.6762 156.631 43.9124 156.855 44.2271C157.107 44.5958 157.234 45.0365 157.217 45.4835C157.221 45.8004 157.148 46.1136 157.004 46.3959C156.86 46.6781 156.65 46.9208 156.392 47.103C155.758 47.5506 154.994 47.773 154.22 47.7348C153.447 47.7696 152.689 47.5102 152.099 47.0085C151.836 46.77 151.625 46.4801 151.478 46.1566C151.331 45.8332 151.252 45.4829 151.244 45.1276H152.323C152.324 45.3613 152.371 45.5926 152.463 45.8072C152.555 46.0219 152.69 46.2157 152.859 46.3767C153.247 46.7134 153.751 46.8852 154.263 46.856C154.753 46.8873 155.239 46.7545 155.646 46.4784C155.803 46.3667 155.93 46.2184 156.017 46.0463C156.104 45.8743 156.148 45.6836 156.145 45.4907C156.154 45.3167 156.126 45.1429 156.064 44.9803C156.002 44.8177 155.906 44.67 155.783 44.5466C155.531 44.3076 155.218 44.1419 154.879 44.0673C154.509 43.9874 154.118 43.8857 153.691 43.7768C153.264 43.6679 152.873 43.5517 152.511 43.4282C152.151 43.3143 151.835 43.091 151.606 42.7891C151.361 42.4709 151.226 42.0805 151.223 41.678Z" fill="black"/>
<path d="M92.033 6.19458H98.3166V32.1498H92.033L81.5219 15.817V32.1498H75.2383V6.19458H81.5219L92.033 22.5273V6.19458Z" fill="black"/>
<path d="M106.452 28.6277C105.187 27.4014 104.192 25.9237 103.53 24.2892C102.868 22.6546 102.554 20.8995 102.608 19.136C102.553 17.3725 102.867 15.617 103.529 13.9823C104.191 12.3477 105.186 10.87 106.452 9.64423C107.689 8.41756 109.16 7.45355 110.777 6.80972C112.394 6.1659 114.123 5.85551 115.862 5.89698C118.582 5.85353 121.249 6.65228 123.5 8.18451C125.727 9.70615 127.373 11.9416 128.169 14.5245H120.684C120.266 13.6383 119.597 12.8957 118.759 12.3904C117.922 11.8852 116.954 11.6397 115.978 11.685C115.038 11.6386 114.099 11.7956 113.225 12.1451C112.351 12.4947 111.561 13.0288 110.911 13.7111C109.619 15.2126 108.953 17.1551 109.05 19.136C108.953 21.1148 109.619 23.0552 110.911 24.5536C111.546 25.2315 112.321 25.7635 113.18 26.1132C114.04 26.463 114.965 26.6221 115.891 26.5798C117.203 26.6389 118.494 26.2412 119.547 25.4541C120.495 24.6954 121.16 23.639 121.437 22.4548H114.161V17.6618H128.198V22.4548C127.624 25.0009 126.276 27.3053 124.339 29.049C123.264 30.0832 121.997 30.8972 120.611 31.4455C119.115 32.0642 117.51 32.3778 115.891 32.3678C114.148 32.4129 112.414 32.1049 110.792 31.4623C109.17 30.8197 107.694 29.8556 106.452 28.6277Z" fill="black"/>
<path d="M136.284 28.6277C135.019 27.4014 134.024 25.9237 133.362 24.2892C132.7 22.6546 132.386 20.8995 132.44 19.136C132.385 17.3725 132.699 15.617 133.361 13.9823C134.023 12.3477 135.019 10.87 136.284 9.64423C137.521 8.41756 138.992 7.45355 140.609 6.80972C142.226 6.1659 143.955 5.85551 145.694 5.89698C148.416 5.85345 151.086 6.65214 153.339 8.18451C155.566 9.7044 157.211 11.9408 158.001 14.5245H150.508C150.091 13.6383 149.421 12.8957 148.584 12.3904C147.747 11.8852 146.779 11.6397 145.803 11.685C144.863 11.6386 143.924 11.7956 143.05 12.1451C142.175 12.4947 141.386 13.0288 140.736 13.7111C139.446 15.2133 138.782 17.156 138.882 19.136C138.782 21.1139 139.446 23.0545 140.736 24.5536C141.386 25.236 142.175 25.77 143.05 26.1196C143.924 26.4692 144.863 26.6262 145.803 26.5798C146.779 26.627 147.748 26.3823 148.586 25.8768C149.423 25.3713 150.093 24.6277 150.508 23.7402H158.001C157.215 26.3258 155.569 28.5633 153.339 30.0802C151.086 31.6125 148.416 32.4113 145.694 32.3678C143.956 32.409 142.227 32.0991 140.61 31.4566C138.994 30.8141 137.522 29.8521 136.284 28.6277Z" fill="black"/>
<path d="M7.72413 4.47354L0 0V40.8573L7.72413 45.3308L15.441 49.8044V8.94707L7.72413 4.47354Z" fill="black"/>
<path d="M30.8882 4.47354L23.1641 0V40.8573L30.8882 45.3308L38.6123 49.8044V8.94707L30.8882 4.47354Z" fill="black"/>
<path d="M54.0562 4.47354L46.332 0V40.8573L54.0562 45.3308L61.7803 49.8044V8.94707L54.0562 4.47354Z" fill="black"/>
</svg>
