<svg width="89" height="105" viewBox="0 0 89 105" fill="none" xmlns="http://www.w3.org/2000/svg">
<ellipse cx="44.9016" cy="101.179" rx="19.2946" ry="3.82087" fill="#121212"/>
<circle cx="44.9004" cy="44.8643" r="42.496" fill="white" stroke="#121212" stroke-width="3.20725"/>
<path d="M18.5896 49.0537H17.4927L14.1925 44.06V49.0537H13.0956V42.357H14.1925L17.4927 47.341V42.357H18.5896V49.0537ZM23.0801 49.1211C22.4579 49.1211 21.8838 48.9767 21.3578 48.6881C20.8382 48.393 20.4245 47.9857 20.1166 47.4661C19.8151 46.9401 19.6644 46.35 19.6644 45.6957C19.6644 45.0414 19.8151 44.4545 20.1166 43.9349C20.4245 43.4154 20.8382 43.0113 21.3578 42.7226C21.8838 42.4275 22.4579 42.28 23.0801 42.28C23.7087 42.28 24.2828 42.4275 24.8024 42.7226C25.3284 43.0113 25.7421 43.4154 26.0436 43.9349C26.3451 44.4545 26.4958 45.0414 26.4958 45.6957C26.4958 46.35 26.3451 46.9401 26.0436 47.4661C25.7421 47.9857 25.3284 48.393 24.8024 48.6881C24.2828 48.9767 23.7087 49.1211 23.0801 49.1211ZM23.0801 48.1685C23.5227 48.1685 23.9172 48.0691 24.2636 47.8702C24.61 47.665 24.8794 47.3763 25.0718 47.0043C25.2707 46.6258 25.3701 46.1896 25.3701 45.6957C25.3701 45.2018 25.2707 44.7688 25.0718 44.3968C24.8794 44.0247 24.61 43.7393 24.2636 43.5405C23.9172 43.3416 23.5227 43.2422 23.0801 43.2422C22.6375 43.2422 22.243 43.3416 21.8966 43.5405C21.5503 43.7393 21.2776 44.0247 21.0788 44.3968C20.8864 44.7688 20.7901 45.2018 20.7901 45.6957C20.7901 46.1896 20.8864 46.6258 21.0788 47.0043C21.2776 47.3763 21.5503 47.665 21.8966 47.8702C22.243 48.0691 22.6375 48.1685 23.0801 48.1685ZM33.0692 49.0537H31.9723L28.6721 44.06V49.0537H27.5752V42.357H28.6721L31.9723 47.341V42.357H33.0692V49.0537ZM38.4449 42.3666V43.2614H35.6065V45.2339H37.8195V46.1287H35.6065V49.0537H34.5096V42.3666H38.4449ZM40.5487 42.3666V46.629C40.5487 47.1358 40.6802 47.5174 40.9432 47.774C41.2126 48.0306 41.5846 48.1589 42.0593 48.1589C42.5404 48.1589 42.9124 48.0306 43.1754 47.774C43.4448 47.5174 43.5795 47.1358 43.5795 46.629V42.3666H44.6764V46.6098C44.6764 47.155 44.5577 47.6169 44.3204 47.9953C44.0831 48.3738 43.7656 48.656 43.3679 48.842C42.9702 49.0281 42.5308 49.1211 42.0497 49.1211C41.5686 49.1211 41.1292 49.0281 40.7315 48.842C40.3402 48.656 40.0291 48.3738 39.7982 47.9953C39.5673 47.6169 39.4518 47.155 39.4518 46.6098V42.3666H40.5487ZM51.5986 49.0537H50.5017L47.2014 44.06V49.0537H46.1046V42.357H47.2014L50.5017 47.341V42.357H51.5986V49.0537ZM57.8787 44.2909C57.7055 43.9574 57.465 43.7072 57.1571 43.5405C56.8492 43.3673 56.4932 43.2807 56.0891 43.2807C55.6465 43.2807 55.252 43.3801 54.9056 43.5789C54.5592 43.7778 54.2866 44.06 54.0878 44.4257C53.8953 44.7913 53.7991 45.2146 53.7991 45.6957C53.7991 46.1768 53.8953 46.6034 54.0878 46.9754C54.2866 47.341 54.5592 47.6233 54.9056 47.8221C55.252 48.021 55.6465 48.1204 56.0891 48.1204C56.6856 48.1204 57.1699 47.9536 57.542 47.6201C57.914 47.2865 58.1417 46.8343 58.2251 46.2634H55.7138V45.3878H59.399V46.2442C59.3284 46.7637 59.1424 47.2416 58.8409 47.6778C58.5458 48.114 58.1578 48.4636 57.6767 48.7266C57.202 48.9832 56.6728 49.1114 56.0891 49.1114C55.4605 49.1114 54.8864 48.9671 54.3668 48.6785C53.8472 48.3834 53.4335 47.9761 53.1256 47.4565C52.8241 46.9369 52.6734 46.35 52.6734 45.6957C52.6734 45.0414 52.8241 44.4545 53.1256 43.9349C53.4335 43.4154 53.8472 43.0113 54.3668 42.7226C54.8928 42.4275 55.4669 42.28 56.0891 42.28C56.8011 42.28 57.4329 42.4564 57.9846 42.8092C58.5426 43.1556 58.9467 43.6495 59.1969 44.2909H57.8787ZM61.5777 42.3666V49.0537H60.4808V42.3666H61.5777ZM66.5971 45.6187C66.9563 45.6829 67.261 45.8721 67.5111 46.1864C67.7613 46.5007 67.8864 46.8567 67.8864 47.2544C67.8864 47.5944 67.7966 47.9023 67.617 48.1781C67.4438 48.4475 67.1904 48.6624 66.8569 48.8228C66.5233 48.9767 66.1352 49.0537 65.6926 49.0537H63.0178V42.3666H65.5676C66.023 42.3666 66.4143 42.4436 66.7414 42.5975C67.0685 42.7515 67.3155 42.9599 67.4823 43.2229C67.6491 43.4795 67.7324 43.7682 67.7324 44.0889C67.7324 44.4738 67.6298 44.7945 67.4246 45.0511C67.2193 45.3076 66.9435 45.4969 66.5971 45.6187ZM64.1147 45.1761H65.4713C65.8305 45.1761 66.1096 45.096 66.3084 44.9356C66.5137 44.7688 66.6163 44.5315 66.6163 44.2236C66.6163 43.9221 66.5137 43.688 66.3084 43.5212C66.1096 43.348 65.8305 43.2614 65.4713 43.2614H64.1147V45.1761ZM65.5964 48.1589C65.9685 48.1589 66.2603 48.0691 66.472 47.8895C66.6837 47.7099 66.7895 47.4597 66.7895 47.139C66.7895 46.8118 66.6773 46.5521 66.4528 46.3596C66.2282 46.1672 65.93 46.071 65.5579 46.071H64.1147V48.1589H65.5964ZM70.1752 48.1685H72.4364V49.0537H69.0784V42.3666H70.1752V48.1685ZM74.4505 43.2518V45.2146H76.7597V46.1095H74.4505V48.1589H77.0484V49.0537H73.3536V42.357H77.0484V43.2518H74.4505Z" fill="#121212"/>
</svg>
