<svg width="121" height="82" viewBox="0 0 121 82" fill="#000" xmlns="http://www.w3.org/2000/svg">
    <path d="M81.4907 30.8053C80.9018 24.6181 78.5002 18.7502 74.5942 13.9547C75.1127 13.3798 75.3998 12.6292 75.3988 11.8507C75.3956 11.2418 75.2186 10.6468 74.889 10.1375C74.5593 9.62817 74.0912 9.22628 73.5411 8.98026C72.9909 8.73423 72.3822 8.65459 71.7884 8.75094C71.1945 8.84728 70.6409 9.11549 70.1942 9.52324C65.4588 5.56946 59.6648 3.13807 53.5552 2.54094C53.4146 1.82467 53.0331 1.17993 52.4755 0.716589C51.918 0.253251 51.219 0 50.4977 0C49.7764 0 49.0775 0.253251 48.5199 0.716589C47.9624 1.17993 47.5809 1.82467 47.4403 2.54094C41.3307 3.13807 35.5367 5.56946 30.8013 9.52324C30.2102 8.97461 29.4328 8.67809 28.6311 8.69549C27.8294 8.71288 27.0653 9.04285 26.498 9.61661C25.9307 10.1904 25.604 10.9637 25.586 11.7753C25.568 12.5869 25.86 13.3743 26.4013 13.9733C22.4952 18.7689 20.0937 24.6367 19.5048 30.8239C18.9023 30.9461 18.3489 31.2459 17.9142 31.6855C17.4795 32.1252 17.1828 32.6851 17.0614 33.2949C16.94 33.9048 16.9994 34.5373 17.232 35.1131C17.4646 35.6889 17.8601 36.1823 18.3688 36.5312C18.8775 36.8801 19.4767 37.0691 20.0911 37.0743C20.7056 37.0795 21.3078 36.9007 21.8222 36.5605C22.3366 36.2202 22.7402 35.7336 22.9823 35.1619C23.2244 34.5901 23.2942 33.9586 23.1829 33.3468L31.684 29.4274C31.9841 29.8107 32.3682 30.1179 32.806 30.3246C33.2437 30.5313 33.723 30.6319 34.2059 30.6183C34.6887 30.6048 35.1618 30.4775 35.5876 30.2465C36.0134 30.0156 36.3801 29.6873 36.6587 29.2878L47.3943 33.5237C47.2963 34.2888 47.4797 35.0636 47.9096 35.7005C48.3394 36.3375 48.9857 36.792 49.7253 36.9776V46.6411C48.9689 46.8289 48.3065 47.2907 47.8635 47.9392C47.4204 48.5878 47.2273 49.3781 47.3207 50.161C47.4141 50.9439 47.7875 51.665 48.3704 52.1881C48.9532 52.7112 49.7051 53 50.4839 53C51.2628 53 52.0147 52.7112 52.5975 52.1881C53.1804 51.665 53.5538 50.9439 53.6472 50.161C53.7405 49.3781 53.5475 48.5878 53.1044 47.9392C52.6614 47.2907 51.999 46.8289 51.2426 46.6411V36.959C51.9822 36.7734 52.6285 36.3188 53.0583 35.6819C53.4882 35.0449 53.6716 34.2701 53.5736 33.5051L64.6034 29.1575C64.9027 29.4862 65.2679 29.7464 65.6746 29.9207C66.0813 30.0949 66.5201 30.1791 66.9616 30.1676C67.403 30.1562 67.837 30.0493 68.2343 29.8542C68.6317 29.6591 68.9832 29.3803 69.2655 29.0364L77.831 33.2258C77.7052 33.8373 77.7615 34.4728 77.9928 35.0519C78.224 35.6309 78.6197 36.1275 79.1299 36.4787C79.64 36.83 80.2416 37.02 80.8585 37.0249C81.4754 37.0298 82.0798 36.8492 82.5953 36.506C83.1108 36.1629 83.5141 35.6726 83.7542 35.0973C83.9943 34.5219 84.0604 33.8874 83.9441 33.274C83.8278 32.6606 83.5343 32.0959 83.1009 31.6515C82.6674 31.2071 82.1134 30.9029 81.5091 30.7774L81.4907 30.8053ZM72.2953 10.2215C72.6138 10.2205 72.9254 10.3153 73.1906 10.4938C73.4559 10.6722 73.6628 10.9264 73.7853 11.224C73.9078 11.5216 73.9403 11.8493 73.8788 12.1656C73.8172 12.482 73.6643 12.7727 73.4394 13.001C73.2146 13.2293 72.9279 13.385 72.6156 13.4482C72.3033 13.5115 71.9795 13.4795 71.6852 13.3563C71.3909 13.2331 71.1393 13.0243 70.9623 12.7563C70.7853 12.4883 70.6908 12.1731 70.6908 11.8507C70.6908 11.4194 70.8597 11.0057 71.1605 10.7003C71.4612 10.3949 71.8694 10.2227 72.2953 10.2215ZM69.3666 10.7801C69.1703 11.3123 69.1256 11.8898 69.2379 12.4465L60.2862 16.0633L52.861 5.2268C53.1477 4.8889 53.365 4.49642 53.5 4.07239C59.3322 4.65264 64.8587 6.98902 69.3666 10.7801ZM49.4403 6.11588C49.569 6.16708 49.684 6.19501 49.7575 6.21828V17.6832C49.0595 17.8835 48.4498 18.3186 48.0288 18.9168L42.3782 16.5893L49.4403 6.11588ZM50.6173 19.0936C50.9485 19.0946 51.2719 19.195 51.5468 19.3821C51.8216 19.5693 52.0353 19.8348 52.161 20.145C52.2867 20.4552 52.3187 20.7962 52.2528 21.1248C52.187 21.4535 52.0263 21.7549 51.7911 21.991C51.556 22.2272 51.2569 22.3873 50.9318 22.4513C50.6067 22.5152 50.2702 22.4801 49.9648 22.3503C49.6594 22.2205 49.399 22.0018 49.2164 21.7221C49.0338 21.4423 48.9373 21.114 48.9391 20.7787C48.9428 20.3305 49.1212 19.9019 49.4355 19.5863C49.7498 19.2707 50.1746 19.0936 50.6173 19.0936ZM51.2747 17.632V6.21828C51.3943 6.18415 51.5092 6.14691 51.6196 6.10657L58.8425 16.6452L53.2104 18.9168C52.7486 18.2563 52.0571 17.7973 51.2747 17.632ZM50.5161 1.53083C50.8335 1.53083 51.1437 1.62611 51.4076 1.80462C51.6715 1.98313 51.8771 2.23685 51.9986 2.53369C52.12 2.83054 52.1518 3.15718 52.0899 3.47232C52.028 3.78745 51.8752 4.07691 51.6507 4.30411C51.4263 4.53131 51.1404 4.68603 50.8292 4.74872C50.5179 4.8114 50.1953 4.77923 49.9021 4.65627C49.6089 4.53331 49.3583 4.32509 49.182 4.05793C49.0056 3.79078 48.9115 3.47669 48.9115 3.15538C48.9128 2.7249 49.0822 2.31241 49.3829 2.00801C49.6835 1.70361 50.0909 1.53206 50.5161 1.53083ZM47.5322 4.07239C47.668 4.50744 47.8902 4.90979 48.1851 5.25473L40.9392 16.0121L31.822 12.2882C31.8755 11.7834 31.8238 11.2727 31.6702 10.7894C36.1749 6.99434 41.7003 4.65453 47.5322 4.07239ZM28.7369 10.2215C29.0554 10.2205 29.3669 10.3153 29.6322 10.4938C29.8974 10.6722 30.1044 10.9264 30.2269 11.224C30.3494 11.5216 30.3819 11.8493 30.3203 12.1656C30.2588 12.482 30.1059 12.7727 29.881 13.001C29.6561 13.2293 29.3694 13.385 29.0571 13.4482C28.7449 13.5115 28.4211 13.4795 28.1268 13.3563C27.8325 13.2331 27.5809 13.0243 27.4038 12.7563C27.2268 12.4883 27.1323 12.1731 27.1323 11.8507C27.1323 11.4194 27.3012 11.0057 27.602 10.7003C27.9028 10.3949 28.3109 10.2227 28.7369 10.2215ZM20.1484 35.5253C19.8313 35.5244 19.5215 35.4283 19.2582 35.2493C18.995 35.0702 18.79 34.8162 18.6693 34.5192C18.5485 34.2223 18.5174 33.8958 18.5798 33.581C18.6423 33.2662 18.7955 32.9771 19.02 32.7504C19.2446 32.5237 19.5306 32.3694 19.8417 32.3071C20.1528 32.2448 20.4752 32.2772 20.7681 32.4003C21.0611 32.5234 21.3114 32.7316 21.4875 32.9987C21.6636 33.2658 21.7576 33.5797 21.7576 33.9008C21.7576 34.1145 21.716 34.3261 21.6351 34.5235C21.5541 34.7209 21.4355 34.9002 21.286 35.0511C21.1365 35.2021 20.9591 35.3216 20.7639 35.403C20.5687 35.4844 20.3595 35.5259 20.1484 35.5253ZM31.0358 27.4445C31.0354 27.6352 31.0539 27.8254 31.0909 28.0124L22.5898 31.9504C22.1935 31.4541 21.6607 31.088 21.0588 30.8984C21.6242 24.9861 23.9325 19.3827 27.684 14.8158C28.3172 15.0456 29.0068 15.0618 29.6498 14.8621C30.2928 14.6625 30.8548 14.2576 31.2518 13.708L40.0656 17.3062L35.2334 24.5026C34.8865 24.3778 34.5212 24.3133 34.153 24.3117C33.3306 24.3129 32.5419 24.6426 31.9582 25.2292C31.3745 25.8158 31.043 26.6119 31.0358 27.4445ZM34.153 29.069C33.8336 29.0736 33.52 28.9819 33.2523 28.8055C32.9846 28.6291 32.7747 28.376 32.6496 28.0785C32.5244 27.781 32.4895 27.4524 32.5493 27.1348C32.6091 26.8171 32.761 26.5246 32.9856 26.2946C33.2102 26.0646 33.4973 25.9075 33.8103 25.8432C34.1234 25.779 34.4483 25.8105 34.7436 25.9339C35.0389 26.0572 35.2913 26.2667 35.4686 26.5357C35.6459 26.8047 35.7401 27.1211 35.7392 27.4445C35.738 27.8717 35.5711 28.2815 35.2744 28.5853C34.9777 28.8892 34.575 29.0629 34.153 29.069ZM36.6587 25.5965C36.5944 25.508 36.53 25.4289 36.461 25.3498L41.4863 17.902L47.4633 20.3132C47.4178 20.614 47.4178 20.9201 47.4633 21.2209L36.6587 25.5965ZM47.9598 32.0761L37.2242 27.8401C37.2633 27.5685 37.2633 27.2925 37.2242 27.0209L48.0104 22.6639C48.4337 23.2588 49.0427 23.6917 49.7391 23.8928V30.8425C49.0238 31.0238 48.3979 31.4622 47.9782 32.0761H47.9598ZM52.1713 49.7645C52.1713 50.0997 52.0731 50.4272 51.8893 50.7059C51.7054 50.9845 51.444 51.2017 51.1382 51.3299C50.8324 51.4582 50.4959 51.4917 50.1712 51.4264C49.8466 51.361 49.5484 51.1996 49.3144 50.9626C49.0803 50.7257 48.9209 50.4238 48.8563 50.0951C48.7918 49.7664 48.8249 49.4257 48.9516 49.1161C49.0782 48.8065 49.2927 48.5419 49.568 48.3557C49.8432 48.1695 50.1667 48.0702 50.4977 48.0702C50.7181 48.0683 50.9367 48.1105 51.141 48.1941C51.3453 48.2778 51.5313 48.4014 51.6884 48.5579C51.8455 48.7144 51.9707 48.9007 52.0567 49.1061C52.1427 49.3115 52.1879 49.5321 52.1897 49.7552L52.1713 49.7645ZM50.4977 35.5346C50.1804 35.5346 49.8702 35.4393 49.6063 35.2608C49.3424 35.0823 49.1367 34.8286 49.0153 34.5318C48.8938 34.2349 48.8621 33.9083 48.924 33.5931C48.9859 33.278 49.1387 32.9885 49.3631 32.7613C49.5875 32.5341 49.8734 32.3794 50.1847 32.3167C50.496 32.2541 50.8186 32.2862 51.1118 32.4092C51.405 32.5321 51.6556 32.7404 51.8319 33.0075C52.0082 33.2747 52.1023 33.5888 52.1023 33.9101C52.0999 34.3361 51.9324 34.7441 51.6357 35.0463C51.339 35.3484 50.9369 35.5204 50.5161 35.5253L50.4977 35.5346ZM53.0403 32.0854C52.6161 31.4656 51.9809 31.0263 51.2564 30.8518V23.944C52.0422 23.784 52.7398 23.3303 53.2104 22.6732L63.785 26.9976C63.783 27.2728 63.8186 27.5469 63.8908 27.8122L53.0403 32.0854ZM53.7667 21.2442C53.8107 20.9355 53.8107 20.6219 53.7667 20.3132L59.7437 17.9067L64.5299 24.9681C64.3849 25.1379 64.2571 25.3219 64.1483 25.5174L53.7667 21.2442ZM66.8839 28.6315C66.5663 28.6324 66.2556 28.5379 65.9912 28.3599C65.7267 28.182 65.5203 27.9286 65.3982 27.6318C65.276 27.3351 65.2436 27.0083 65.305 26.6928C65.3664 26.3774 65.5188 26.0875 65.743 25.8598C65.9673 25.6322 66.2532 25.477 66.5645 25.4139C66.8759 25.3509 67.1988 25.3828 67.4923 25.5056C67.7857 25.6284 68.0366 25.8366 68.2131 26.1039C68.3896 26.3711 68.4839 26.6854 68.4839 27.0069C68.4851 27.2206 68.4446 27.4325 68.3648 27.6304C68.285 27.8283 68.1674 28.0082 68.0188 28.16C67.8702 28.3118 67.6934 28.4324 67.4986 28.5149C67.3039 28.5974 67.095 28.6402 66.8839 28.6408V28.6315ZM78.4976 31.8899L69.9321 27.7005C70.0289 27.2411 70.0229 26.7657 69.9145 26.309C69.8061 25.8523 69.5981 25.426 69.3058 25.0613C69.0135 24.6966 68.6443 24.4028 68.2252 24.2014C67.8061 24 67.3478 23.8962 66.8839 23.8975C66.505 23.9022 66.1299 23.9747 65.7758 24.1116L61.1782 17.3946L69.8862 13.8755C70.2928 14.3833 70.8455 14.7503 71.4676 14.9255C72.0897 15.1007 72.7502 15.0754 73.3574 14.8531C77.0935 19.4073 79.3991 24.9886 79.9781 30.8798C79.3994 31.059 78.885 31.4052 78.4976 31.8759V31.8899ZM80.8838 35.5393C80.5665 35.5393 80.2562 35.444 79.9924 35.2655C79.7285 35.087 79.5228 34.8333 79.4014 34.5364C79.2799 34.2396 79.2481 33.9129 79.3101 33.5978C79.372 33.2827 79.5248 32.9932 79.7492 32.766C79.9736 32.5388 80.2595 32.3841 80.5708 32.3214C80.882 32.2587 81.2047 32.2909 81.4979 32.4138C81.7911 32.5368 82.0417 32.745 82.218 33.0122C82.3943 33.2793 82.4884 33.5934 82.4884 33.9147C82.4836 34.3428 82.3125 34.7517 82.0123 35.0531C81.712 35.3545 81.3066 35.5241 80.8838 35.5253V35.5393Z"
          fill="#fff"/>
    <path d="M10.0681 67H13V82H11.2179V74.5024C11.2179 73.9652 11.2301 71.9365 11.2546 68.4165C10.8606 69.6701 10.4452 70.945 10.0085 72.241L9.27553 74.5024L6.82461 82H5.20288L2.68325 74.5024C2.66499 74.426 2.64203 74.351 2.61453 74.2778C2.56872 74.1459 2.48626 73.9016 2.36715 73.5402L2.00982 72.4754L1.39594 70.6144C1.10733 69.7401 0.873692 69.0173 0.704189 68.436C0.725568 70.2139 0.737785 72.2426 0.740839 74.522V82H-1V67H1.93194L4.13089 73.6135C4.96466 76.0655 5.59839 78.0795 6.03207 79.6555C6.37718 78.3758 6.99869 76.3618 7.8966 73.6135L10.0681 67Z"
          fill="white"/>
    <path d="M30.2814 74.079C31.0664 74.2974 31.7658 74.7705 32.2797 75.4307C32.7699 76.11 33.0226 76.9456 32.9954 77.7974C33.0225 78.3701 32.9291 78.942 32.7219 79.4724C32.5147 80.0029 32.1987 80.479 31.7964 80.8667C30.9095 81.6521 29.7718 82.055 28.6131 81.994H22V67.0082H28.311C29.4013 66.941 30.4783 67.2873 31.3456 67.9842C31.9611 68.6052 32.3518 69.4315 32.451 70.3217C32.5502 71.2118 32.3517 72.1105 31.8894 72.864C31.4908 73.439 30.9273 73.8648 30.2814 74.079ZM23.8868 68.5698V73.3617H27.9485C28.6697 73.4072 29.3823 73.1786 29.9561 72.7176C30.1996 72.4942 30.3915 72.2155 30.5171 71.9027C30.6427 71.5898 30.6988 71.2511 30.6811 70.912C30.7003 70.5843 30.646 70.2563 30.5225 69.9546C30.399 69.6529 30.2098 69.3858 29.9701 69.1749C29.3822 68.7358 28.6685 68.5221 27.9485 68.5698H23.8868ZM23.8868 80.4325H28.0414C28.8743 80.4939 29.7001 80.2355 30.3651 79.7054C30.6228 79.4441 30.8278 79.131 30.9679 78.7848C31.1079 78.4385 31.1801 78.0662 31.1801 77.69C31.1801 77.3138 31.1079 76.9415 30.9679 76.5953C30.8278 76.249 30.6228 75.9359 30.3651 75.6747C29.7068 75.1288 28.8781 74.8608 28.0414 74.9232H23.8821L23.8868 80.4325Z"
          fill="white"/>
    <path d="M52 82H49.9289L46.1456 75.9841H42.841V82H41V67.0042H46.9511C48.155 66.9522 49.3327 67.3868 50.2464 68.22C50.6733 68.6302 51.0098 69.1351 51.2317 69.6989C51.4537 70.2627 51.5557 70.8715 51.5305 71.4819C51.581 72.5322 51.2604 73.5647 50.6314 74.3775C50.0023 75.1903 49.1102 75.7248 48.1293 75.8767L52 82ZM42.841 68.6302V74.358H46.6427C47.4516 74.4083 48.2495 74.1405 48.8841 73.606C49.1586 73.3377 49.3734 73.0078 49.5127 72.6404C49.652 72.273 49.7124 71.8772 49.6895 71.4819C49.7118 71.088 49.6502 70.6937 49.5091 70.3285C49.3681 69.9633 49.1513 69.6366 48.8749 69.3724C48.2342 68.844 47.4344 68.5803 46.6243 68.6302H42.841Z"
          fill="white"/>
    <path d="M59 67H68.8129V68.6265L59 68.7144V67ZM60.9185 73.467H68.2662V75.0935H60.9281V80.3735H69V82H59V73.4523L60.9185 73.467Z"
          fill="white"/>
    <path d="M78.9685 67V80.354H86V82H77V67H78.9685Z" fill="white"/>
    <path d="M94.9674 67V80.354H102V82H93V67H94.9674Z" fill="white"/>
    <path d="M117.168 76.5099L116.492 74.5562C115.578 71.9512 114.896 69.916 114.446 68.4507C114.131 69.4927 113.852 70.3865 113.609 71.1322L113.198 72.3679C113.037 72.8564 112.929 73.1885 112.872 73.3448L112.442 74.5903L111.771 76.5441L111.218 78.1755L109.89 82H108L113.255 67H115.726L121 82H119.063L117.716 78.1755L117.168 76.5099Z"
          fill="white"/>
    <defs>
        <linearGradient id="paint0_linear_44_892" x1="39.8725" y1="49.071" x2="65.9313" y2="4.48166"
                        gradientUnits="userSpaceOnUse">
            <stop stop-color="#0655A3"/>
            <stop offset="0.26" stop-color="#0759A6"/>
            <stop offset="0.53" stop-color="#0A66AF"/>
            <stop offset="0.81" stop-color="#0F7ABF"/>
            <stop offset="1" stop-color="#148DCD"/>
        </linearGradient>
    </defs>
</svg>
