<svg width="166" height="45" viewBox="0 0 166 45" fill="none" xmlns="http://www.w3.org/2000/svg">
<path d="M46 5.04061H53.5022C55.4085 5.04061 56.8023 5.54822 57.7042 6.42132C58.5856 7.17259 58.9751 8.18782 58.9751 9.18274C58.9751 9.56853 58.9751 10.0558 58.8521 10.4416C58.6061 11.0711 58.2167 11.7005 57.7042 12.2081C57.4583 12.4518 57.1918 12.5939 56.9458 12.7157C57.8272 12.9594 58.6061 13.467 59.2416 14.0964C59.754 14.7259 60 15.4772 60 16.6142C60 17.2437 59.877 17.9949 59.6105 18.5025C59.3646 19.0101 58.8521 19.5178 58.3397 19.8832C57.7042 20.269 57.0688 20.5127 56.4334 20.7563C55.675 21 54.7731 21 53.8917 21H46.123V5H46V5.04061ZM52.8668 11.5787C53.5022 11.5787 54.1376 11.4569 54.7731 11.1929C55.2855 10.9492 55.5315 10.4416 55.5315 9.93401C55.5315 9.4264 55.2855 8.91878 54.896 8.67513C54.3836 8.28934 53.7482 8.16751 53.1127 8.28934H49.5461V11.6802H52.8463V11.5787H52.8668ZM53.7482 18.0152C54.3836 18.0152 55.019 17.8934 55.6545 17.6294C56.1669 17.3858 56.4129 16.8782 56.2899 16.2487C56.2899 15.7411 56.0439 15.2335 55.6545 14.9898C55.265 14.7462 54.5066 14.4822 53.6252 14.4822H49.4231V18.0152H53.7482Z" fill="#F3BA2F"/>
<path d="M65 5H69V22H65V5Z" fill="#F3BA2F"/>
<path d="M74 5H77.4207L85.3244 15.4912V5H89V22H85.8555L77.5481 11.2305V22H74V5Z" fill="#F3BA2F"/>
<path d="M100.281 5H103.719L111 22H107.157L105.577 18.175H98.4235L96.8434 22H93L100.281 5ZM104.253 15.0088L102.011 9.48375L99.7687 15.0088H104.253Z" fill="#F3BA2F"/>
<path d="M114 5H117.416L125.308 15.4912V5H129V22H125.839L117.67 11.2305V22H114V5Z" fill="#F3BA2F"/>
<path d="M142.796 22C141.591 22 140.387 21.7506 139.333 21.3557C137.204 20.4621 135.591 18.9034 134.667 16.846C134.258 15.8068 134 14.6638 134 13.5C134 11.3178 134.925 9.11492 136.538 7.45233C137.333 6.68338 138.28 6.03912 139.333 5.64426C140.538 5.1247 141.742 5 142.925 5C143.591 5 144.387 5 145.054 5.1247C145.72 5.24939 146.258 5.37408 146.796 5.64426C147.333 5.89364 147.871 6.16382 148.258 6.41321C148.667 6.6626 149.183 7.05746 149.591 7.45233L147.333 10.154C146.667 9.63448 146 9.11491 145.333 8.74083C144.667 8.36675 143.871 8.22127 143.075 8.22127C142.409 8.22127 141.742 8.34596 141.075 8.61613C140.409 8.86552 139.871 9.26039 139.484 9.77995C139.097 10.2995 138.688 10.8191 138.409 11.4633C138.151 12.1076 138 12.7518 138 13.3961C138 14.0403 138.129 14.8093 138.409 15.4535C138.688 16.0978 138.946 16.6174 139.484 17.1369C140.409 18.176 141.742 18.6748 143.075 18.6748C143.871 18.6748 144.817 18.5501 145.613 18.1553C146.28 17.7604 147.075 17.2616 147.613 16.7421L150 19.0489C149.591 19.4438 149.075 19.9425 148.667 20.3374C148.129 20.7323 147.591 20.9817 147.075 21.231C146.538 21.4804 145.871 21.7506 145.204 21.8753C144.258 22 143.462 22 142.796 22Z" fill="#F3BA2F"/>
<path d="M153 5H165.87V8.31864H156.612V11.7657H164.789V15.0844H156.612V18.6814H166V22H153V5Z" fill="#F3BA2F"/>
<path d="M50.8273 38C49.9477 38 49.0477 37.8739 48.2909 37.4746C47.5341 37.2224 46.7773 36.697 46 36.0455L47.2682 34.6165C47.7795 35.1419 48.2909 35.394 48.925 35.7933C49.5591 36.0455 50.1932 36.1926 50.8273 36.1926C51.3386 36.1926 51.85 36.0666 52.3409 35.7933C52.7295 35.5412 52.8523 35.1419 52.8523 34.7426C52.8523 34.6165 52.8523 34.3433 52.7295 34.2172C52.6068 34.0911 52.4841 33.8179 52.3409 33.6918C52.0955 33.5657 51.8295 33.4396 51.5841 33.2925C51.1955 33.1664 50.7045 33.0403 50.3159 32.8932C49.8045 32.7671 49.1705 32.641 48.6591 32.3678C48.2705 32.2417 47.7795 31.9685 47.5136 31.7163C47.2682 31.4641 47.0023 31.1909 46.7568 30.8126C46.5114 30.2872 46.5114 29.7618 46.5114 29.3835C46.5114 28.8581 46.6341 28.4799 46.7568 27.9545C46.8795 27.5552 47.2682 27.1769 47.5136 26.9037C47.9023 26.6515 48.2705 26.3783 48.7818 26.2522C49.2932 26.1261 49.8045 26 50.2955 26C51.0523 26 51.8091 26.1261 52.5864 26.3993C53.2205 26.6515 53.8545 27.0508 54.4886 27.4501L53.4659 29.0053C52.9545 28.606 52.4432 28.3538 51.9523 28.1016C51.4409 27.8494 50.9295 27.8494 50.4386 27.8494C49.9273 27.8494 49.4159 27.9755 49.0477 28.2487C48.8023 28.5009 48.5364 28.9002 48.5364 29.2995C48.5364 29.5517 48.5364 29.6988 48.6591 29.951C48.7818 30.0771 48.9045 30.3503 49.0477 30.4764C49.2932 30.6024 49.5591 30.7285 49.9273 30.8757C50.3159 31.0018 50.6841 31.1278 51.3182 31.275C51.8295 31.4011 52.3409 31.5271 52.975 31.8004C53.3636 31.9264 53.7318 32.1997 54.1205 32.4518C54.3659 32.704 54.6318 33.1033 54.7545 33.3555C54.8773 33.7548 55 34.1331 55 34.6585C55 35.1839 54.8773 35.7093 54.7545 36.0876C54.5091 36.4869 54.2432 36.8651 53.875 37.2644C53.4864 37.5166 53.1182 37.7898 52.6068 37.9159C51.9727 37.8739 51.3386 38 50.8273 38Z" fill="#F3BA2F"/>
<path d="M57 27H59.3043L62.9348 32.5914L66.7174 27H69V39H66.8478V30.3333L63.0652 35.9247H62.9348L59.1739 30.3333V39H57V27Z" fill="#F3BA2F"/>
<path d="M76.0208 26H77.9583L83 38H80.8125L79.6458 35.0753H74.2292L73.0625 38H71L76.0208 26ZM79 33.3333L76.9375 28.5376L75 33.3333H79Z" fill="#F3BA2F"/>
<path d="M85.1258 27H90.3249C90.9748 27 91.6247 27.1277 92.2746 27.2553C92.7987 27.383 93.3228 27.7872 93.7002 28.1702C93.9518 28.4255 94.2243 28.8298 94.4759 29.3617C94.6017 29.766 94.7275 30.2766 94.7275 30.8085C94.7275 31.2128 94.6017 31.7234 94.4759 32.1277C94.3501 32.5319 94.0776 32.7872 93.9518 33.1915C93.7002 33.4468 93.4277 33.7234 93.0503 33.9787C92.652 34.234 92.2746 34.383 91.8763 34.5106L95 39H92.5262L89.675 34.9149H87.0755V39H85L85.1258 27ZM90.1992 32.8085C90.8491 32.8085 91.4989 32.6808 91.8973 32.2766C92.2956 31.8723 92.5472 31.3617 92.5472 30.8298C92.5472 30.2979 92.2956 29.766 91.8973 29.383C91.3732 28.9787 90.7233 28.8511 90.0734 28.8511H87.0755V32.8085H90.1992Z" fill="#F3BA2F"/>
<path d="M99.5762 28.871H96V27H105V28.871H101.424V39H99.457L99.5762 28.871Z" fill="#F3BA2F"/>
<path d="M118.066 38C117.268 38 116.471 37.8754 115.652 37.481C114.187 36.8374 112.981 35.7993 112.442 34.3875C112.183 33.6194 111.903 32.8512 112.033 32.0623C112.033 31.2941 112.162 30.526 112.442 29.737C112.981 28.3253 114.187 27.1626 115.652 26.519C116.45 26.2699 117.247 26 118.195 26C118.734 26 119.272 26 119.66 26.1246C120.07 26.2491 120.457 26.3737 120.867 26.519C121.276 26.6436 121.535 26.9135 121.944 27.0381C122.203 27.2872 122.612 27.5571 122.871 27.8062L121.535 29.3426C121.125 28.9481 120.608 28.5744 120.07 28.3045C119.531 28.0554 118.863 27.91 118.195 27.91C117.656 27.91 117.118 28.0346 116.601 28.1592C116.062 28.4083 115.674 28.6782 115.265 29.0519C114.855 29.4464 114.597 29.8201 114.467 30.3391C114.338 30.8581 114.209 31.3772 114.209 31.8754C114.209 32.3945 114.338 32.9135 114.467 33.4118C114.597 33.91 114.877 34.3045 115.265 34.699C115.674 35.0934 116.062 35.3426 116.601 35.5917C117.139 35.8408 117.678 35.9862 118.195 35.8408C118.863 35.8408 119.531 35.7163 120.07 35.4464C120.608 35.1972 121.147 34.8028 121.664 34.2837L123 35.5709C122.741 35.8201 122.332 36.2145 122.073 36.4637C121.664 36.7128 121.406 36.9827 120.996 37.1073C120.587 37.2318 120.199 37.5017 119.66 37.5017C119.122 38 118.583 38 118.066 38Z" fill="#F3BA2F"/>
<path d="M125 27H127.026V31.9247H132.843V27H135V39H132.843V33.9247H127.026V39H125V27Z" fill="#F3BA2F"/>
<path d="M142.021 26H143.958L149 38H146.813L145.646 35.0753H140.229L139.063 38H137L142.021 26ZM144.875 33.3333L142.937 28.5376L141 33.3333H144.875Z" fill="#F3BA2F"/>
<path d="M151 27H153V39H151V27Z" fill="#F3BA2F"/>
<path d="M156 27H157.798L163.955 35.2581V27H166V39H164.326L158.066 30.4624V39H156V27Z" fill="#F3BA2F"/>
<path d="M23.291 37.3679V42.4143L18.9381 45L14.709 42.4143V37.3679L18.9381 39.9537L23.291 37.3679ZM0 19.9143L4.2291 22.5V31.1538L11.5114 35.5538V40.6001L0 33.7396V19.9143ZM37.8762 19.9143V33.7604L26.241 40.6209V35.5746L33.5233 31.1747V22.5209L37.8762 19.9143ZM26.2204 13.0538L30.5733 15.6395V20.6858L23.291 25.0857V33.8647L19.0619 36.4504L14.8534 33.8647V25.0649L7.30293 20.665V15.6186L11.6558 13.0329L18.9381 17.4328L26.2204 13.0538ZM7.30293 24.2933L11.532 26.8791V31.9254L7.30293 29.3397V24.2933ZM30.5733 24.2933V29.3397L26.3442 31.9254V26.8791L30.5733 24.2933ZM4.2291 8.65385L8.58198 11.2396L4.2291 13.8253V18.8716L0 16.2859V11.2396L4.2291 8.65385ZM33.6471 8.65385L38 11.2396V16.2859L33.6471 18.8716V13.8253L29.418 11.2396L33.6471 8.65385ZM18.9381 8.65385L23.291 11.2396L18.9381 13.8253L14.709 11.2396L18.9381 8.65385ZM18.9381 0L30.5733 6.86052L26.3442 9.44624L19.0619 5.04634L11.6352 9.44624L7.40608 6.86052L18.9381 0Z" fill="#F3BA2F"/>
</svg>
