<svg width="51" height="59" viewBox="0 0 51 59" fill="none" xmlns="http://www.w3.org/2000/svg">
<path d="M48 0.5L1 12.5L18.5 57.5L49.5 38L48 0.5Z" fill="white"/>
<path d="M48.1797 0.894531L17.1797 20.8945L18.6797 57.3945L49.6797 37.8945L48.1797 0.894531Z" fill="#F8D448"/>
<path fill-rule="evenodd" clip-rule="evenodd" d="M2.10161 12.5647L17.1514 20.3177L45.7797 1.84453L2.10161 12.5647ZM48.6397 0.0045166L48.4506 1.31472L17.2076 21.4715L0.288059 12.7554L0 12.0446L48.6397 0.0045166Z" fill="#121212"/>
<path fill-rule="evenodd" clip-rule="evenodd" d="M0.741853 11.8638L17.668 20.5833L19.1799 57.374L18.2161 58.2845L0.00585938 12.0547L0.741853 11.8638ZM1.64197 13.4524L18.0897 55.2045L16.6927 21.2058L1.64197 13.4524Z" fill="#121212"/>
<path fill-rule="evenodd" clip-rule="evenodd" d="M48.6434 0L50.1906 38.1635L18.2151 58.2771L16.668 20.6293L48.6434 0ZM17.6906 21.1596L19.1434 56.5118L49.168 37.6254L47.7151 1.78896L17.6906 21.1596Z" fill="#121212"/>
</svg>
