<svg width="85" height="108" viewBox="0 0 85 108" fill="none" xmlns="http://www.w3.org/2000/svg">
<ellipse cx="41.5585" cy="102.824" rx="22.868" ry="4.5285" fill="#121212"/>
<circle cx="42.5" cy="43.083" r="40.5994" fill="white" stroke="#121212" stroke-width="3.80124"/>
<path d="M26.0337 49.8177L24.6424 48.3124C24.3003 48.4113 23.924 48.4607 23.5134 48.4607C22.776 48.4607 22.0956 48.2896 21.4722 47.9475C20.8564 47.5978 20.366 47.115 20.0011 46.4992C19.6438 45.8758 19.4651 45.1764 19.4651 44.401C19.4651 43.6255 19.6438 42.9299 20.0011 42.3141C20.366 41.6983 20.8564 41.2193 21.4722 40.8772C22.0956 40.5275 22.776 40.3526 23.5134 40.3526C24.2585 40.3526 24.9389 40.5275 25.5547 40.8772C26.1781 41.2193 26.6685 41.6983 27.0258 42.3141C27.3831 42.9299 27.5618 43.6255 27.5618 44.401C27.5618 45.1308 27.4021 45.7922 27.0828 46.3852C26.7711 46.9706 26.3378 47.442 25.7828 47.7993L27.6872 49.8177H26.0337ZM20.7994 44.401C20.7994 44.9864 20.9134 45.5033 21.1415 45.9519C21.3771 46.3928 21.7002 46.7349 22.1108 46.9782C22.5213 47.2139 22.9889 47.3317 23.5134 47.3317C24.038 47.3317 24.5056 47.2139 24.9161 46.9782C25.3266 46.7349 25.6459 46.3928 25.874 45.9519C26.1097 45.5033 26.2275 44.9864 26.2275 44.401C26.2275 43.8156 26.1097 43.3024 25.874 42.8615C25.6459 42.4205 25.3266 42.0822 24.9161 41.8465C24.5056 41.6109 24.038 41.493 23.5134 41.493C22.9889 41.493 22.5213 41.6109 22.1108 41.8465C21.7002 42.0822 21.3771 42.4205 21.1415 42.8615C20.9134 43.3024 20.7994 43.8156 20.7994 44.401ZM30.1631 40.4553V45.5071C30.1631 46.1077 30.3189 46.5601 30.6306 46.8642C30.9499 47.1683 31.3909 47.3203 31.9534 47.3203C32.5236 47.3203 32.9646 47.1683 33.2763 46.8642C33.5956 46.5601 33.7552 46.1077 33.7552 45.5071V40.4553H35.0553V45.4843C35.0553 46.1305 34.9146 46.6779 34.6333 47.1265C34.352 47.575 33.9757 47.9095 33.5043 48.13C33.033 48.3504 32.5122 48.4607 31.942 48.4607C31.3719 48.4607 30.8511 48.3504 30.3797 48.13C29.916 47.9095 29.5473 47.575 29.2736 47.1265C28.9999 46.6779 28.863 46.1305 28.863 45.4843V40.4553H30.1631ZM41.5261 46.7615H38.2076L37.6374 48.3809H36.2803L39.1199 40.4439H40.6252L43.4647 48.3809H42.0962L41.5261 46.7615ZM41.1611 45.701L39.8725 42.0176L38.5725 45.701H41.1611ZM51.2108 48.3809H49.9108L45.9993 42.4623V48.3809H44.6993V40.4439H45.9993L49.9108 46.351V40.4439H51.2108V48.3809ZM58.0383 40.4553V41.5158H55.9286V48.3809H54.6286V41.5158H52.5075V40.4553H58.0383ZM62.9699 48.4607C62.2324 48.4607 61.552 48.2896 60.9286 47.9475C60.3128 47.5978 59.8224 47.115 59.4575 46.4992C59.1002 45.8758 58.9215 45.1764 58.9215 44.401C58.9215 43.6255 59.1002 42.9299 59.4575 42.3141C59.8224 41.6983 60.3128 41.2193 60.9286 40.8772C61.552 40.5275 62.2324 40.3526 62.9699 40.3526C63.7149 40.3526 64.3953 40.5275 65.0111 40.8772C65.6345 41.2193 66.1249 41.6983 66.4822 42.3141C66.8395 42.9299 67.0182 43.6255 67.0182 44.401C67.0182 45.1764 66.8395 45.8758 66.4822 46.4992C66.1249 47.115 65.6345 47.5978 65.0111 47.9475C64.3953 48.2896 63.7149 48.4607 62.9699 48.4607ZM62.9699 47.3317C63.4944 47.3317 63.962 47.2139 64.3725 46.9782C64.7831 46.7349 65.1024 46.3928 65.3304 45.9519C65.5661 45.5033 65.6839 44.9864 65.6839 44.401C65.6839 43.8156 65.5661 43.3024 65.3304 42.8615C65.1024 42.4205 64.7831 42.0822 64.3725 41.8465C63.962 41.6109 63.4944 41.493 62.9699 41.493C62.4453 41.493 61.9777 41.6109 61.5672 41.8465C61.1567 42.0822 60.8336 42.4205 60.5979 42.8615C60.3698 43.3024 60.2558 43.8156 60.2558 44.401C60.2558 44.9864 60.3698 45.5033 60.5979 45.9519C60.8336 46.3928 61.1567 46.7349 61.5672 46.9782C61.9777 47.2139 62.4453 47.3317 62.9699 47.3317Z" fill="#121212"/>
</svg>
