<svg width="37" height="37" viewBox="0 0 37 37" fill="none" xmlns="http://www.w3.org/2000/svg">
<path fill-rule="evenodd" clip-rule="evenodd" d="M24.6489 14.0998C25.3306 13.6983 25.8538 13.0616 26.0993 12.3031C25.4609 12.6759 24.7556 12.9454 24.003 13.0913C23.4025 12.4593 22.5442 12.0652 21.5943 12.0652C19.7719 12.0652 18.2951 13.5198 18.2951 15.3137C18.2951 15.5684 18.3225 15.8166 18.3792 16.0536C15.6371 15.9179 13.2057 14.6259 11.5769 12.6591C11.2927 13.1406 11.1303 13.6983 11.1303 14.2931C11.1303 15.4197 11.7129 16.4142 12.5986 16.9979C12.0575 16.9812 11.5486 16.8334 11.1029 16.5917V16.6317C11.1029 18.2063 12.2397 19.5196 13.7515 19.817C13.4739 19.8933 13.183 19.9314 12.8809 19.9314C12.6684 19.9314 12.4607 19.9118 12.2605 19.8737C12.6798 21.1639 13.8988 22.1045 15.3435 22.1296C14.2132 23.0014 12.7902 23.5201 11.2445 23.5201C10.9782 23.5201 10.7148 23.5061 10.457 23.4755C11.9178 24.3966 13.6523 24.9348 15.5163 24.9348C21.5877 24.9348 24.9057 19.9843 24.9057 15.6911C24.9057 15.5498 24.9038 15.4095 24.8972 15.271C25.5422 14.8127 26.103 14.2402 26.544 13.5886C25.952 13.847 25.3155 14.0217 24.6489 14.0998Z" fill="#1B1A1F"/>
<circle cx="18.5" cy="18.5" r="17.5" stroke="#1B1A1F" stroke-width="2"/>
</svg>
