<svg width="81" height="113" viewBox="0 0 81 113" fill="none" xmlns="http://www.w3.org/2000/svg">
<ellipse cx="40.2278" cy="107.809" rx="24.0638" ry="4.76529" fill="#121212"/>
<circle cx="40.221" cy="40.1116" r="38.1116" fill="white" stroke="#121212" stroke-width="4"/>
<path d="M32.3288 26.8281C32.7768 26.9081 33.1568 27.1441 33.4688 27.5361C33.7808 27.9281 33.9368 28.3721 33.9368 28.8681C33.9368 29.2921 33.8248 29.6761 33.6008 30.0201C33.3848 30.3561 33.0688 30.6241 32.6528 30.8241C32.2368 31.0161 31.7528 31.1121 31.2008 31.1121H27.8648V22.7721H31.0448C31.6128 22.7721 32.1008 22.8681 32.5088 23.0601C32.9168 23.2521 33.2248 23.5121 33.4328 23.8401C33.6408 24.1601 33.7448 24.5201 33.7448 24.9201C33.7448 25.4001 33.6168 25.8001 33.3608 26.1201C33.1048 26.4401 32.7608 26.6761 32.3288 26.8281ZM29.2328 26.2761H30.9248C31.3728 26.2761 31.7208 26.1761 31.9688 25.9761C32.2248 25.7681 32.3528 25.4721 32.3528 25.0881C32.3528 24.7121 32.2248 24.4201 31.9688 24.2121C31.7208 23.9961 31.3728 23.8881 30.9248 23.8881H29.2328V26.2761ZM31.0808 29.9961C31.5448 29.9961 31.9088 29.8841 32.1728 29.6601C32.4368 29.4361 32.5688 29.1241 32.5688 28.7241C32.5688 28.3161 32.4288 27.9921 32.1488 27.7521C31.8688 27.5121 31.4968 27.3921 31.0328 27.3921H29.2328V29.9961H31.0808ZM36.7794 22.7721V28.0881C36.7794 28.7201 36.9434 29.1961 37.2714 29.5161C37.6074 29.8361 38.0714 29.9961 38.6634 29.9961C39.2634 29.9961 39.7274 29.8361 40.0554 29.5161C40.3914 29.1961 40.5594 28.7201 40.5594 28.0881V22.7721H41.9274V28.0641C41.9274 28.7441 41.7794 29.3201 41.4834 29.7921C41.1874 30.2641 40.7914 30.6161 40.2954 30.8481C39.7994 31.0801 39.2514 31.1961 38.6514 31.1961C38.0514 31.1961 37.5034 31.0801 37.0074 30.8481C36.5194 30.6161 36.1314 30.2641 35.8434 29.7921C35.5554 29.3201 35.4114 28.7441 35.4114 28.0641V22.7721H36.7794ZM45.0766 30.0081H47.8966V31.1121H43.7086V22.7721H45.0766V30.0081ZM50.4086 30.0081H53.2286V31.1121H49.0406V22.7721H50.4086V30.0081ZM42.9983 45.1121L41.9663 44.0801C41.5663 44.4801 41.1303 44.7801 40.6583 44.9801C40.1863 45.1721 39.6583 45.2681 39.0743 45.2681C38.4823 45.2681 37.9583 45.1641 37.5023 44.9561C37.0463 44.7481 36.6943 44.4521 36.4463 44.0681C36.1983 43.6761 36.0743 43.2241 36.0743 42.7121C36.0743 42.1361 36.2383 41.6241 36.5663 41.1761C36.8943 40.7201 37.3823 40.3601 38.0303 40.0961C37.7983 39.8161 37.6343 39.5561 37.5383 39.3161C37.4423 39.0681 37.3943 38.7961 37.3943 38.5001C37.3943 38.1321 37.4863 37.8041 37.6703 37.5161C37.8623 37.2281 38.1343 37.0001 38.4863 36.8321C38.8383 36.6641 39.2463 36.5801 39.7103 36.5801C40.1823 36.5801 40.5823 36.6721 40.9103 36.8561C41.2463 37.0321 41.4943 37.2761 41.6543 37.5881C41.8223 37.9001 41.8903 38.2481 41.8583 38.6321H40.4903C40.4983 38.3361 40.4263 38.1081 40.2743 37.9481C40.1223 37.7801 39.9143 37.6961 39.6503 37.6961C39.3863 37.6961 39.1703 37.7761 39.0023 37.9361C38.8423 38.0881 38.7623 38.2761 38.7623 38.5001C38.7623 38.7161 38.8223 38.9321 38.9423 39.1481C39.0703 39.3561 39.2903 39.6281 39.6023 39.9641L41.8103 42.1601L42.6623 40.7561H44.1383L43.0583 42.6041L42.7583 43.0961L44.7863 45.1121H42.9983ZM39.0743 44.1041C39.8263 44.1041 40.4903 43.7961 41.0663 43.1801L38.8583 40.9601C37.9143 41.3361 37.4423 41.9041 37.4423 42.6641C37.4423 43.0721 37.5943 43.4161 37.8983 43.6961C38.2023 43.9681 38.5943 44.1041 39.0743 44.1041ZM30.6824 54.8281C31.1304 54.9081 31.5104 55.1441 31.8224 55.5361C32.1344 55.9281 32.2904 56.3721 32.2904 56.8681C32.2904 57.2921 32.1784 57.6761 31.9544 58.0201C31.7384 58.3561 31.4224 58.6241 31.0064 58.8241C30.5904 59.0161 30.1064 59.1121 29.5544 59.1121H26.2184V50.7721H29.3984C29.9664 50.7721 30.4544 50.8681 30.8624 51.0601C31.2704 51.2521 31.5784 51.5121 31.7864 51.8401C31.9944 52.1601 32.0984 52.5201 32.0984 52.9201C32.0984 53.4001 31.9704 53.8001 31.7144 54.1201C31.4584 54.4401 31.1144 54.6761 30.6824 54.8281ZM27.5864 54.2761H29.2784C29.7264 54.2761 30.0744 54.1761 30.3224 53.9761C30.5784 53.7681 30.7064 53.4721 30.7064 53.0881C30.7064 52.7121 30.5784 52.4201 30.3224 52.2121C30.0744 51.9961 29.7264 51.8881 29.2784 51.8881H27.5864V54.2761ZM29.4344 57.9961C29.8984 57.9961 30.2624 57.8841 30.5264 57.6601C30.7904 57.4361 30.9224 57.1241 30.9224 56.7241C30.9224 56.3161 30.7824 55.9921 30.5024 55.7521C30.2224 55.5121 29.8504 55.3921 29.3864 55.3921H27.5864V57.9961H29.4344ZM35.145 51.8761V54.3241H38.025V55.4401H35.145V57.9961H38.385V59.1121H33.777V50.7601H38.385V51.8761H35.145ZM45.0979 57.4081H41.6059L41.0059 59.1121H39.5779L42.5659 50.7601H44.1499L47.1379 59.1121H45.6979L45.0979 57.4081ZM44.7139 56.2921L43.3579 52.4161L41.9899 56.2921H44.7139ZM52.7691 59.1121L50.8491 55.7761H49.8051V59.1121H48.4371V50.7721H51.3171C51.9571 50.7721 52.4971 50.8841 52.9371 51.1081C53.3851 51.3321 53.7171 51.6321 53.9331 52.0081C54.1571 52.3841 54.2691 52.8041 54.2691 53.2681C54.2691 53.8121 54.1091 54.3081 53.7891 54.7561C53.4771 55.1961 52.9931 55.4961 52.3371 55.6561L54.4011 59.1121H52.7691ZM49.8051 54.6841H51.3171C51.8291 54.6841 52.2131 54.5561 52.4691 54.3001C52.7331 54.0441 52.8651 53.7001 52.8651 53.2681C52.8651 52.8361 52.7371 52.5001 52.4811 52.2601C52.2251 52.0121 51.8371 51.8881 51.3171 51.8881H49.8051V54.6841Z" fill="#121212"/>
</svg>
