<svg width="156" height="247" viewBox="0 0 156 247" fill="none" xmlns="http://www.w3.org/2000/svg">
<path d="M154.461 6.98608L131.244 9.15974L131.675 245.77L138.834 246.061L146.16 244.458L152.091 241.316L154.461 238.215V6.98608Z" fill="white"/>
<ellipse cx="134.012" cy="6.69505" rx="20.3458" ry="6.69505" fill="white"/>
<path fill-rule="evenodd" clip-rule="evenodd" d="M126.19 0.513697C120.589 1.1256 116.316 2.62941 114.59 4.59568L113.455 5.88847V110.398V214.907L103.72 213.475C98.3661 212.688 89.1455 211.291 83.2304 210.37C56.7682 206.25 18.7498 201.146 15.2103 201.238C12.9708 201.295 9.49327 202.729 7.49771 204.417C6.00132 205.682 2.16151 210.691 1.11422 212.744C-0.641775 216.186 -0.244591 225.277 1.76061 227.552C2.67106 228.584 3.1947 228.761 7.94719 229.645C16.5666 231.247 25.7537 232.699 40.7677 234.833C54.0832 236.725 62.6577 237.859 106.965 243.586C116.348 244.799 125.526 246.033 127.362 246.33C129.198 246.626 133.133 246.879 136.107 246.893L141.514 246.917L145.68 245.264C150.321 243.422 151.742 242.637 153.209 241.102C155.362 238.851 155.251 242.16 155.151 183.13C155.101 153.249 155.044 101.12 155.025 67.2877L154.991 5.77536L153.595 4.3791C151.82 2.60531 147.785 1.27432 141.802 0.489962C136.764 -0.170528 132.389 -0.163852 126.19 0.513697ZM136.726 0.916443C137.98 1.05218 138.302 1.23389 138.302 1.80575C138.302 2.20145 138.469 2.52483 138.673 2.52483C138.877 2.52483 139.044 2.35795 139.044 2.15398C139.044 1.95001 139.364 1.78313 139.755 1.78313C140.146 1.78313 140.55 1.57471 140.654 1.31956C140.796 0.967621 140.917 0.961316 141.153 1.29286C141.325 1.53317 141.713 1.71563 142.016 1.6982C142.319 1.6804 143.276 1.69264 144.143 1.72453C145.453 1.77311 145.719 1.90848 145.719 2.52483C145.719 2.93277 145.886 3.26654 146.09 3.26654C146.294 3.26654 146.461 3.60031 146.461 4.00825C146.461 4.49184 146.214 4.74995 145.75 4.74995C145.359 4.74995 144.942 4.95837 144.823 5.21352C144.65 5.58437 144.563 5.58437 144.39 5.21352C144.271 4.95837 143.854 4.74995 143.463 4.74995C142.921 4.74995 142.752 4.48665 142.752 3.63739C142.752 3.02549 142.585 2.52483 142.382 2.52483C142.178 2.52483 142.011 2.69172 142.011 2.89569C142.011 3.09966 141.677 3.26654 141.269 3.26654C140.861 3.26654 140.527 3.43342 140.527 3.63739C140.527 4.38355 139.314 3.97932 138.302 2.89569C137.29 1.81205 136.077 1.40782 136.077 2.15398C136.077 2.35795 135.743 2.52483 135.335 2.52483C134.927 2.52483 134.594 2.69172 134.594 2.89569C134.594 3.09966 134.093 3.26654 133.481 3.26654C132.869 3.26654 132.368 3.09966 132.368 2.89569C132.368 2.69172 132.702 2.52483 133.11 2.52483C133.605 2.52483 133.852 2.27747 133.852 1.78313C133.852 1.37519 133.685 1.04142 133.481 1.04142C133.277 1.04142 133.11 1.2083 133.11 1.41227C133.11 1.61624 132.902 1.78832 132.647 1.79499C132.392 1.8013 131.871 2.04347 131.489 2.33236C130.862 2.80742 130.85 2.91386 131.37 3.43305C131.686 3.74939 132.36 4.00825 132.867 4.00825C133.375 4.00825 133.875 4.21667 133.978 4.47181C134.12 4.82264 134.258 4.80261 134.545 4.38985C134.753 4.08983 135.053 3.97376 135.212 4.13174C135.37 4.2901 135.254 4.59012 134.954 4.79853C134.541 5.0852 134.521 5.22316 134.872 5.3652C135.127 5.46867 135.335 5.87327 135.335 6.26415C135.335 6.72771 135.593 6.97507 136.077 6.97507C136.571 6.97507 136.819 7.22243 136.819 7.71678C136.819 8.12472 136.986 8.45849 137.19 8.45849C137.394 8.45849 137.56 9.12602 137.56 9.9419C137.56 11.343 137.498 11.4253 136.448 11.4253C135.15 11.4253 134.95 12.0398 136.17 12.2794C136.629 12.3699 135.447 12.4396 133.544 12.4348C130.885 12.4277 129.948 12.2894 129.495 11.8362C129.06 11.4016 128.865 11.3675 128.752 11.7068C128.586 12.203 127.177 12.3562 127.177 11.8781C127.177 11.719 127.51 11.3485 127.918 11.0545C128.344 10.7474 128.66 10.0943 128.66 9.52024C128.66 8.97026 128.869 8.43549 129.124 8.33202C129.474 8.18999 129.454 8.05203 129.042 7.76536C128.742 7.55694 128.625 7.25692 128.783 7.09857C128.942 6.94058 129.242 7.05666 129.45 7.35668C129.737 7.76944 129.875 7.78947 130.017 7.43864C130.239 6.89052 132.368 6.80633 132.368 7.34593C132.368 7.54989 132.702 7.71678 133.11 7.71678C133.728 7.71678 133.852 7.96414 133.852 9.20019C133.852 10.6013 133.914 10.6836 134.964 10.6836C135.576 10.6836 136.077 10.5167 136.077 10.3128C136.077 10.1088 135.743 9.9419 135.335 9.9419C134.717 9.9419 134.594 9.69454 134.594 8.45849C134.594 7.0574 134.532 6.97507 133.481 6.97507C132.492 6.97507 132.368 6.85158 132.368 5.86251C132.368 5.25061 132.202 4.74995 131.998 4.74995C131.794 4.74995 131.627 5.08372 131.627 5.49166C131.627 6.31273 131.053 6.4963 130.759 5.7698C130.617 5.41897 130.479 5.439 130.192 5.85176C129.984 6.15178 129.694 6.27787 129.548 6.13212C129.402 5.98638 129.67 5.53134 130.143 5.12081C130.617 4.71027 130.871 4.25041 130.708 4.09874C130.546 3.94706 130.338 4.03161 130.247 4.28639C130.156 4.54116 129.762 4.74995 129.371 4.74995C128.907 4.74995 128.66 5.00807 128.66 5.49166C128.66 5.8996 128.493 6.23337 128.289 6.23337C128.085 6.23337 127.918 5.8996 127.918 5.49166C127.918 4.99731 127.671 4.74995 127.177 4.74995C126.682 4.74995 126.435 4.99731 126.435 5.49166C126.435 5.8996 126.602 6.23337 126.806 6.23337C127.342 6.23337 127.262 7.61999 126.713 7.84324C126.362 7.98528 126.382 8.12323 126.795 8.4099C127.095 8.61832 127.228 8.90128 127.091 9.03887C126.953 9.17609 126.556 9.00327 126.207 8.6543C125.67 8.11767 125.653 7.96414 126.097 7.65485C126.498 7.37448 126.512 7.2458 126.157 7.10153C125.897 6.99584 125.693 6.27527 125.693 5.46088C125.693 4.10319 125.764 4.00825 126.775 4.00825C127.37 4.00825 127.925 4.21222 128.008 4.46143C128.104 4.74958 128.527 4.54598 129.172 3.90033C130.104 2.96912 130.138 2.83746 129.591 2.29045C129.263 1.96299 128.883 1.80723 128.746 1.94445C128.608 2.08203 128.737 2.34312 129.031 2.52483C129.325 2.70655 129.436 2.98469 129.278 3.14305C129.12 3.30103 128.82 3.18495 128.611 2.88493C128.325 2.47217 128.187 2.45215 128.045 2.80297C127.941 3.05812 127.383 3.26654 126.806 3.26654C126.228 3.26654 125.67 3.47533 125.567 3.73011C125.425 4.08093 125.287 4.06091 125 3.64815C124.792 3.34813 124.487 3.24577 124.322 3.42082C124.159 3.59586 124.233 3.81355 124.488 3.90441C125.086 4.11802 125.098 6.86419 124.502 7.06296C123.922 7.25655 126.578 9.9419 127.35 9.9419C127.662 9.9419 127.918 10.1088 127.918 10.3128C127.918 10.5167 127.429 10.6836 126.832 10.6836C125.995 10.6836 125.711 10.8757 125.599 11.518C125.465 12.282 125.427 12.2946 125.148 11.666C124.949 11.2173 125.011 10.8757 125.328 10.6799C125.718 10.4392 125.697 10.2634 125.224 9.79022C124.444 9.01106 124.21 9.04592 124.21 9.9419C124.21 10.3498 124.043 10.6836 123.839 10.6836C123.635 10.6836 123.468 10.3498 123.468 9.9419C123.468 9.44755 123.221 9.20019 122.726 9.20019C122.318 9.20019 121.985 9.36708 121.985 9.57104C121.985 9.77501 121.651 9.9419 121.243 9.9419C120.835 9.9419 120.501 9.77501 120.501 9.57104C120.501 9.36708 120.668 9.20019 120.872 9.20019C121.076 9.20019 121.243 8.36577 121.243 7.34593C121.243 6.32608 121.076 5.49166 120.872 5.49166C120.668 5.49166 120.501 5.99231 120.501 6.60422C120.501 7.46942 120.337 7.71678 119.759 7.71678C119.182 7.71678 119.018 7.96414 119.018 8.82934C119.018 9.44125 118.851 9.9419 118.647 9.9419C118.443 9.9419 118.276 9.60813 118.276 9.20019C118.276 8.79225 118.109 8.45849 117.905 8.45849C117.701 8.45849 117.534 8.12472 117.534 7.71678C117.534 7.30884 117.367 6.97507 117.163 6.97507C116.96 6.97507 116.793 6.80819 116.793 6.60422C116.793 6.40025 117.293 6.23337 117.905 6.23337C118.67 6.23337 119.018 6.05091 119.018 5.65076C119.018 4.77517 119.958 4.00825 121.031 4.00825C121.555 4.00825 121.985 3.84136 121.985 3.63739C121.985 3.43342 121.637 3.26654 121.212 3.26654C120.759 3.26654 120.503 3.07481 120.594 2.80297C120.82 2.12357 121.985 1.99711 121.985 2.65204C121.985 2.95614 122.193 3.30214 122.448 3.42119C122.819 3.594 122.819 3.68078 122.448 3.8536C122.193 3.97265 121.985 4.7099 121.985 5.49166C121.985 6.28121 122.191 6.99695 122.448 7.10153C122.799 7.24357 122.779 7.38153 122.366 7.6682C122.066 7.87662 121.933 8.15958 122.07 8.29716C122.208 8.43438 122.619 8.24821 122.983 7.88329C123.457 7.40971 123.515 7.17607 123.187 7.06667C122.454 6.82265 122.653 6.23337 123.468 6.23337C123.876 6.23337 124.21 6.06648 124.21 5.86251C124.21 5.65854 124.043 5.49166 123.839 5.49166C123.635 5.49166 123.468 4.83822 123.468 4.03903C123.468 3.21277 123.268 2.51519 123.004 2.42099C122.75 2.33014 122.675 2.11244 122.839 1.9374C123.003 1.76236 123.289 1.86397 123.474 2.16288C123.758 2.62237 123.896 2.59196 124.369 1.9667C124.868 1.30584 124.929 1.2962 124.94 1.87584C124.956 2.79778 125.555 2.68022 125.882 1.69041L126.158 0.855994L126.322 1.69041C126.425 2.21072 126.756 2.52483 127.202 2.52483C128 2.52483 128.176 1.93666 127.455 1.67929C127.2 1.58843 127.125 1.37074 127.289 1.1957C127.454 1.02065 127.745 1.12301 127.938 1.42303C128.246 1.9018 128.338 1.90069 128.688 1.41227C128.989 0.993581 129.134 0.970588 129.275 1.31956C129.491 1.85173 131.627 1.95965 131.627 1.43823C131.627 0.864524 133.998 0.621986 136.726 0.916443ZM134.594 1.41227C134.594 1.61624 134.927 1.78313 135.335 1.78313C135.743 1.78313 136.077 1.61624 136.077 1.41227C136.077 1.2083 135.743 1.04142 135.335 1.04142C134.927 1.04142 134.594 1.2083 134.594 1.41227ZM140.527 2.15398C140.527 2.35795 140.694 2.52483 140.898 2.52483C141.102 2.52483 141.269 2.35795 141.269 2.15398C141.269 1.95001 141.102 1.78313 140.898 1.78313C140.694 1.78313 140.527 1.95001 140.527 2.15398ZM143.494 3.26654C143.494 3.67448 143.661 4.00825 143.865 4.00825C144.069 4.00825 144.236 3.67448 144.236 3.26654C144.236 2.8586 144.069 2.52483 143.865 2.52483C143.661 2.52483 143.494 2.8586 143.494 3.26654ZM149.428 3.26654C149.428 4.09095 149.988 4.26488 150.324 3.54468C150.497 3.17383 150.584 3.17383 150.757 3.54468C150.876 3.79983 151.269 4.00825 151.63 4.00825C152.304 4.00825 154.253 6.06648 154.243 6.76851C154.24 6.98397 154.086 6.92056 153.9 6.62758C153.627 6.19628 153.353 6.31977 152.459 7.27658C151.172 8.6543 150.911 8.72884 150.911 7.71678C150.911 7.30884 151.078 6.97507 151.282 6.97507C151.486 6.97507 151.653 6.80819 151.653 6.60422C151.653 6.40025 151.319 6.23337 150.911 6.23337C150.093 6.23337 149.901 5.64927 150.633 5.38782C150.903 5.29177 150.959 5.08483 150.768 4.89347C150.576 4.70211 150.369 4.75848 150.273 5.02809C150.182 5.28324 149.802 5.49166 149.428 5.49166C149.054 5.49166 148.673 5.28324 148.582 5.02809C148.491 4.77332 148.291 4.68172 148.136 4.82487C147.761 5.17347 148.853 6.23337 149.587 6.23337C150.274 6.23337 150.37 6.84639 149.716 7.06445C149.431 7.15939 149.661 7.61331 150.338 8.28975C151.015 8.96655 151.469 9.19685 151.563 8.91167C151.647 8.66245 152.021 8.45849 152.395 8.45849C152.768 8.45849 153.149 8.24969 153.24 7.99492C153.331 7.74014 153.531 7.6478 153.685 7.79058C153.838 7.93299 153.151 8.56603 152.159 9.1976L150.355 10.3454L150.238 9.40194C150.157 8.75702 149.893 8.45849 149.403 8.45849C148.594 8.45849 148.384 9.77242 149.15 10.0457C149.419 10.1418 149.476 10.3487 149.284 10.5401C149.093 10.7314 148.886 10.6751 148.79 10.4055C148.552 9.73867 147.944 9.83398 147.944 10.5379C147.944 10.9421 147.745 11.0574 147.325 10.8961C146.984 10.7656 146.576 10.8679 146.418 11.1238C146.26 11.3797 145.996 11.4461 145.832 11.271C145.668 11.096 145.743 10.8783 145.997 10.7874C146.748 10.5193 146.528 9.9419 145.676 9.9419C145.039 9.9419 144.924 10.1162 145.068 10.869C145.187 11.4906 145.079 11.7962 144.741 11.7962C144.463 11.7962 144.236 11.5458 144.236 11.2399C144.236 10.931 143.906 10.6836 143.494 10.6836C143.086 10.6836 142.752 10.8505 142.752 11.0545C142.752 11.2584 142.929 11.4253 143.145 11.4253C143.361 11.4253 143.424 11.61 143.284 11.8358C143.107 12.1221 142.932 12.094 142.706 11.7431C142.437 11.3259 142.318 11.3348 142.011 11.7962C141.681 12.2905 141.599 12.2905 141.269 11.7962C140.962 11.3348 140.843 11.3259 140.574 11.7431C140.347 12.094 140.172 12.1221 139.995 11.8358C139.856 11.61 139.418 11.4253 139.022 11.4253C138.474 11.4253 138.302 11.1672 138.302 10.3435C138.302 9.74868 138.511 9.16459 138.766 9.04555C139.137 8.87273 139.137 8.78595 138.766 8.61313C138.511 8.49409 138.302 8.11359 138.302 7.76759C138.302 7.42195 137.968 6.89831 137.56 6.60422C136.894 6.12396 136.502 4.74995 137.03 4.74995C137.4 4.74995 138.302 5.79279 138.302 6.21927C138.302 6.83674 140.791 9.20019 141.442 9.20019C141.755 9.20019 142.011 9.36708 142.011 9.57104C142.011 9.77501 141.844 9.9419 141.64 9.9419C141.436 9.9419 141.269 10.1088 141.269 10.3128C141.269 11.0589 142.482 10.6547 143.494 9.57104C144.724 8.25452 145.216 8.19184 146.121 9.23542L146.795 10.0127L147.794 9.01291C148.6 8.20705 148.694 7.94819 148.277 7.67932C147.834 7.39451 147.835 7.29697 148.283 7.00882C148.726 6.72363 148.711 6.57641 148.19 6.05499C147.642 5.50724 147.512 5.50056 147.017 5.99491C146.711 6.30086 146.461 6.81338 146.461 7.13417C146.461 7.58624 146.045 7.71678 144.607 7.71678C143.587 7.71678 142.752 7.88366 142.752 8.08763C142.752 8.65059 140.917 8.5308 140.315 7.92854C139.603 7.21576 139.648 6.97507 140.496 6.97507C140.887 6.97507 141.276 7.18201 141.361 7.4353C141.565 8.04795 142.752 6.88681 142.752 6.07427C142.752 5.75385 142.919 5.49166 143.123 5.49166C143.327 5.49166 143.494 5.82543 143.494 6.23337C143.494 7.05777 144.054 7.2317 144.39 6.51151C144.563 6.14065 144.65 6.14065 144.823 6.51151C145.159 7.2317 145.719 7.05777 145.719 6.23337C145.719 5.80614 145.967 5.49166 146.302 5.49166C146.623 5.49166 147.15 5.22613 147.475 4.90163C147.946 4.43065 147.967 4.2519 147.582 4.01381C147.19 3.77127 147.196 3.60735 147.615 3.13452C148.36 2.29268 149.428 2.37056 149.428 3.26654ZM119.35 3.23502C119.768 3.49907 119.681 3.74976 118.904 4.52707C117.718 5.71269 116.051 5.84286 116.051 4.74995C116.051 3.92221 117.366 3.68746 117.626 4.46848C117.735 4.7952 117.977 4.73141 118.459 4.2493C119.027 3.68078 119.053 3.51612 118.614 3.23873C118.326 3.05627 118.258 2.90718 118.461 2.90718C118.665 2.90718 119.065 3.05441 119.35 3.23502ZM136.819 3.63739C136.819 3.84136 136.652 4.00825 136.448 4.00825C136.244 4.00825 136.077 3.84136 136.077 3.63739C136.077 3.43342 136.244 3.26654 136.448 3.26654C136.652 3.26654 136.819 3.43342 136.819 3.63739ZM147.944 3.63739C147.944 3.84136 148.111 4.00825 148.315 4.00825C148.519 4.00825 148.686 3.84136 148.686 3.63739C148.686 3.43342 148.519 3.26654 148.315 3.26654C148.111 3.26654 147.944 3.43342 147.944 3.63739ZM133.11 5.49166C133.11 5.8996 133.277 6.23337 133.481 6.23337C133.685 6.23337 133.852 5.8996 133.852 5.49166C133.852 5.08372 133.685 4.74995 133.481 4.74995C133.277 4.74995 133.11 5.08372 133.11 5.49166ZM139.786 5.12081C139.786 5.32478 140.119 5.49166 140.527 5.49166C140.935 5.49166 141.269 5.32478 141.269 5.12081C141.269 4.91684 141.436 4.74995 141.64 4.74995C141.844 4.74995 142.011 5.25061 142.011 5.86251C142.011 6.47442 141.844 6.97507 141.64 6.97507C141.436 6.97507 141.269 6.80819 141.269 6.60422C141.269 6.40025 140.935 6.23337 140.527 6.23337C140.119 6.23337 139.786 6.40025 139.786 6.60422C139.786 6.80819 139.619 6.97507 139.415 6.97507C139.211 6.97507 139.044 6.47442 139.044 5.86251C139.044 5.25061 139.211 4.74995 139.415 4.74995C139.619 4.74995 139.786 4.91684 139.786 5.12081ZM151.653 5.12081C151.653 5.32478 151.82 5.49166 152.024 5.49166C152.228 5.49166 152.395 5.32478 152.395 5.12081C152.395 4.91684 152.228 4.74995 152.024 4.74995C151.82 4.74995 151.653 4.91684 151.653 5.12081ZM116.147 7.429C116.568 7.79392 116.779 8.21632 116.616 8.368C116.453 8.51968 116.246 8.43549 116.155 8.18035C116.064 7.92557 115.664 7.71678 115.267 7.71678C114.309 7.71678 114.025 6.86715 114.624 5.79873L115.107 4.93538L115.245 5.85065C115.32 6.35389 115.726 7.06408 116.147 7.429ZM125.693 7.34593C125.693 7.54989 125.526 7.71678 125.322 7.71678C125.118 7.71678 124.951 7.54989 124.951 7.34593C124.951 7.14196 125.118 6.97507 125.322 6.97507C125.526 6.97507 125.693 7.14196 125.693 7.34593ZM129.865 8.27158C129.239 8.98324 129.278 10.984 129.932 11.6371C130.539 12.2449 131.627 12.3469 131.627 11.7962C131.627 11.5922 131.293 11.4253 130.885 11.4253C130.052 11.4253 129.829 10.1314 130.607 9.81544C130.958 9.6734 130.938 9.53544 130.525 9.24877C130.225 9.04035 130.123 8.73551 130.298 8.57123C130.473 8.40731 130.69 8.48185 130.781 8.73663C130.872 8.99177 131.267 9.20019 131.658 9.20019C132.048 9.20019 132.368 9.36708 132.368 9.57104C132.368 9.77501 132.035 9.9419 131.627 9.9419C131.219 9.9419 130.885 10.1088 130.885 10.3128C130.885 10.5167 131.386 10.6836 131.998 10.6836C132.863 10.6836 133.11 10.8483 133.11 11.4253C133.11 11.9197 133.358 12.167 133.852 12.167C134.26 12.167 134.594 12.0368 134.594 11.8781C134.594 11.719 134.26 11.3485 133.852 11.0545C133.444 10.7604 133.11 10.2987 133.11 10.0287C133.11 9.39007 131.431 7.7127 130.809 7.73087C130.545 7.73866 130.12 7.98194 129.865 8.27158ZM135.335 7.92854C135.335 8.32275 136.482 9.29031 136.695 9.0767C136.812 8.95988 136.649 8.60646 136.333 8.29086C135.744 7.70194 135.335 7.5536 135.335 7.92854ZM143.494 8.82934C143.494 9.03331 143.234 9.20019 142.916 9.20019C142.598 9.20019 142.441 9.03331 142.567 8.82934C142.693 8.62537 142.953 8.45849 143.145 8.45849C143.337 8.45849 143.494 8.62537 143.494 8.82934ZM154.161 135.503L154.063 237.886L153.175 239.182C152.105 240.744 148.825 242.9 146.262 243.726C143.608 244.582 138.486 245.433 135.984 245.433L133.852 245.434V129.357V13.2796H137.271C141.748 13.2796 149.21 11.5366 152.083 9.81952L154.063 8.63612L154.161 20.878C154.214 27.6112 154.214 79.1924 154.161 135.503ZM139.044 9.9419C139.044 10.4362 139.291 10.6836 139.786 10.6836C140.28 10.6836 140.527 10.4362 140.527 9.9419C140.527 9.44755 140.28 9.20019 139.786 9.20019C139.291 9.20019 139.044 9.44755 139.044 9.9419ZM122.726 11.0545C122.726 11.2584 122.559 11.4253 122.355 11.4253C122.151 11.4253 121.985 11.2584 121.985 11.0545C121.985 10.8505 122.151 10.6836 122.355 10.6836C122.559 10.6836 122.726 10.8505 122.726 11.0545ZM139.044 12.167C139.044 12.371 138.867 12.5379 138.651 12.5379C138.435 12.5379 138.361 12.371 138.488 12.167C138.614 11.963 138.79 11.7962 138.88 11.7962C138.97 11.7962 139.044 11.963 139.044 12.167Z" fill="black"/>
<path d="M116.062 227.455V16.663C117.963 12.4957 118.993 12.9349 120.885 16.663V227.455C118.712 234.201 117.58 233.844 116.062 227.455Z" fill="#242424"/>
<path d="M131.804 21.3547C129.081 16.9746 127.833 17.8537 125.766 21.3547V232.884C128.294 239.385 129.604 238.328 131.804 232.884V21.3547Z" fill="#242424"/>
<path d="M147.638 228.813V16.664C149.993 12.8663 150.699 14.2833 151.985 16.664V228.813C150.279 232.439 149.34 232.022 147.638 228.813Z" fill="#EFECEC" stroke="white"/>
<path d="M136.694 232.884V21.3543C138.759 17.8824 140.015 17.5602 142.733 21.3543V232.884C139.803 239.535 138.616 237.953 136.694 232.884Z" fill="#EFECEC" stroke="white"/>
</svg>
