<svg width="112" height="179" viewBox="0 0 112 179" fill="none" xmlns="http://www.w3.org/2000/svg">
<path d="M111.466 5.04126L94.7109 6.60993L95.0216 177.365L100.188 177.575L105.475 176.419L109.756 174.151L111.466 171.913V5.04126Z" fill="white"/>
<ellipse cx="96.7221" cy="4.83164" rx="14.683" ry="4.83164" fill="white"/>
<path fill-rule="evenodd" clip-rule="evenodd" d="M91.0681 0.370721C87.026 0.812319 83.9426 1.89758 82.6964 3.31658L81.8775 4.24956V79.671V155.093L74.8521 154.06C70.9882 153.491 64.334 152.483 60.0652 151.818C40.9681 148.846 13.5312 145.162 10.9769 145.228C9.36066 145.27 6.85105 146.304 5.4109 147.522C4.331 148.435 1.5599 152.051 0.8041 153.532C-0.463152 156.016 -0.176515 162.576 1.27059 164.218C1.92763 164.963 2.30553 165.091 5.73528 165.729C11.9557 166.885 18.5858 167.933 29.421 169.473C39.0304 170.838 45.2184 171.657 77.1939 175.79C83.965 176.665 90.589 177.556 91.9138 177.77C93.2386 177.984 96.0785 178.166 98.2246 178.176L102.127 178.194L105.134 177.001C108.483 175.671 109.508 175.105 110.567 173.997C112.121 172.373 112.041 174.76 111.969 132.16C111.932 110.596 111.891 72.9756 111.878 48.5598L111.853 4.16793L110.845 3.16028C109.565 1.88018 106.652 0.919641 102.335 0.353593C98.6989 -0.123065 95.5419 -0.118248 91.0681 0.370721ZM98.6716 0.661373C99.5765 0.759328 99.809 0.890469 99.809 1.30316C99.809 1.58873 99.9295 1.82211 100.077 1.82211C100.224 1.82211 100.344 1.70167 100.344 1.55447C100.344 1.40727 100.575 1.28684 100.857 1.28684C101.139 1.28684 101.431 1.13643 101.506 0.952292C101.609 0.698307 101.696 0.693757 101.867 0.933023C101.991 1.10645 102.271 1.23813 102.489 1.22555C102.708 1.2127 103.399 1.22153 104.024 1.24455C104.969 1.27961 105.162 1.3773 105.162 1.82211C105.162 2.11651 105.282 2.35738 105.429 2.35738C105.577 2.35738 105.697 2.59825 105.697 2.89265C105.697 3.24164 105.518 3.42792 105.184 3.42792C104.902 3.42792 104.601 3.57833 104.515 3.76246C104.39 4.0301 104.328 4.0301 104.203 3.76246C104.117 3.57833 103.816 3.42792 103.534 3.42792C103.142 3.42792 103.021 3.2379 103.021 2.62501C103.021 2.18341 102.9 1.82211 102.753 1.82211C102.606 1.82211 102.485 1.94254 102.485 2.08974C102.485 2.23694 102.245 2.35738 101.95 2.35738C101.656 2.35738 101.415 2.47781 101.415 2.62501C101.415 3.16349 100.539 2.87177 99.809 2.08974C99.0787 1.30771 98.2032 1.01599 98.2032 1.55447C98.2032 1.70167 97.9623 1.82211 97.668 1.82211C97.3736 1.82211 97.1327 1.94254 97.1327 2.08974C97.1327 2.23694 96.7714 2.35738 96.3298 2.35738C95.8882 2.35738 95.5269 2.23694 95.5269 2.08974C95.5269 1.94254 95.7677 1.82211 96.0621 1.82211C96.4189 1.82211 96.5974 1.64359 96.5974 1.28684C96.5974 0.992438 96.477 0.751566 96.3298 0.751566C96.1826 0.751566 96.0621 0.872002 96.0621 1.0192C96.0621 1.1664 95.9117 1.29058 95.7276 1.2954C95.5437 1.29995 95.1677 1.47472 94.892 1.6832C94.4395 2.02604 94.4312 2.10286 94.8061 2.47755C95.0342 2.70584 95.5207 2.89265 95.8868 2.89265C96.2532 2.89265 96.614 3.04306 96.6887 3.22719C96.7912 3.48037 96.8907 3.46592 97.0976 3.16804C97.248 2.95153 97.4645 2.86776 97.5788 2.98177C97.6928 3.09605 97.6091 3.31257 97.3926 3.46298C97.0947 3.66986 97.0802 3.76942 97.3334 3.87192C97.5175 3.94659 97.668 4.23858 97.668 4.52067C97.668 4.85522 97.8542 5.03373 98.2032 5.03373C98.56 5.03373 98.7385 5.21224 98.7385 5.569C98.7385 5.8634 98.8589 6.10427 99.0061 6.10427C99.1533 6.10427 99.2738 6.58601 99.2738 7.17481C99.2738 8.18593 99.2291 8.24535 98.4709 8.24535C97.5344 8.24535 97.3899 8.68882 98.2701 8.86171C98.6015 8.92702 97.7488 8.97733 96.3753 8.97385C94.4563 8.96877 93.78 8.86894 93.453 8.54189C93.1393 8.22822 92.9983 8.2036 92.9166 8.44848C92.7973 8.80658 91.78 8.91711 91.78 8.57213C91.78 8.45732 92.0209 8.18995 92.3152 7.97771C92.6228 7.75611 92.8505 7.28481 92.8505 6.87051C92.8505 6.4736 93.0012 6.08768 93.1851 6.013C93.4382 5.9105 93.4238 5.81094 93.1259 5.60406C92.9094 5.45365 92.8256 5.23713 92.9396 5.12285C93.0539 5.00884 93.2704 5.09261 93.4209 5.30912C93.6277 5.607 93.7273 5.62145 93.8298 5.36827C93.9904 4.97271 95.5269 4.91195 95.5269 5.30136C95.5269 5.44856 95.7677 5.569 96.0621 5.569C96.5083 5.569 96.5974 5.74751 96.5974 6.63954C96.5974 7.65066 96.6421 7.71008 97.4003 7.71008C97.8419 7.71008 98.2032 7.58964 98.2032 7.44244C98.2032 7.29524 97.9623 7.17481 97.668 7.17481C97.2218 7.17481 97.1327 6.9963 97.1327 6.10427C97.1327 5.09314 97.088 5.03373 96.3298 5.03373C95.616 5.03373 95.5269 4.94461 95.5269 4.23082C95.5269 3.78922 95.4064 3.42792 95.2592 3.42792C95.112 3.42792 94.9916 3.66879 94.9916 3.96319C94.9916 4.55573 94.5778 4.68821 94.3651 4.16391C94.2626 3.91073 94.163 3.92518 93.9561 4.22306C93.8057 4.43958 93.5964 4.53057 93.4912 4.42539C93.3861 4.32021 93.5796 3.99182 93.9211 3.69555C94.2626 3.39928 94.4462 3.06741 94.3287 2.95795C94.2114 2.84849 94.0616 2.90951 93.996 3.09337C93.9302 3.27724 93.6457 3.42792 93.3636 3.42792C93.029 3.42792 92.8505 3.61419 92.8505 3.96319C92.8505 4.25759 92.7301 4.49846 92.5829 4.49846C92.4357 4.49846 92.3152 4.25759 92.3152 3.96319C92.3152 3.60643 92.1367 3.42792 91.78 3.42792C91.4232 3.42792 91.2447 3.60643 91.2447 3.96319C91.2447 4.25759 91.3651 4.49846 91.5123 4.49846C91.8996 4.49846 91.8418 5.49915 91.4454 5.66026C91.1923 5.76277 91.2067 5.86233 91.5046 6.06921C91.7211 6.21962 91.8172 6.42382 91.7182 6.52312C91.6189 6.62214 91.332 6.49742 91.0801 6.24558C90.6928 5.85831 90.6805 5.74751 91.0006 5.5243C91.2905 5.32197 91.3006 5.2291 91.044 5.12499C90.8564 5.04872 90.7094 4.5287 90.7094 3.94097C90.7094 2.96116 90.7606 2.89265 91.4901 2.89265C91.9194 2.89265 92.3198 3.03985 92.3797 3.2197C92.4491 3.42765 92.7544 3.28072 93.2204 2.81477C93.8924 2.14273 93.9173 2.04772 93.5225 1.65296C93.286 1.41664 93.0116 1.30423 92.9123 1.40326C92.8133 1.50255 92.9059 1.69097 93.1181 1.82211C93.3304 1.95325 93.4107 2.15397 93.2967 2.26825C93.1824 2.38227 92.9659 2.2985 92.8155 2.08198C92.6086 1.7841 92.509 1.76965 92.4065 2.02283C92.3318 2.20697 91.9293 2.35738 91.5123 2.35738C91.0954 2.35738 90.6928 2.50806 90.6182 2.69192C90.5157 2.9451 90.4161 2.93065 90.2092 2.63277C90.0588 2.41626 89.8388 2.34239 89.7203 2.46871C89.602 2.59504 89.6558 2.75214 89.8396 2.81771C90.2713 2.97187 90.2802 4.9537 89.8498 5.09716C89.4309 5.23686 91.348 7.17481 91.905 7.17481C92.1306 7.17481 92.3152 7.29524 92.3152 7.44244C92.3152 7.58964 91.9622 7.71008 91.5311 7.71008C90.9273 7.71008 90.7223 7.84871 90.6412 8.31226C90.5448 8.86359 90.5175 8.87269 90.316 8.41904C90.1723 8.09521 90.2175 7.84871 90.4461 7.7074C90.7271 7.53371 90.7121 7.40685 90.3706 7.06535C89.8083 6.50304 89.6389 6.5282 89.6389 7.17481C89.6389 7.46921 89.5185 7.71008 89.3713 7.71008C89.2241 7.71008 89.1036 7.46921 89.1036 7.17481C89.1036 6.81805 88.9251 6.63954 88.5684 6.63954C88.274 6.63954 88.0331 6.75997 88.0331 6.90717C88.0331 7.05437 87.7922 7.17481 87.4978 7.17481C87.2034 7.17481 86.9625 7.05437 86.9625 6.90717C86.9625 6.75997 87.083 6.63954 87.2302 6.63954C87.3774 6.63954 87.4978 6.03736 87.4978 5.30136C87.4978 4.56537 87.3774 3.96319 87.2302 3.96319C87.083 3.96319 86.9625 4.32449 86.9625 4.76609C86.9625 5.39049 86.8437 5.569 86.4273 5.569C86.0108 5.569 85.892 5.74751 85.892 6.3719C85.892 6.8135 85.7716 7.17481 85.6244 7.17481C85.4772 7.17481 85.3567 6.93394 85.3567 6.63954C85.3567 6.34514 85.2363 6.10427 85.0891 6.10427C84.9419 6.10427 84.8215 5.8634 84.8215 5.569C84.8215 5.2746 84.701 5.03373 84.5538 5.03373C84.4066 5.03373 84.2862 4.91329 84.2862 4.76609C84.2862 4.61889 84.6475 4.49846 85.0891 4.49846C85.6407 4.49846 85.892 4.36678 85.892 4.078C85.892 3.44612 86.5705 2.89265 87.345 2.89265C87.7234 2.89265 88.0331 2.77221 88.0331 2.62501C88.0331 2.47781 87.7823 2.35738 87.4756 2.35738C87.1486 2.35738 86.9639 2.21901 87.0294 2.02283C87.1927 1.53253 88.0331 1.44126 88.0331 1.91391C88.0331 2.13337 88.1838 2.38307 88.3676 2.46898C88.6353 2.5937 88.6353 2.65633 88.3676 2.78104C88.1838 2.86695 88.0331 3.39901 88.0331 3.96319C88.0331 4.53298 88.1819 5.04952 88.3676 5.12499C88.6208 5.2275 88.6064 5.32706 88.3085 5.53394C88.092 5.68435 87.9959 5.88855 88.0949 5.98785C88.1942 6.08687 88.4907 5.95252 88.7538 5.68917C89.0956 5.3474 89.1376 5.17879 88.9005 5.09983C88.3722 4.92373 88.5156 4.49846 89.1036 4.49846C89.398 4.49846 89.6389 4.37802 89.6389 4.23082C89.6389 4.08362 89.5185 3.96319 89.3713 3.96319C89.2241 3.96319 89.1036 3.49161 89.1036 2.91486C89.1036 2.31857 88.9594 1.81515 88.7691 1.74717C88.5852 1.6816 88.5314 1.5245 88.6497 1.39817C88.7683 1.27185 88.9744 1.34518 89.1076 1.56089C89.3127 1.89249 89.4127 1.87055 89.7537 1.41932C90.1139 0.94239 90.1581 0.935431 90.1656 1.35375C90.1776 2.01909 90.6099 1.93425 90.8459 1.21993L91.0451 0.617749L91.1636 1.21993C91.2375 1.59542 91.4762 1.82211 91.7987 1.82211C92.3744 1.82211 92.501 1.39764 91.9807 1.2119C91.7968 1.14633 91.743 0.989226 91.8613 0.862902C91.9799 0.736579 92.1905 0.810446 92.3297 1.02696C92.5518 1.37248 92.6179 1.37168 92.8709 1.0192C93.0876 0.717041 93.1926 0.700448 93.2945 0.952292C93.4506 1.33635 94.9916 1.41423 94.9916 1.03794C94.9916 0.623904 96.7029 0.448871 98.6716 0.661373ZM97.1327 1.0192C97.1327 1.1664 97.3736 1.28684 97.668 1.28684C97.9623 1.28684 98.2032 1.1664 98.2032 1.0192C98.2032 0.872002 97.9623 0.751566 97.668 0.751566C97.3736 0.751566 97.1327 0.872002 97.1327 1.0192ZM101.415 1.55447C101.415 1.70167 101.535 1.82211 101.682 1.82211C101.83 1.82211 101.95 1.70167 101.95 1.55447C101.95 1.40727 101.83 1.28684 101.682 1.28684C101.535 1.28684 101.415 1.40727 101.415 1.55447ZM103.556 2.35738C103.556 2.65178 103.676 2.89265 103.824 2.89265C103.971 2.89265 104.091 2.65178 104.091 2.35738C104.091 2.06298 103.971 1.82211 103.824 1.82211C103.676 1.82211 103.556 2.06298 103.556 2.35738ZM107.838 2.35738C107.838 2.95233 108.242 3.07785 108.485 2.5581C108.61 2.29047 108.672 2.29047 108.797 2.5581C108.883 2.74224 109.167 2.89265 109.427 2.89265C109.914 2.89265 111.321 4.37802 111.313 4.88465C111.311 5.04015 111.2 4.99439 111.066 4.78295C110.869 4.47169 110.671 4.56082 110.026 5.25132C109.097 6.24558 108.909 6.29937 108.909 5.569C108.909 5.2746 109.029 5.03373 109.176 5.03373C109.323 5.03373 109.444 4.91329 109.444 4.76609C109.444 4.61889 109.203 4.49846 108.909 4.49846C108.318 4.49846 108.18 4.07693 108.708 3.88825C108.902 3.81893 108.943 3.66959 108.805 3.53149C108.667 3.39339 108.518 3.43407 108.448 3.62864C108.382 3.81278 108.108 3.96319 107.838 3.96319C107.568 3.96319 107.294 3.81278 107.228 3.62864C107.162 3.44478 107.018 3.37867 106.906 3.48198C106.635 3.73356 107.423 4.49846 107.953 4.49846C108.449 4.49846 108.518 4.94086 108.046 5.09823C107.84 5.16674 108.007 5.49433 108.495 5.98249C108.983 6.47093 109.311 6.63713 109.379 6.43132C109.439 6.25147 109.709 6.10427 109.979 6.10427C110.249 6.10427 110.524 5.95359 110.589 5.76972C110.655 5.58586 110.799 5.51922 110.91 5.62226C111.021 5.72503 110.525 6.18188 109.809 6.63766L108.507 7.466L108.423 6.78513C108.365 6.31971 108.174 6.10427 107.82 6.10427C107.236 6.10427 107.085 7.0525 107.637 7.24975C107.832 7.31906 107.873 7.4684 107.735 7.6065C107.596 7.7446 107.447 7.70392 107.378 7.50935C107.206 7.02814 106.768 7.09693 106.768 7.6049C106.768 7.89662 106.624 7.97986 106.321 7.86343C106.075 7.76923 105.78 7.84309 105.666 8.02776C105.552 8.21243 105.362 8.26034 105.243 8.13401C105.125 8.00769 105.179 7.85059 105.362 7.78502C105.904 7.59152 105.745 7.17481 105.13 7.17481C104.671 7.17481 104.588 7.3006 104.692 7.8439C104.778 8.29245 104.7 8.51298 104.455 8.51298C104.255 8.51298 104.091 8.33233 104.091 8.11153C104.091 7.88859 103.853 7.71008 103.556 7.71008C103.262 7.71008 103.021 7.83051 103.021 7.97771C103.021 8.12491 103.148 8.24535 103.304 8.24535C103.46 8.24535 103.505 8.37863 103.404 8.54162C103.277 8.74823 103.15 8.72789 102.987 8.47471C102.793 8.17362 102.707 8.18005 102.485 8.51298C102.247 8.86974 102.188 8.86974 101.95 8.51298C101.728 8.18005 101.643 8.17362 101.448 8.47471C101.285 8.72789 101.159 8.74823 101.031 8.54162C100.93 8.37863 100.614 8.24535 100.329 8.24535C99.9329 8.24535 99.809 8.05908 99.809 7.46466C99.809 7.03537 99.9597 6.61385 100.144 6.52793C100.411 6.40322 100.411 6.34059 100.144 6.21587C99.9597 6.12996 99.809 5.85537 99.809 5.60566C99.809 5.35623 99.5682 4.97833 99.2738 4.76609C98.7931 4.41951 98.5097 3.42792 98.8913 3.42792C99.1579 3.42792 99.809 4.18051 99.809 4.48829C99.809 4.9339 101.605 6.63954 102.075 6.63954C102.301 6.63954 102.485 6.75997 102.485 6.90717C102.485 7.05437 102.365 7.17481 102.218 7.17481C102.071 7.17481 101.95 7.29524 101.95 7.44244C101.95 7.98093 102.826 7.6892 103.556 6.90717C104.443 5.95707 104.798 5.91184 105.452 6.66496L105.938 7.22593L106.659 6.50438C107.241 5.92281 107.308 5.736 107.007 5.54197C106.688 5.33642 106.689 5.26604 107.012 5.05808C107.331 4.85227 107.321 4.74602 106.945 4.36972C106.549 3.97443 106.455 3.96961 106.098 4.32637C105.878 4.54717 105.697 4.91704 105.697 5.14854C105.697 5.47479 105.397 5.569 104.359 5.569C103.623 5.569 103.021 5.68943 103.021 5.83663C103.021 6.2429 101.696 6.15646 101.262 5.72182C100.748 5.20742 100.781 5.03373 101.393 5.03373C101.675 5.03373 101.955 5.18307 102.016 5.36586C102.164 5.808 103.021 4.97003 103.021 4.38364C103.021 4.15241 103.141 3.96319 103.288 3.96319C103.435 3.96319 103.556 4.20406 103.556 4.49846C103.556 5.09341 103.96 5.21893 104.203 4.69918C104.328 4.43155 104.39 4.43155 104.515 4.69918C104.757 5.21893 105.162 5.09341 105.162 4.49846C105.162 4.19014 105.34 3.96319 105.582 3.96319C105.814 3.96319 106.195 3.77156 106.429 3.53738C106.769 3.19748 106.784 3.06848 106.506 2.89666C106.223 2.72163 106.228 2.60333 106.53 2.2621C107.068 1.65457 107.838 1.71077 107.838 2.35738ZM86.1318 2.33463C86.4332 2.52518 86.3705 2.70611 85.8096 3.26707C84.9539 4.1227 83.7509 4.21664 83.7509 3.42792C83.7509 2.83056 84.6997 2.66114 84.8876 3.22478C84.9663 3.46057 85.1408 3.41454 85.4887 3.06661C85.899 2.65633 85.9172 2.5375 85.6008 2.3373C85.3929 2.20563 85.3434 2.09804 85.4905 2.09804C85.6377 2.09804 85.9263 2.20429 86.1318 2.33463ZM98.7385 2.62501C98.7385 2.77221 98.6181 2.89265 98.4709 2.89265C98.3237 2.89265 98.2032 2.77221 98.2032 2.62501C98.2032 2.47781 98.3237 2.35738 98.4709 2.35738C98.6181 2.35738 98.7385 2.47781 98.7385 2.62501ZM106.768 2.62501C106.768 2.77221 106.888 2.89265 107.035 2.89265C107.182 2.89265 107.303 2.77221 107.303 2.62501C107.303 2.47781 107.182 2.35738 107.035 2.35738C106.888 2.35738 106.768 2.47781 106.768 2.62501ZM96.0621 3.96319C96.0621 4.25759 96.1826 4.49846 96.3298 4.49846C96.477 4.49846 96.5974 4.25759 96.5974 3.96319C96.5974 3.66879 96.477 3.42792 96.3298 3.42792C96.1826 3.42792 96.0621 3.66879 96.0621 3.96319ZM100.88 3.69555C100.88 3.84275 101.12 3.96319 101.415 3.96319C101.709 3.96319 101.95 3.84275 101.95 3.69555C101.95 3.54835 102.071 3.42792 102.218 3.42792C102.365 3.42792 102.485 3.78922 102.485 4.23082C102.485 4.67242 102.365 5.03373 102.218 5.03373C102.071 5.03373 101.95 4.91329 101.95 4.76609C101.95 4.61889 101.709 4.49846 101.415 4.49846C101.12 4.49846 100.88 4.61889 100.88 4.76609C100.88 4.91329 100.759 5.03373 100.612 5.03373C100.465 5.03373 100.344 4.67242 100.344 4.23082C100.344 3.78922 100.465 3.42792 100.612 3.42792C100.759 3.42792 100.88 3.54835 100.88 3.69555ZM109.444 3.69555C109.444 3.84275 109.564 3.96319 109.712 3.96319C109.859 3.96319 109.979 3.84275 109.979 3.69555C109.979 3.54835 109.859 3.42792 109.712 3.42792C109.564 3.42792 109.444 3.54835 109.444 3.69555ZM83.82 5.36131C84.1237 5.62467 84.276 5.9295 84.1585 6.03897C84.0413 6.14843 83.8914 6.08767 83.8259 5.90354C83.76 5.71968 83.4718 5.569 83.1849 5.569C82.4941 5.569 82.2886 4.95585 82.7208 4.18479L83.0701 3.56173L83.1691 4.22226C83.2237 4.58544 83.5165 5.09796 83.82 5.36131ZM90.7094 5.30136C90.7094 5.44856 90.589 5.569 90.4418 5.569C90.2946 5.569 90.1742 5.44856 90.1742 5.30136C90.1742 5.15416 90.2946 5.03373 90.4418 5.03373C90.589 5.03373 90.7094 5.15416 90.7094 5.30136ZM93.7203 5.96938C93.2683 6.48297 93.2967 7.92686 93.7682 8.39817C94.2066 8.83682 94.9916 8.91042 94.9916 8.51298C94.9916 8.36578 94.7507 8.24535 94.4563 8.24535C93.8555 8.24535 93.6941 7.31157 94.2556 7.08355C94.5088 6.98104 94.4943 6.88148 94.1964 6.6746C93.9799 6.52419 93.9061 6.30419 94.0324 6.18563C94.1587 6.06733 94.3158 6.12113 94.3814 6.30499C94.4472 6.48913 94.7317 6.63954 95.0138 6.63954C95.2959 6.63954 95.5269 6.75997 95.5269 6.90717C95.5269 7.05437 95.286 7.17481 94.9916 7.17481C94.6972 7.17481 94.4563 7.29524 94.4563 7.44244C94.4563 7.58964 94.8176 7.71008 95.2592 7.71008C95.8836 7.71008 96.0621 7.82891 96.0621 8.24535C96.0621 8.60211 96.2407 8.78062 96.5974 8.78062C96.8918 8.78062 97.1327 8.68668 97.1327 8.57213C97.1327 8.45732 96.8918 8.18995 96.5974 7.97771C96.303 7.76548 96.0621 7.43227 96.0621 7.23743C96.0621 6.77657 94.85 5.56605 94.4015 5.57917C94.2109 5.58479 93.9045 5.76036 93.7203 5.96938ZM97.668 5.72182C97.668 6.00631 98.4952 6.70457 98.6494 6.55042C98.7334 6.46611 98.6159 6.21105 98.3879 5.9833C97.9632 5.55829 97.668 5.45124 97.668 5.72182ZM103.556 6.3719C103.556 6.5191 103.368 6.63954 103.139 6.63954C102.909 6.63954 102.796 6.5191 102.887 6.3719C102.978 6.2247 103.165 6.10427 103.304 6.10427C103.443 6.10427 103.556 6.2247 103.556 6.3719ZM111.254 97.7888L111.184 171.676L110.542 172.612C109.77 173.738 107.403 175.294 105.554 175.89C103.638 176.508 99.9415 177.122 98.1363 177.123L96.5974 177.123V93.3533V9.58352H99.065C102.296 9.58352 107.681 8.32564 109.754 7.08649L111.184 6.23247L111.254 15.0671C111.292 19.9263 111.292 57.1511 111.254 97.7888ZM100.344 7.17481C100.344 7.53157 100.523 7.71008 100.88 7.71008C101.236 7.71008 101.415 7.53157 101.415 7.17481C101.415 6.81805 101.236 6.63954 100.88 6.63954C100.523 6.63954 100.344 6.81805 100.344 7.17481ZM88.5684 7.97771C88.5684 8.12491 88.4479 8.24535 88.3007 8.24535C88.1535 8.24535 88.0331 8.12491 88.0331 7.97771C88.0331 7.83051 88.1535 7.71008 88.3007 7.71008C88.4479 7.71008 88.5684 7.83051 88.5684 7.97771ZM100.344 8.78062C100.344 8.92782 100.217 9.04825 100.061 9.04825C99.9051 9.04825 99.8519 8.92782 99.9428 8.78062C100.034 8.63342 100.161 8.51298 100.226 8.51298C100.291 8.51298 100.344 8.63342 100.344 8.78062Z" fill="black"/>
<path d="M83.75 164.148V12.0254C85.122 9.01791 85.8651 9.33482 87.2307 12.0254V164.148C85.6623 169.017 84.8455 168.759 83.75 164.148Z" fill="#242424"/>
<path d="M95.1155 15.4109C93.1504 12.2499 92.2494 12.8844 90.7578 15.4109V168.066C92.5821 172.758 93.5279 171.995 95.1155 168.066V15.4109Z" fill="#242424"/>
<path d="M106.547 165.128V12.0258C108.246 9.28508 108.756 10.3076 109.684 12.0258V165.128C108.453 167.745 107.775 167.444 106.547 165.128Z" fill="#EFECEC" stroke="white"/>
<path d="M98.6562 168.066V15.4107C100.146 12.9051 101.053 12.6726 103.014 15.4107V168.066C100.9 172.866 100.043 171.724 98.6562 168.066Z" fill="#EFECEC" stroke="white"/>
</svg>
