<svg width="70" height="110" viewBox="0 0 70 110" fill="none" xmlns="http://www.w3.org/2000/svg">
<path d="M68.7594 3.10962L58.4243 4.07724L58.6159 109.406L61.803 109.536L65.0641 108.822L67.7046 107.423L68.7594 106.043V3.10962Z" fill="white"/>
<ellipse cx="59.6567" cy="2.98035" rx="9.05708" ry="2.98035" fill="white"/>
<path fill-rule="evenodd" clip-rule="evenodd" d="M56.1745 0.228676C53.6812 0.501072 51.7792 1.1705 51.0105 2.0458L50.5054 2.6213V49.1443V95.6675L46.1718 95.0303C43.7884 94.6798 39.6838 94.0577 37.0507 93.6478C25.2708 91.814 8.34661 89.5418 6.77101 89.5825C5.77404 89.6083 4.22601 90.2464 3.33767 90.9977C2.67154 91.561 0.962211 93.791 0.496002 94.7047C-0.285691 96.2367 -0.108882 100.284 0.783751 101.296C1.18904 101.756 1.42215 101.835 3.53775 102.228C7.37474 102.941 11.4645 103.588 18.1481 104.538C24.0756 105.38 27.8926 105.885 47.6163 108.434C51.7931 108.974 55.879 109.524 56.6962 109.656C57.5134 109.788 59.2651 109.9 60.589 109.906L62.9961 109.917L64.8507 109.181C66.9165 108.361 67.5491 108.012 68.2023 107.329C69.1607 106.326 69.1113 107.799 69.0669 81.5219C69.0445 68.2199 69.0192 45.0143 69.0108 29.9536L68.9953 2.57095L68.3739 1.94939C67.5841 1.15977 65.7876 0.567272 63.1244 0.21811C60.8815 -0.0759118 58.9341 -0.0729402 56.1745 0.228676ZM60.8647 0.407962C61.4228 0.468384 61.5663 0.549277 61.5663 0.803844C61.5663 0.979993 61.6406 1.12395 61.7314 1.12395C61.8222 1.12395 61.8965 1.04966 61.8965 0.958861C61.8965 0.868063 62.0389 0.793773 62.2129 0.793773C62.3869 0.793773 62.5671 0.700994 62.6131 0.587413C62.6767 0.430744 62.7302 0.427938 62.8355 0.575527C62.9119 0.682504 63.0848 0.763727 63.2197 0.755968C63.3545 0.748044 63.7806 0.753492 64.1664 0.767689C64.7494 0.789316 64.8681 0.849573 64.8681 1.12395C64.8681 1.30555 64.9423 1.45413 65.0331 1.45413C65.1239 1.45413 65.1982 1.60271 65.1982 1.7843C65.1982 1.99958 65.0881 2.11448 64.8818 2.11448C64.7078 2.11448 64.522 2.20726 64.469 2.32084C64.3921 2.48593 64.3535 2.48593 64.2765 2.32084C64.2235 2.20726 64.0378 2.11448 63.8638 2.11448C63.6223 2.11448 63.5474 1.99727 63.5474 1.61921C63.5474 1.34682 63.4731 1.12395 63.3823 1.12395C63.2915 1.12395 63.2172 1.19824 63.2172 1.28904C63.2172 1.37984 63.0686 1.45413 62.887 1.45413C62.7054 1.45413 62.5568 1.52842 62.5568 1.61921C62.5568 1.95137 62.0168 1.77143 61.5663 1.28904C61.1158 0.80665 60.5758 0.626704 60.5758 0.958861C60.5758 1.04966 60.4272 1.12395 60.2456 1.12395C60.064 1.12395 59.9154 1.19824 59.9154 1.28904C59.9154 1.37984 59.6925 1.45413 59.4201 1.45413C59.1477 1.45413 58.9249 1.37984 58.9249 1.28904C58.9249 1.19824 59.0735 1.12395 59.2551 1.12395C59.4751 1.12395 59.5852 1.01384 59.5852 0.793773C59.5852 0.612176 59.5109 0.463597 59.4201 0.463597C59.3293 0.463597 59.2551 0.537886 59.2551 0.628685C59.2551 0.719483 59.1623 0.796084 59.0487 0.799056C58.9353 0.801863 58.7033 0.909665 58.5333 1.03827C58.2541 1.24975 58.249 1.29713 58.4803 1.52825C58.621 1.66907 58.9211 1.7843 59.1469 1.7843C59.3729 1.7843 59.5955 1.87708 59.6415 1.99066C59.7048 2.14684 59.7662 2.13792 59.8938 1.95418C59.9866 1.82062 60.1201 1.76895 60.1906 1.83928C60.2609 1.90977 60.2093 2.04333 60.0757 2.13611C59.892 2.26372 59.8831 2.32513 60.0392 2.38836C60.1528 2.43442 60.2456 2.61453 60.2456 2.78853C60.2456 2.99489 60.3605 3.10501 60.5758 3.10501C60.7958 3.10501 60.9059 3.21512 60.9059 3.43519C60.9059 3.61678 60.9802 3.76536 61.071 3.76536C61.1618 3.76536 61.2361 4.06252 61.2361 4.42571C61.2361 5.04942 61.2085 5.08607 60.7408 5.08607C60.1632 5.08607 60.0741 5.35962 60.617 5.46627C60.8214 5.50655 60.2954 5.53758 59.4482 5.53544C58.2645 5.5323 57.8473 5.47072 57.6456 5.26899C57.4521 5.0755 57.3651 5.06031 57.3148 5.21137C57.2411 5.43226 56.6136 5.50044 56.6136 5.28764C56.6136 5.21682 56.7622 5.05189 56.9438 4.92098C57.1335 4.78429 57.274 4.49357 57.274 4.23801C57.274 3.99318 57.3669 3.75513 57.4804 3.70907C57.6365 3.64584 57.6276 3.58443 57.4439 3.45681C57.3103 3.36403 57.2586 3.23048 57.329 3.15998C57.3995 3.08966 57.533 3.14133 57.6258 3.27488C57.7534 3.45863 57.8148 3.46754 57.8781 3.31137C57.9771 3.06737 58.9249 3.02989 58.9249 3.2701C58.9249 3.3609 59.0735 3.43519 59.2551 3.43519C59.5303 3.43519 59.5852 3.5453 59.5852 4.09554C59.5852 4.71924 59.6128 4.75589 60.0805 4.75589C60.3529 4.75589 60.5758 4.6816 60.5758 4.5908C60.5758 4.5 60.4272 4.42571 60.2456 4.42571C59.9704 4.42571 59.9154 4.3156 59.9154 3.76536C59.9154 3.14166 59.8878 3.10501 59.4201 3.10501C58.9799 3.10501 58.9249 3.05003 58.9249 2.60974C58.9249 2.33735 58.8506 2.11448 58.7598 2.11448C58.669 2.11448 58.5947 2.26306 58.5947 2.44466C58.5947 2.81016 58.3395 2.89188 58.2082 2.56847C58.145 2.4123 58.0836 2.42121 57.956 2.60496C57.8632 2.73851 57.7341 2.79464 57.6692 2.72976C57.6043 2.66488 57.7237 2.46232 57.9343 2.27957C58.145 2.09681 58.2583 1.89211 58.1858 1.82458C58.1135 1.75706 58.021 1.7947 57.9806 1.90812C57.94 2.02153 57.7645 2.11448 57.5905 2.11448C57.3841 2.11448 57.274 2.22938 57.274 2.44466C57.274 2.62625 57.1997 2.77483 57.1089 2.77483C57.0181 2.77483 56.9438 2.62625 56.9438 2.44466C56.9438 2.22459 56.8337 2.11448 56.6136 2.11448C56.3936 2.11448 56.2835 2.22459 56.2835 2.44466C56.2835 2.62625 56.3578 2.77483 56.4486 2.77483C56.6874 2.77483 56.6518 3.3921 56.4073 3.49148C56.2511 3.55471 56.26 3.61612 56.4438 3.74374C56.5773 3.83651 56.6366 3.96248 56.5755 4.02373C56.5143 4.08481 56.3373 4.00788 56.1819 3.85253C55.9431 3.61365 55.9355 3.5453 56.1329 3.40762C56.3117 3.28281 56.318 3.22552 56.1596 3.1613C56.0439 3.11425 55.9533 2.79349 55.9533 2.43095C55.9533 1.82657 55.9848 1.7843 56.4348 1.7843C56.6997 1.7843 56.9466 1.8751 56.9836 1.98604C57.0264 2.11431 57.2147 2.02368 57.5021 1.73626C57.9167 1.32173 57.932 1.26312 57.6885 1.01961C57.5426 0.873841 57.3734 0.804504 57.3121 0.865587C57.251 0.926834 57.3082 1.04306 57.4391 1.12395C57.57 1.20484 57.6195 1.32866 57.5492 1.39915C57.4787 1.46948 57.3451 1.41781 57.2524 1.28425C57.1248 1.10051 57.0633 1.09159 57.0001 1.24777C56.9541 1.36135 56.7058 1.45413 56.4486 1.45413C56.1913 1.45413 55.9431 1.54707 55.897 1.66049C55.8338 1.81666 55.7724 1.80775 55.6447 1.624C55.552 1.49045 55.4163 1.44488 55.3431 1.5228C55.2702 1.60072 55.3033 1.69763 55.4168 1.73808C55.683 1.83317 55.6885 3.05565 55.423 3.14413C55.1647 3.23031 56.3472 4.42571 56.6907 4.42571C56.8299 4.42571 56.9438 4.5 56.9438 4.5908C56.9438 4.6816 56.7261 4.75589 56.4601 4.75589C56.0877 4.75589 55.9612 4.84141 55.9112 5.12734C55.8518 5.46742 55.8349 5.47303 55.7106 5.19321C55.622 4.99345 55.6499 4.84141 55.7908 4.75424C55.9642 4.6471 55.9549 4.56885 55.7443 4.35819C55.3974 4.01134 55.2929 4.02686 55.2929 4.42571C55.2929 4.60731 55.2186 4.75589 55.1278 4.75589C55.037 4.75589 54.9628 4.60731 54.9628 4.42571C54.9628 4.20565 54.8526 4.09554 54.6326 4.09554C54.451 4.09554 54.3024 4.16983 54.3024 4.26063C54.3024 4.35143 54.1538 4.42571 53.9722 4.42571C53.7906 4.42571 53.6421 4.35143 53.6421 4.26063C53.6421 4.16983 53.7163 4.09554 53.8071 4.09554C53.8979 4.09554 53.9722 3.72409 53.9722 3.2701C53.9722 2.8161 53.8979 2.44466 53.8071 2.44466C53.7163 2.44466 53.6421 2.66753 53.6421 2.93992C53.6421 3.32507 53.5688 3.43519 53.3119 3.43519C53.055 3.43519 52.9817 3.5453 52.9817 3.93045C52.9817 4.20285 52.9074 4.42571 52.8166 4.42571C52.7258 4.42571 52.6515 4.27714 52.6515 4.09554C52.6515 3.91394 52.5772 3.76536 52.4864 3.76536C52.3956 3.76536 52.3213 3.61678 52.3213 3.43519C52.3213 3.25359 52.2471 3.10501 52.1563 3.10501C52.0655 3.10501 51.9912 3.03072 51.9912 2.93992C51.9912 2.84912 52.214 2.77483 52.4864 2.77483C52.8267 2.77483 52.9817 2.69361 52.9817 2.51548C52.9817 2.12571 53.4002 1.7843 53.878 1.7843C54.1114 1.7843 54.3024 1.71001 54.3024 1.61921C54.3024 1.52842 54.1477 1.45413 53.9585 1.45413C53.7568 1.45413 53.6429 1.36878 53.6833 1.24777C53.784 0.945324 54.3024 0.889029 54.3024 1.18058C54.3024 1.31595 54.3954 1.46997 54.5088 1.52297C54.6739 1.5999 54.6739 1.63853 54.5088 1.71546C54.3954 1.76845 54.3024 2.09665 54.3024 2.44466C54.3024 2.79613 54.3942 3.11475 54.5088 3.1613C54.6649 3.22453 54.656 3.28595 54.4723 3.41356C54.3387 3.50634 54.2795 3.6323 54.3405 3.69355C54.4018 3.75463 54.5847 3.67176 54.747 3.50931C54.9578 3.29849 54.9837 3.19449 54.8375 3.14579C54.5116 3.03716 54.6001 2.77483 54.9628 2.77483C55.1444 2.77483 55.2929 2.70054 55.2929 2.60974C55.2929 2.51895 55.2186 2.44466 55.1278 2.44466C55.037 2.44466 54.9628 2.15377 54.9628 1.79801C54.9628 1.43019 54.8738 1.11966 54.7564 1.07772C54.643 1.03728 54.6098 0.940372 54.6828 0.86245C54.7559 0.784528 54.883 0.829762 54.9652 0.962824C55.0917 1.16737 55.1534 1.15383 55.3638 0.875492C55.586 0.581305 55.6132 0.577012 55.6178 0.835045C55.6253 1.24545 55.8919 1.19312 56.0375 0.752501L56.1603 0.381053L56.2334 0.752501C56.279 0.98412 56.4263 1.12395 56.6252 1.12395C56.9803 1.12395 57.0584 0.86212 56.7375 0.747548C56.624 0.707102 56.5909 0.610195 56.6638 0.532273C56.737 0.454352 56.8669 0.499916 56.9527 0.633472C57.0898 0.846601 57.1305 0.846106 57.2865 0.628685C57.4203 0.4423 57.485 0.432065 57.5479 0.587413C57.6441 0.824315 58.5947 0.872355 58.5947 0.640241C58.5947 0.38485 59.6503 0.276882 60.8647 0.407962ZM59.9154 0.628685C59.9154 0.719483 60.064 0.793773 60.2456 0.793773C60.4272 0.793773 60.5758 0.719483 60.5758 0.628685C60.5758 0.537886 60.4272 0.463597 60.2456 0.463597C60.064 0.463597 59.9154 0.537886 59.9154 0.628685ZM62.5568 0.958861C62.5568 1.04966 62.6311 1.12395 62.7219 1.12395C62.8127 1.12395 62.887 1.04966 62.887 0.958861C62.887 0.868063 62.8127 0.793773 62.7219 0.793773C62.6311 0.793773 62.5568 0.868063 62.5568 0.958861ZM63.8775 1.45413C63.8775 1.63572 63.9518 1.7843 64.0426 1.7843C64.1334 1.7843 64.2077 1.63572 64.2077 1.45413C64.2077 1.27253 64.1334 1.12395 64.0426 1.12395C63.9518 1.12395 63.8775 1.27253 63.8775 1.45413ZM66.5189 1.45413C66.5189 1.82112 66.7684 1.89854 66.918 1.57794C66.9949 1.41285 67.0335 1.41285 67.1105 1.57794C67.1634 1.69152 67.3384 1.7843 67.4992 1.7843C67.7995 1.7843 68.6671 2.70054 68.6626 3.01305C68.6611 3.10897 68.5924 3.08074 68.5099 2.95032C68.3884 2.75832 68.2662 2.8133 67.8684 3.23923C67.2955 3.85253 67.1793 3.88571 67.1793 3.43519C67.1793 3.25359 67.2536 3.10501 67.3444 3.10501C67.4352 3.10501 67.5095 3.03072 67.5095 2.93992C67.5095 2.84912 67.3609 2.77483 67.1793 2.77483C66.8151 2.77483 66.7296 2.51482 67.0555 2.39843C67.1755 2.35567 67.2006 2.26355 67.1154 2.17837C67.0302 2.09318 66.9381 2.11828 66.8953 2.2383C66.8547 2.35188 66.6853 2.44466 66.5189 2.44466C66.3525 2.44466 66.1832 2.35188 66.1425 2.2383C66.1021 2.12488 66.0128 2.0841 65.9441 2.14783C65.777 2.30301 66.2629 2.77483 66.5898 2.77483C66.8957 2.77483 66.9384 3.04772 66.6474 3.14479C66.5204 3.18706 66.6229 3.38913 66.9242 3.69025C67.2253 3.99153 67.4274 4.09405 67.4697 3.9671C67.5067 3.85616 67.6732 3.76536 67.8396 3.76536C68.0061 3.76536 68.1754 3.67242 68.216 3.559C68.2565 3.44559 68.3456 3.40448 68.414 3.46804C68.4822 3.53143 68.1766 3.81324 67.7348 4.09438L66.9317 4.60533L66.8795 4.18535C66.8437 3.89826 66.7261 3.76536 66.508 3.76536C66.1478 3.76536 66.0544 4.35027 66.3951 4.47194C66.5151 4.5147 66.5402 4.60682 66.4551 4.692C66.3699 4.77719 66.2777 4.75209 66.235 4.63208C66.129 4.33525 65.8586 4.37767 65.8586 4.69101C65.8586 4.87096 65.7699 4.9223 65.5829 4.85049C65.4312 4.79238 65.2496 4.83794 65.1791 4.95185C65.1088 5.06576 64.9914 5.09531 64.9182 5.01739C64.8453 4.93947 64.8785 4.84256 64.9919 4.80212C65.3258 4.68276 65.2281 4.42571 64.8487 4.42571C64.5651 4.42571 64.5143 4.50331 64.5783 4.83844C64.6312 5.11512 64.5831 5.25116 64.4324 5.25116C64.3089 5.25116 64.2077 5.13972 64.2077 5.00352C64.2077 4.86601 64.0609 4.75589 63.8775 4.75589C63.6959 4.75589 63.5474 4.83018 63.5474 4.92098C63.5474 5.01178 63.6261 5.08607 63.7222 5.08607C63.8183 5.08607 63.8462 5.16828 63.7841 5.26882C63.7053 5.39627 63.6274 5.38372 63.5267 5.22755C63.4069 5.04182 63.354 5.04579 63.2172 5.25116C63.0704 5.47122 63.0338 5.47122 62.887 5.25116C62.7501 5.04579 62.6973 5.04182 62.5775 5.22755C62.4768 5.38372 62.3988 5.39627 62.3201 5.26882C62.258 5.16828 62.063 5.08607 61.8867 5.08607C61.6427 5.08607 61.5663 4.97117 61.5663 4.60451C61.5663 4.3397 61.6592 4.07969 61.7727 4.0267C61.9377 3.94977 61.9377 3.91113 61.7727 3.8342C61.6592 3.78121 61.5663 3.61183 61.5663 3.4578C61.5663 3.30394 61.4177 3.07084 61.2361 2.93992C60.9396 2.72613 60.7648 2.11448 61.0002 2.11448C61.1646 2.11448 61.5663 2.57871 61.5663 2.76856C61.5663 3.04343 62.6744 4.09554 62.9641 4.09554C63.1033 4.09554 63.2172 4.16983 63.2172 4.26063C63.2172 4.35143 63.1429 4.42571 63.0521 4.42571C62.9613 4.42571 62.887 4.5 62.887 4.5908C62.887 4.92296 63.427 4.74301 63.8775 4.26063C64.425 3.67456 64.6439 3.64666 65.0469 4.11122L65.3468 4.45725L65.7919 4.01217C66.1506 3.65343 66.1922 3.5382 66.0065 3.41851C65.8096 3.29172 65.8101 3.24831 66.0091 3.12003C66.2064 2.99308 66.2 2.92754 65.9679 2.69542C65.724 2.45159 65.6659 2.44862 65.4459 2.66868C65.3097 2.80488 65.1982 3.03303 65.1982 3.17583C65.1982 3.37707 65.0132 3.43519 64.3728 3.43519C63.9188 3.43519 63.5474 3.50947 63.5474 3.60027C63.5474 3.85088 62.7305 3.79755 62.4626 3.52945C62.1453 3.21215 62.1656 3.10501 62.5431 3.10501C62.7171 3.10501 62.8901 3.19713 62.9278 3.30988C63.0187 3.58261 63.5474 3.06572 63.5474 2.70401C63.5474 2.56137 63.6216 2.44466 63.7124 2.44466C63.8032 2.44466 63.8775 2.59324 63.8775 2.77483C63.8775 3.14182 64.127 3.21925 64.2765 2.89865C64.3535 2.73356 64.3921 2.73356 64.469 2.89865C64.6186 3.21925 64.8681 3.14182 64.8681 2.77483C64.8681 2.58465 64.9782 2.44466 65.1274 2.44466C65.2702 2.44466 65.5051 2.32645 65.6496 2.182C65.8592 1.97234 65.8688 1.89277 65.6975 1.78678C65.5228 1.67881 65.5256 1.60584 65.712 1.39535C66.0438 1.0206 66.5189 1.05527 66.5189 1.45413ZM53.1296 1.44009C53.3155 1.55764 53.2769 1.66924 52.9309 2.01526C52.4031 2.54305 51.661 2.60099 51.661 2.11448C51.661 1.746 52.2462 1.6415 52.3621 1.98918C52.4107 2.13462 52.5183 2.10623 52.7329 1.89161C52.986 1.63853 52.9972 1.56523 52.8021 1.44174C52.6738 1.36052 52.6433 1.29416 52.7341 1.29416C52.8249 1.29416 53.0028 1.3597 53.1296 1.44009ZM60.9059 1.61921C60.9059 1.71001 60.8316 1.7843 60.7408 1.7843C60.6501 1.7843 60.5758 1.71001 60.5758 1.61921C60.5758 1.52842 60.6501 1.45413 60.7408 1.45413C60.8316 1.45413 60.9059 1.52842 60.9059 1.61921ZM65.8586 1.61921C65.8586 1.71001 65.9329 1.7843 66.0237 1.7843C66.1145 1.7843 66.1888 1.71001 66.1888 1.61921C66.1888 1.52842 66.1145 1.45413 66.0237 1.45413C65.9329 1.45413 65.8586 1.52842 65.8586 1.61921ZM59.2551 2.44466C59.2551 2.62625 59.3293 2.77483 59.4201 2.77483C59.5109 2.77483 59.5852 2.62625 59.5852 2.44466C59.5852 2.26306 59.5109 2.11448 59.4201 2.11448C59.3293 2.11448 59.2551 2.26306 59.2551 2.44466ZM62.2266 2.27957C62.2266 2.37037 62.3752 2.44466 62.5568 2.44466C62.7384 2.44466 62.887 2.37037 62.887 2.27957C62.887 2.18877 62.9613 2.11448 63.0521 2.11448C63.1429 2.11448 63.2172 2.33735 63.2172 2.60974C63.2172 2.88214 63.1429 3.10501 63.0521 3.10501C62.9613 3.10501 62.887 3.03072 62.887 2.93992C62.887 2.84912 62.7384 2.77483 62.5568 2.77483C62.3752 2.77483 62.2266 2.84912 62.2266 2.93992C62.2266 3.03072 62.1524 3.10501 62.0616 3.10501C61.9708 3.10501 61.8965 2.88214 61.8965 2.60974C61.8965 2.33735 61.9708 2.11448 62.0616 2.11448C62.1524 2.11448 62.2266 2.18877 62.2266 2.27957ZM67.5095 2.27957C67.5095 2.37037 67.5838 2.44466 67.6746 2.44466C67.7654 2.44466 67.8396 2.37037 67.8396 2.27957C67.8396 2.18877 67.7654 2.11448 67.6746 2.11448C67.5838 2.11448 67.5095 2.18877 67.5095 2.27957ZM51.7036 3.30708C51.891 3.46952 51.9849 3.65756 51.9124 3.72508C51.8401 3.7926 51.7477 3.75513 51.7072 3.64155C51.6666 3.52813 51.4888 3.43519 51.3118 3.43519C50.8857 3.43519 50.759 3.05697 51.0256 2.58135L51.241 2.19702L51.3021 2.60446C51.3358 2.82849 51.5164 3.14463 51.7036 3.30708ZM55.9533 3.2701C55.9533 3.3609 55.879 3.43519 55.7882 3.43519C55.6974 3.43519 55.6231 3.3609 55.6231 3.2701C55.6231 3.1793 55.6974 3.10501 55.7882 3.10501C55.879 3.10501 55.9533 3.1793 55.9533 3.2701ZM57.8105 3.68216C57.5317 3.99896 57.5492 4.88961 57.8401 5.18033C58.1105 5.45091 58.5947 5.49631 58.5947 5.25116C58.5947 5.16036 58.4461 5.08607 58.2645 5.08607C57.8939 5.08607 57.7944 4.51008 58.1407 4.36942C58.2969 4.30619 58.288 4.24478 58.1042 4.11717C57.9707 4.02439 57.9251 3.88868 58.003 3.81555C58.0809 3.74258 58.1779 3.77576 58.2183 3.88918C58.2589 4.00276 58.4344 4.09554 58.6084 4.09554C58.7824 4.09554 58.9249 4.16983 58.9249 4.26063C58.9249 4.35143 58.7763 4.42571 58.5947 4.42571C58.4131 4.42571 58.2645 4.5 58.2645 4.5908C58.2645 4.6816 58.4874 4.75589 58.7598 4.75589C59.1449 4.75589 59.2551 4.82919 59.2551 5.08607C59.2551 5.30613 59.3652 5.41624 59.5852 5.41624C59.7668 5.41624 59.9154 5.3583 59.9154 5.28764C59.9154 5.21682 59.7668 5.05189 59.5852 4.92098C59.4036 4.79006 59.2551 4.58453 59.2551 4.46435C59.2551 4.18006 58.5074 3.43337 58.2307 3.44146C58.1131 3.44493 57.9241 3.55322 57.8105 3.68216ZM60.2456 3.52945C60.2456 3.70494 60.7559 4.13565 60.851 4.04056C60.9028 3.98856 60.8303 3.83123 60.6897 3.69074C60.4277 3.42858 60.2456 3.36255 60.2456 3.52945ZM63.8775 3.93045C63.8775 4.02125 63.7616 4.09554 63.6202 4.09554C63.4787 4.09554 63.4087 4.02125 63.4648 3.93045C63.5209 3.83965 63.6367 3.76536 63.7222 3.76536C63.8077 3.76536 63.8775 3.83965 63.8775 3.93045ZM68.626 60.3201L68.5825 105.897L68.187 106.474C67.7109 107.169 66.2505 108.129 65.1099 108.496C63.928 108.878 61.648 109.256 60.5345 109.257L59.5852 109.257V57.5841V5.91151H61.1073C63.1005 5.91151 66.422 5.13559 67.701 4.37124L68.5825 3.84444L68.626 9.294C68.6497 12.2913 68.6497 35.2531 68.626 60.3201ZM61.8965 4.42571C61.8965 4.64578 62.0066 4.75589 62.2266 4.75589C62.4467 4.75589 62.5568 4.64578 62.5568 4.42571C62.5568 4.20565 62.4467 4.09554 62.2266 4.09554C62.0066 4.09554 61.8965 4.20565 61.8965 4.42571ZM54.6326 4.92098C54.6326 5.01178 54.5583 5.08607 54.4675 5.08607C54.3767 5.08607 54.3024 5.01178 54.3024 4.92098C54.3024 4.83018 54.3767 4.75589 54.4675 4.75589C54.5583 4.75589 54.6326 4.83018 54.6326 4.92098ZM61.8965 5.41624C61.8965 5.50704 61.8177 5.58133 61.7216 5.58133C61.6256 5.58133 61.5927 5.50704 61.6488 5.41624C61.705 5.32545 61.7835 5.25116 61.8237 5.25116C61.8638 5.25116 61.8965 5.32545 61.8965 5.41624Z" fill="black"/>
<path d="M51.666 101.253V7.41768C52.5123 5.56257 52.9707 5.75805 53.8131 7.41768V101.253C52.8456 104.257 52.3418 104.097 51.666 101.253Z" fill="#242424"/>
<path d="M58.6738 9.50596C57.4617 7.55613 56.9059 7.94748 55.9858 9.50596V103.67C57.1111 106.564 57.6945 106.094 58.6738 103.67V9.50596Z" fill="#242424"/>
<path d="M65.7222 101.858V7.4179C66.7705 5.72734 67.0851 6.3581 67.6575 7.4179V101.858C66.8981 103.472 66.48 103.286 65.7222 101.858Z" fill="#EFECEC" stroke="white"/>
<path d="M60.8506 103.67V9.50602C61.7698 7.96048 62.3288 7.81704 63.5386 9.50602V103.67C62.2345 106.631 61.7062 105.927 60.8506 103.67Z" fill="#EFECEC" stroke="white"/>
</svg>
