<svg width="80" height="96" viewBox="0 0 80 96" fill="none" xmlns="http://www.w3.org/2000/svg">
<circle cx="39.875" cy="39.5859" r="37.5859" fill="white" stroke="#121212" stroke-width="4"/>
<path d="M30.3564 35.2459C31.2444 35.2459 32.0204 35.4179 32.6844 35.7619C33.3564 36.0979 33.8724 36.5859 34.2324 37.2259C34.6004 37.8579 34.7844 38.5979 34.7844 39.4459C34.7844 40.2939 34.6004 41.0299 34.2324 41.6539C33.8724 42.2779 33.3564 42.7579 32.6844 43.0939C32.0204 43.4219 31.2444 43.5859 30.3564 43.5859H27.6324V35.2459H30.3564ZM30.3564 42.4699C31.3324 42.4699 32.0804 42.2059 32.6004 41.6779C33.1204 41.1499 33.3804 40.4059 33.3804 39.4459C33.3804 38.4779 33.1204 37.7219 32.6004 37.1779C32.0804 36.6339 31.3324 36.3619 30.3564 36.3619H29.0004V42.4699H30.3564ZM41.1682 41.8819H37.6762L37.0762 43.5859H35.6482L38.6362 35.2339H40.2202L43.2082 43.5859H41.7682L41.1682 41.8819ZM40.7842 40.7659L39.4282 36.8899L38.0602 40.7659H40.7842ZM48.3114 43.6699C47.5354 43.6699 46.8194 43.4899 46.1634 43.1299C45.5154 42.7619 44.9994 42.2539 44.6154 41.6059C44.2394 40.9499 44.0514 40.2139 44.0514 39.3979C44.0514 38.5819 44.2394 37.8499 44.6154 37.2019C44.9994 36.5539 45.5154 36.0499 46.1634 35.6899C46.8194 35.3219 47.5354 35.1379 48.3114 35.1379C49.0954 35.1379 49.8114 35.3219 50.4594 35.6899C51.1154 36.0499 51.6314 36.5539 52.0074 37.2019C52.3834 37.8499 52.5714 38.5819 52.5714 39.3979C52.5714 40.2139 52.3834 40.9499 52.0074 41.6059C51.6314 42.2539 51.1154 42.7619 50.4594 43.1299C49.8114 43.4899 49.0954 43.6699 48.3114 43.6699ZM48.3114 42.4819C48.8634 42.4819 49.3554 42.3579 49.7874 42.1099C50.2194 41.8539 50.5554 41.4939 50.7954 41.0299C51.0434 40.5579 51.1674 40.0139 51.1674 39.3979C51.1674 38.7819 51.0434 38.2419 50.7954 37.7779C50.5554 37.3139 50.2194 36.9579 49.7874 36.7099C49.3554 36.4619 48.8634 36.3379 48.3114 36.3379C47.7594 36.3379 47.2674 36.4619 46.8354 36.7099C46.4034 36.9579 46.0634 37.3139 45.8154 37.7779C45.5754 38.2419 45.4554 38.7819 45.4554 39.3979C45.4554 40.0139 45.5754 40.5579 45.8154 41.0299C46.0634 41.4939 46.4034 41.8539 46.8354 42.1099C47.2674 42.3579 47.7594 42.4819 48.3114 42.4819Z" fill="#121212"/>
<ellipse cx="39.8763" cy="90.7914" rx="24.0638" ry="4.76529" fill="#121212"/>
</svg>
