<svg width="111" height="130" viewBox="0 0 111 130" fill="none" xmlns="http://www.w3.org/2000/svg">
<ellipse cx="55.2747" cy="125.235" rx="24.0638" ry="4.76529" fill="#121212"/>
<circle cx="55.2734" cy="55" r="53" fill="white" stroke="#121212" stroke-width="4"/>
<path d="M31.0785 51.66V60H29.7105V54.288L27.1665 60H26.2185L23.6625 54.288V60H22.2945V51.66H23.7705L26.6985 58.2L29.6145 51.66H31.0785ZM34.2446 52.764V55.212H37.1246V56.328H34.2446V58.884H37.4846V60H32.8766V51.648H37.4846V52.764H34.2446ZM44.5575 51.66V52.776H42.3375V60H40.9695V52.776H38.7375V51.66H44.5575ZM50.971 58.296H47.479L46.879 60H45.451L48.439 51.648H50.023L53.011 60H51.571L50.971 58.296ZM50.587 57.18L49.231 53.304L47.863 57.18H50.587ZM61.4982 51.66L58.3662 60H56.7822L53.6382 51.66H55.1022L57.5742 58.596L60.0582 51.66H61.4982ZM64.0102 52.764V55.212H66.8902V56.328H64.0102V58.884H67.2502V60H62.6422V51.648H67.2502V52.764H64.0102ZM73.2672 60L71.3472 56.664H70.3032V60H68.9352V51.66H71.8152C72.4552 51.66 72.9952 51.772 73.4352 51.996C73.8832 52.22 74.2152 52.52 74.4312 52.896C74.6552 53.272 74.7672 53.692 74.7672 54.156C74.7672 54.7 74.6072 55.196 74.2872 55.644C73.9752 56.084 73.4912 56.384 72.8352 56.544L74.8992 60H73.2672ZM70.3032 55.572H71.8152C72.3272 55.572 72.7112 55.444 72.9672 55.188C73.2312 54.932 73.3632 54.588 73.3632 54.156C73.3632 53.724 73.2352 53.388 72.9792 53.148C72.7232 52.9 72.3352 52.776 71.8152 52.776H70.3032V55.572ZM79.2652 60.084C78.7052 60.084 78.2012 59.988 77.7532 59.796C77.3052 59.596 76.9532 59.316 76.6972 58.956C76.4412 58.596 76.3132 58.176 76.3132 57.696H77.7772C77.8092 58.056 77.9492 58.352 78.1972 58.584C78.4532 58.816 78.8092 58.932 79.2652 58.932C79.7372 58.932 80.1052 58.82 80.3692 58.596C80.6332 58.364 80.7652 58.068 80.7652 57.708C80.7652 57.428 80.6812 57.2 80.5132 57.024C80.3532 56.848 80.1492 56.712 79.9012 56.616C79.6612 56.52 79.3252 56.416 78.8932 56.304C78.3492 56.16 77.9052 56.016 77.5612 55.872C77.2252 55.72 76.9372 55.488 76.6972 55.176C76.4572 54.864 76.3372 54.448 76.3372 53.928C76.3372 53.448 76.4572 53.028 76.6972 52.668C76.9372 52.308 77.2732 52.032 77.7052 51.84C78.1372 51.648 78.6372 51.552 79.2052 51.552C80.0132 51.552 80.6732 51.756 81.1852 52.164C81.7052 52.564 81.9932 53.116 82.0492 53.82H80.5372C80.5132 53.516 80.3692 53.256 80.1052 53.04C79.8412 52.824 79.4932 52.716 79.0612 52.716C78.6692 52.716 78.3492 52.816 78.1012 53.016C77.8532 53.216 77.7292 53.504 77.7292 53.88C77.7292 54.136 77.8052 54.348 77.9572 54.516C78.1172 54.676 78.3172 54.804 78.5572 54.9C78.7972 54.996 79.1252 55.1 79.5412 55.212C80.0932 55.364 80.5412 55.516 80.8852 55.668C81.2372 55.82 81.5332 56.056 81.7732 56.376C82.0212 56.688 82.1452 57.108 82.1452 57.636C82.1452 58.06 82.0292 58.46 81.7972 58.836C81.5732 59.212 81.2412 59.516 80.8012 59.748C80.3692 59.972 79.8572 60.084 79.2652 60.084ZM85.1274 52.764V55.212H88.0074V56.328H85.1274V58.884H88.3674V60H83.7594V51.648H88.3674V52.764H85.1274Z" fill="#121212"/>
</svg>
