<svg width="111" height="130" viewBox="0 0 111 130" fill="none" xmlns="http://www.w3.org/2000/svg">
<ellipse cx="55.2747" cy="125.235" rx="24.0638" ry="4.76529" fill="#121212"/>
<circle cx="55.2734" cy="55" r="53" fill="white" stroke="#121212" stroke-width="4"/>
<path d="M22.3028 60H20.9348L16.8188 53.772V60H15.4508V51.648H16.8188L20.9348 57.864V51.648H22.3028V60ZM27.9032 60.084C27.1272 60.084 26.4112 59.904 25.7552 59.544C25.1072 59.176 24.5912 58.668 24.2072 58.02C23.8312 57.364 23.6432 56.628 23.6432 55.812C23.6432 54.996 23.8312 54.264 24.2072 53.616C24.5912 52.968 25.1072 52.464 25.7552 52.104C26.4112 51.736 27.1272 51.552 27.9032 51.552C28.6872 51.552 29.4032 51.736 30.0512 52.104C30.7072 52.464 31.2232 52.968 31.5992 53.616C31.9752 54.264 32.1632 54.996 32.1632 55.812C32.1632 56.628 31.9752 57.364 31.5992 58.02C31.2232 58.668 30.7072 59.176 30.0512 59.544C29.4032 59.904 28.6872 60.084 27.9032 60.084ZM27.9032 58.896C28.4552 58.896 28.9472 58.772 29.3792 58.524C29.8112 58.268 30.1472 57.908 30.3872 57.444C30.6352 56.972 30.7592 56.428 30.7592 55.812C30.7592 55.196 30.6352 54.656 30.3872 54.192C30.1472 53.728 29.8112 53.372 29.3792 53.124C28.9472 52.876 28.4552 52.752 27.9032 52.752C27.3512 52.752 26.8592 52.876 26.4272 53.124C25.9952 53.372 25.6552 53.728 25.4072 54.192C25.1672 54.656 25.0472 55.196 25.0472 55.812C25.0472 56.428 25.1672 56.972 25.4072 57.444C25.6552 57.908 25.9952 58.268 26.4272 58.524C26.8592 58.772 27.3512 58.896 27.9032 58.896ZM40.3614 60H38.9934L34.8774 53.772V60H33.5094V51.648H34.8774L38.9934 57.864V51.648H40.3614V60ZM47.0658 51.66V52.776H43.5258V55.236H46.2858V56.352H43.5258V60H42.1578V51.66H47.0658ZM49.6896 51.66V56.976C49.6896 57.608 49.8536 58.084 50.1816 58.404C50.5176 58.724 50.9816 58.884 51.5736 58.884C52.1736 58.884 52.6376 58.724 52.9656 58.404C53.3016 58.084 53.4696 57.608 53.4696 56.976V51.66H54.8376V56.952C54.8376 57.632 54.6896 58.208 54.3936 58.68C54.0976 59.152 53.7016 59.504 53.2056 59.736C52.7096 59.968 52.1616 60.084 51.5616 60.084C50.9616 60.084 50.4136 59.968 49.9176 59.736C49.4296 59.504 49.0416 59.152 48.7536 58.68C48.4656 58.208 48.3216 57.632 48.3216 56.952V51.66H49.6896ZM63.4708 60H62.1028L57.9868 53.772V60H56.6188V51.648H57.9868L62.1028 57.864V51.648H63.4708V60ZM71.3032 54.06C71.0872 53.644 70.7872 53.332 70.4032 53.124C70.0192 52.908 69.5752 52.8 69.0712 52.8C68.5192 52.8 68.0272 52.924 67.5952 53.172C67.1632 53.42 66.8232 53.772 66.5752 54.228C66.3352 54.684 66.2152 55.212 66.2152 55.812C66.2152 56.412 66.3352 56.944 66.5752 57.408C66.8232 57.864 67.1632 58.216 67.5952 58.464C68.0272 58.712 68.5192 58.836 69.0712 58.836C69.8152 58.836 70.4192 58.628 70.8832 58.212C71.3472 57.796 71.6312 57.232 71.7352 56.52H68.6032V55.428H73.1992V56.496C73.1112 57.144 72.8792 57.74 72.5032 58.284C72.1352 58.828 71.6512 59.264 71.0512 59.592C70.4592 59.912 69.7992 60.072 69.0712 60.072C68.2872 60.072 67.5712 59.892 66.9232 59.532C66.2752 59.164 65.7592 58.656 65.3752 58.008C64.9992 57.36 64.8112 56.628 64.8112 55.812C64.8112 54.996 64.9992 54.264 65.3752 53.616C65.7592 52.968 66.2752 52.464 66.9232 52.104C67.5792 51.736 68.2952 51.552 69.0712 51.552C69.9592 51.552 70.7472 51.772 71.4352 52.212C72.1312 52.644 72.6352 53.26 72.9472 54.06H71.3032ZM75.9164 51.66V60H74.5484V51.66H75.9164ZM82.1765 55.716C82.6245 55.796 83.0045 56.032 83.3165 56.424C83.6285 56.816 83.7845 57.26 83.7845 57.756C83.7845 58.18 83.6725 58.564 83.4485 58.908C83.2325 59.244 82.9165 59.512 82.5005 59.712C82.0845 59.904 81.6005 60 81.0485 60H77.7125V51.66H80.8925C81.4605 51.66 81.9485 51.756 82.3565 51.948C82.7645 52.14 83.0725 52.4 83.2805 52.728C83.4885 53.048 83.5925 53.408 83.5925 53.808C83.5925 54.288 83.4645 54.688 83.2085 55.008C82.9525 55.328 82.6085 55.564 82.1765 55.716ZM79.0805 55.164H80.7725C81.2205 55.164 81.5685 55.064 81.8165 54.864C82.0725 54.656 82.2005 54.36 82.2005 53.976C82.2005 53.6 82.0725 53.308 81.8165 53.1C81.5685 52.884 81.2205 52.776 80.7725 52.776H79.0805V55.164ZM80.9285 58.884C81.3925 58.884 81.7565 58.772 82.0205 58.548C82.2845 58.324 82.4165 58.012 82.4165 57.612C82.4165 57.204 82.2765 56.88 81.9965 56.64C81.7165 56.4 81.3445 56.28 80.8805 56.28H79.0805V58.884H80.9285ZM86.6391 58.896H89.4591V60H85.2711V51.66H86.6391V58.896ZM91.9711 52.764V55.212H94.8511V56.328H91.9711V58.884H95.2111V60H90.6031V51.648H95.2111V52.764H91.9711Z" fill="#121212"/>
</svg>
