<svg width="91" height="113" viewBox="0 0 91 113" fill="none" xmlns="http://www.w3.org/2000/svg">
<ellipse cx="44.431" cy="107.587" rx="24.0638" ry="4.76529" fill="#121212"/>
<circle cx="45.4215" cy="44.7223" r="42.7223" fill="white" stroke="#121212" stroke-width="4"/>
<path d="M27.813 51.2339L26.349 49.6499C25.989 49.7539 25.593 49.8059 25.161 49.8059C24.385 49.8059 23.669 49.6259 23.013 49.2659C22.365 48.8979 21.849 48.3899 21.465 47.7419C21.089 47.0859 20.901 46.3499 20.901 45.5339C20.901 44.7179 21.089 43.9859 21.465 43.3379C21.849 42.6899 22.365 42.1859 23.013 41.8259C23.669 41.4579 24.385 41.2739 25.161 41.2739C25.945 41.2739 26.661 41.4579 27.309 41.8259C27.965 42.1859 28.481 42.6899 28.857 43.3379C29.233 43.9859 29.421 44.7179 29.421 45.5339C29.421 46.3019 29.253 46.9979 28.917 47.6219C28.589 48.2379 28.133 48.7339 27.549 49.1099L29.553 51.2339H27.813ZM22.305 45.5339C22.305 46.1499 22.425 46.6939 22.665 47.1659C22.913 47.6299 23.253 47.9899 23.685 48.2459C24.117 48.4939 24.609 48.6179 25.161 48.6179C25.713 48.6179 26.205 48.4939 26.637 48.2459C27.069 47.9899 27.405 47.6299 27.645 47.1659C27.893 46.6939 28.017 46.1499 28.017 45.5339C28.017 44.9179 27.893 44.3779 27.645 43.9139C27.405 43.4499 27.069 43.0939 26.637 42.8459C26.205 42.5979 25.713 42.4739 25.161 42.4739C24.609 42.4739 24.117 42.5979 23.685 42.8459C23.253 43.0939 22.913 43.4499 22.665 43.9139C22.425 44.3779 22.305 44.9179 22.305 45.5339ZM32.1583 41.3819V46.6979C32.1583 47.3299 32.3223 47.8059 32.6503 48.1259C32.9863 48.4459 33.4503 48.6059 34.0423 48.6059C34.6423 48.6059 35.1063 48.4459 35.4343 48.1259C35.7703 47.8059 35.9383 47.3299 35.9383 46.6979V41.3819H37.3063V46.6739C37.3063 47.3539 37.1583 47.9299 36.8623 48.4019C36.5663 48.8739 36.1703 49.2259 35.6743 49.4579C35.1783 49.6899 34.6303 49.8059 34.0303 49.8059C33.4303 49.8059 32.8823 49.6899 32.3863 49.4579C31.8983 49.2259 31.5103 48.8739 31.2223 48.4019C30.9343 47.9299 30.7903 47.3539 30.7903 46.6739V41.3819H32.1583ZM44.1155 48.0179H40.6235L40.0235 49.7219H38.5955L41.5835 41.3699H43.1675L46.1555 49.7219H44.7155L44.1155 48.0179ZM43.7315 46.9019L42.3755 43.0259L41.0075 46.9019H43.7315ZM54.3067 49.7219H52.9387L48.8227 43.4939V49.7219H47.4547V41.3699H48.8227L52.9387 47.5859V41.3699H54.3067V49.7219ZM61.4911 41.3819V42.4979H59.2711V49.7219H57.9031V42.4979H55.6711V41.3819H61.4911ZM66.6806 49.8059C65.9046 49.8059 65.1886 49.6259 64.5326 49.2659C63.8846 48.8979 63.3686 48.3899 62.9846 47.7419C62.6086 47.0859 62.4206 46.3499 62.4206 45.5339C62.4206 44.7179 62.6086 43.9859 62.9846 43.3379C63.3686 42.6899 63.8846 42.1859 64.5326 41.8259C65.1886 41.4579 65.9046 41.2739 66.6806 41.2739C67.4646 41.2739 68.1806 41.4579 68.8286 41.8259C69.4846 42.1859 70.0006 42.6899 70.3766 43.3379C70.7526 43.9859 70.9406 44.7179 70.9406 45.5339C70.9406 46.3499 70.7526 47.0859 70.3766 47.7419C70.0006 48.3899 69.4846 48.8979 68.8286 49.2659C68.1806 49.6259 67.4646 49.8059 66.6806 49.8059ZM66.6806 48.6179C67.2326 48.6179 67.7246 48.4939 68.1566 48.2459C68.5886 47.9899 68.9246 47.6299 69.1646 47.1659C69.4126 46.6939 69.5366 46.1499 69.5366 45.5339C69.5366 44.9179 69.4126 44.3779 69.1646 43.9139C68.9246 43.4499 68.5886 43.0939 68.1566 42.8459C67.7246 42.5979 67.2326 42.4739 66.6806 42.4739C66.1286 42.4739 65.6366 42.5979 65.2046 42.8459C64.7726 43.0939 64.4326 43.4499 64.1846 43.9139C63.9446 44.3779 63.8246 44.9179 63.8246 45.5339C63.8246 46.1499 63.9446 46.6939 64.1846 47.1659C64.4326 47.6299 64.7726 47.9899 65.2046 48.2459C65.6366 48.4939 66.1286 48.6179 66.6806 48.6179Z" fill="#121212"/>
</svg>
