<svg width="20" height="20" viewBox="0 0 20 20" fill="none" xmlns="http://www.w3.org/2000/svg">
<path d="M20 10.2152C20 14.487 17.4331 18.1464 13.7889 19.6716C12.8643 19.9272 12.0008 19.4347 12.0002 18.5773C12.0002 18.4784 12.0013 18.3052 12.0027 18.0736C12.0057 17.6069 12.0102 16.9034 12.0102 16.0941C12.0102 15.2504 11.734 14.6989 11.4236 14.4186C13.3465 14.1938 15.3682 13.428 15.3682 9.95267C15.3682 8.96506 15.0334 8.15729 14.4797 7.52337C14.5698 7.29557 14.866 6.37541 14.3953 5.12854C14.3953 5.12854 13.6713 4.88576 12.0216 6.0562C11.3306 5.85538 10.5908 5.75497 9.85686 5.75197C9.12145 5.75497 8.38317 5.85538 7.69354 6.0562C6.04242 4.88576 5.31702 5.12854 5.31702 5.12854C4.84916 6.37541 5.1439 7.29557 5.23404 7.52337C4.68176 8.15729 4.3441 8.96506 4.3441 9.95267C4.3441 13.419 6.36149 14.1953 8.28015 14.4246C8.03406 14.6509 7.80943 15.051 7.73217 15.6355C7.23998 15.8663 5.98949 16.2664 5.2183 14.8832C5.2183 14.8832 4.76045 14.0155 3.8934 13.951C3.8934 13.951 3.05068 13.9391 3.83474 14.501C3.83474 14.501 4.3999 14.7798 4.79336 15.8258C4.79336 15.8258 5.29985 17.4399 7.70498 16.8929C7.70665 17.3323 7.71025 17.7574 7.71297 18.0787V18.0791C7.71493 18.31 7.71643 18.4871 7.71643 18.5773C7.70577 19.3199 7.09492 19.9128 6.20392 19.6686C2.56356 18.1416 0 14.4842 0 10.2152C0 4.57349 4.47715 0 10 0C15.5228 0 20 4.57349 20 10.2152Z" fill="white"/>
</svg>
