<svg width="41" height="35" viewBox="0 0 41 35" fill="none" xmlns="http://www.w3.org/2000/svg">
<path fill-rule="evenodd" clip-rule="evenodd" d="M31.406 33.7886C31.956 34.1781 32.665 34.2755 33.297 34.0363C33.9291 33.7954 34.3938 33.2556 34.5339 32.6013C36.0184 25.6247 39.6194 7.96603 40.9707 1.61972C41.0732 1.14139 40.9024 0.64428 40.5265 0.324829C40.1507 0.00537807 39.6297 -0.0868698 39.165 0.0856679C32.0022 2.73694 9.94295 11.0136 0.926575 14.3499C0.354297 14.5618 -0.0181116 15.1118 0.000679651 15.7149C0.0211792 16.3196 0.427753 16.844 1.0137 17.02C5.05723 18.2295 10.3649 19.9121 10.3649 19.9121C10.3649 19.9121 12.8453 27.403 14.1385 31.2125C14.3008 31.6908 14.6749 32.0666 15.1686 32.1965C15.6606 32.3246 16.1868 32.1896 16.5541 31.8429C18.6313 29.8817 21.8429 26.8495 21.8429 26.8495C21.8429 26.8495 27.945 31.3235 31.406 33.7886ZM12.5975 18.9649L15.4657 28.4255L16.1029 22.4345C16.1029 22.4345 27.1846 12.4392 33.5019 6.74208C33.6864 6.57467 33.712 6.29451 33.5583 6.09806C33.4062 5.9016 33.1261 5.85548 32.9159 5.98873C25.5942 10.6643 12.5975 18.9649 12.5975 18.9649Z" fill="#139BD0"/>
</svg>
