<svg width="20" height="20" viewBox="0 0 20 20" fill="none" xmlns="http://www.w3.org/2000/svg">
<g clip-path="url(#clip0_44_1003)">
<path fill-rule="evenodd" clip-rule="evenodd" d="M15.3207 18.5632C15.4503 18.6624 15.6033 18.7262 15.7649 18.7486C15.9266 18.771 16.0912 18.7512 16.2429 18.691C16.3969 18.6269 16.5326 18.5257 16.6379 18.3964C16.7432 18.2671 16.8148 18.1137 16.8462 17.9499C17.5707 14.3465 19.3273 5.22544 19.9862 1.94766C20.0111 1.82695 20.0042 1.70186 19.9662 1.58461C19.9282 1.46737 19.8605 1.36199 19.7696 1.27877C19.6814 1.19815 19.5724 1.14386 19.455 1.12206C19.3375 1.10026 19.2163 1.11182 19.1051 1.15543C15.6118 2.52432 4.85067 6.79988 0.452894 8.5221C0.313997 8.57909 0.196049 8.67752 0.115125 8.80398C0.0341996 8.93044 -0.00576667 9.07877 0.000671816 9.22877C0.00342878 9.37846 0.0524287 9.52364 0.140951 9.64439C0.229474 9.76514 0.353185 9.85555 0.495116 9.90321C2.46734 10.5277 5.05623 11.3965 5.05623 11.3965C5.05623 11.3965 6.26734 15.2665 6.89734 17.2332C6.93208 17.3531 6.99621 17.4625 7.08391 17.5514C7.17161 17.6402 7.28011 17.7058 7.39956 17.7421C7.51847 17.7743 7.64382 17.7743 7.76273 17.7421C7.88164 17.7099 7.98984 17.6466 8.07623 17.5588L10.6562 14.981C10.6562 14.981 13.6318 17.2921 15.3207 18.5643V18.5632ZM6.14623 10.9077L7.54512 15.7932L7.85623 12.6988L16.3429 4.59321C16.3865 4.55033 16.4133 4.49322 16.4184 4.43225C16.4235 4.37129 16.4066 4.31052 16.3707 4.26099C16.336 4.21267 16.2839 4.1798 16.2253 4.16942C16.1668 4.15904 16.1065 4.17197 16.0573 4.20544L6.14623 10.9065V10.9077Z" fill="white"/>
</g>
<defs>
<clipPath id="clip0_44_1003">
<rect width="20" height="20" fill="white"/>
</clipPath>
</defs>
</svg>
