<svg width="20" height="20" viewBox="0 0 20 20" fill="none" xmlns="http://www.w3.org/2000/svg">
<g clip-path="url(#clip0_44_1001)">
<path fill-rule="evenodd" clip-rule="evenodd" d="M17.6456 4.60107C18.4958 4.11154 19.137 3.32722 19.4478 2.39663C18.6393 2.86198 17.7586 3.18872 16.8422 3.36329C16.4534 2.96292 15.9878 2.64516 15.4733 2.42903C14.9587 2.21291 14.4059 2.10287 13.8478 2.10552C11.5811 2.10552 9.74556 3.88996 9.74556 6.09107C9.74556 6.40218 9.77889 6.70774 9.85 6.99885C8.22938 6.92512 6.64152 6.51701 5.18619 5.80015C3.73087 5.08329 2.43953 4.07318 1.39333 2.83329C1.02959 3.43861 0.837531 4.13154 0.837778 4.83774C0.837778 6.21996 1.56222 7.43996 2.66333 8.15552C2.01359 8.13529 1.37735 7.96492 0.804444 7.65774V7.70663C0.804444 9.63885 2.21778 11.25 4.09667 11.6144C3.75222 11.7077 3.39 11.7555 3.01444 11.7555C2.75 11.7555 2.49222 11.7311 2.24333 11.6844C2.76556 13.2666 4.28 14.4211 6.07667 14.4511C4.61095 15.5646 2.81963 16.1651 0.978889 16.16C0.647778 16.16 0.32 16.1433 0 16.1044C1.88726 17.2785 4.06625 17.899 6.28889 17.8955C13.8378 17.8955 17.9633 11.8222 17.9633 6.5544C17.9633 6.38107 17.9611 6.20996 17.9522 6.03996C18.7531 5.47937 19.447 4.77979 20.0011 3.9744C19.2507 4.29697 18.4571 4.50809 17.6456 4.60107Z" fill="white"/>
</g>
<defs>
<clipPath id="clip0_44_1001">
<rect width="20" height="20" fill="white"/>
</clipPath>
</defs>
</svg>
